Sinistre-2023.glyphspackage
{
glyphname = exclam;
layers = (
{
layerId = "452AD06C-4D92-427C-8B35-838986F56274";
shapes = (
{
closed = 1;
nodes = (
(124,145,l),
(144,145,l),
(160,408,ls),
(173,622,o),
(179,646,o),
(198,703,c),
(162,686,o),
(131,671,o),
(91,666,c),
(96,648,o),
(103,602,o),
(107,513,cs)
);
},
{
pos = (60,-10);
ref = period;
}
);
userData = {
com.hugojourdan.ColorFlow = {
"0" = 0;
"1" = 0;
"10" = 0;
"11" = 0;
"2" = 0;
"3" = 0;
"4" = 0;
"5" = 0;
"6" = 0;
"7" = 0;
"8" = 0;
"9" = 0;
};
};
width = 271;
},
{
layerId = m004;
shapes = (
{
closed = 1;
nodes = (
(144,195,l),
(205,195,l),
(230,408,ls),
(255,621,o),
(271,710,o),
(316,761,c),
(238,768,o),
(106,736,o),
(30,726,c),
(60,698,o),
(73,662,o),
(88,564,cs)
);
},
{
pos = (55,-21);
ref = period;
}
);
userData = {
com.hugojourdan.ColorFlow = {
"0" = 0;
"1" = 0;
"10" = 0;
"11" = 0;
"2" = 0;
"3" = 0;
"4" = 0;
"5" = 0;
"6" = 0;
"7" = 0;
"8" = 0;
"9" = 0;
};
};
width = 342;
},
{
layerId = "D54810B1-F9A5-4F35-A1FF-AED0599B2373";
shapes = (
{
closed = 1;
nodes = (
(135,172,l),
(177,172,l),
(198,408,ls),
(218,621,o),
(229,681,o),
(263,735,c),
(204,731,o),
(117,707,o),
(58,699,c),
(76,675,o),
(87,635,o),
(97,541,cs)
);
},
{
alignment = -1;
pos = (57,-16);
ref = period;
}
);
userData = {
com.hugojourdan.ColorFlow = {
"0" = 0;
"1" = 0;
"10" = 0;
"11" = 0;
"2" = 0;
"3" = 0;
"4" = 0;
"5" = 0;
"6" = 0;
"7" = 0;
"8" = 0;
"9" = 0;
};
};
width = 309.82812;
}
);
unicode = 33;
}
{
glyphname = quotedbl;
kernLeft = quotedblleft;
kernRight = quotedblleft;
layers = (
{
layerId = "452AD06C-4D92-427C-8B35-838986F56274";
shapes = (
{
closed = 1;
nodes = (
(102,478,l),
(130,723,l),
(60,723,l),
(88,478,l)
);
},
{
closed = 1;
nodes = (
(216,478,l),
(244,723,l),
(174,723,l),
(202,478,l)
);
}
);
userData = {
com.hugojourdan.ColorFlow = {
"0" = 0;
"1" = 0;
"10" = 0;
"11" = 0;
"2" = 0;
"3" = 0;
"4" = 0;
"5" = 0;
"6" = 0;
"7" = 0;
"8" = 0;
"9" = 0;
};
};
width = 304;
},
{
layerId = m004;
shapes = (
{
closed = 1;
nodes = (
(124,500,l),
(164,731,l),
(60,731,l),
(100,500,l)
);
},
{
closed = 1;
nodes = (
(262,500,l),
(302,731,l),
(198,731,l),
(238,500,l)
);
}
);
userData = {
com.hugojourdan.ColorFlow = {
"0" = 0;
"1" = 0;
"10" = 0;
"11" = 0;
"2" = 0;
"3" = 0;
"4" = 0;
"5" = 0;
"6" = 0;
"7" = 0;
"8" = 0;
"9" = 0;
};
};
width = 362;
},
{
layerId = "D54810B1-F9A5-4F35-A1FF-AED0599B2373";
shapes = (
{
closed = 1;
nodes = (
(114,490,l),
(149,727,l),
(60,727,l),
(95,490,l)
);
},
{
closed = 1;
nodes = (
(241,490,l),
(276,727,l),
(187,727,l),
(222,490,l)
);
}
);
userData = {
com.hugojourdan.ColorFlow = {
"0" = 0;
"1" = 0;
"10" = 0;
"11" = 0;
"2" = 0;
"3" = 0;
"4" = 0;
"5" = 0;
"6" = 0;
"7" = 0;
"8" = 0;
"9" = 0;
};
};
width = 336;
}
);
metricLeft = quotedblleft;
metricRight = quotedblleft;
note = quotedbl;
unicode = 34;
}
{
glyphname = ampersand;
kernLeft = O;
kernRight = O;
layers = (
{
layerId = "452AD06C-4D92-427C-8B35-838986F56274";
shapes = (
{
closed = 1;
nodes = (
(60,89,o),
(307,-56,o),
(542,-56,cs),
(757,-56,o),
(961,64,o),
(961,310,cs),
(961,453,o),
(885,618,o),
(713,771,c),
(708,762,l),
(834,641,o),
(899,480,o),
(899,335,cs),
(899,88,o),
(730,-30,o),
(551,-30,cs),
(334,-30,o),
(102,141,o),
(128,463,c),
(606,463,l),
(606,128,ls),
(606,84,o),
(604,68,o),
(596,44,c),
(678,44,l),
(672,64,o),
(670,80,o),
(670,120,cs),
(670,463,l),
(744,463,l),
(754,496,l),
(743,491,o),
(726,490,o),
(694,490,cs),
(670,490,l),
(670,499,ls),
(670,559,o),
(672,665,o),
(681,695,c),
(676,698,l),
(583,550,l),
(583,546,l),
(593,530,o),
(604,516,o),
(604,496,cs),
(604,490,l),
(404,490,l),
(506,515,o),
(548,561,o),
(546,615,cs),
(543,689,o),
(469,733,o),
(376,733,cs),
(236,733,o),
(60,631,o),
(60,373,cs)
);
},
{
closed = 1;
nodes = (
(131,490,l),
(155,631,o),
(252,707,o),
(345,711,cs),
(435,715,o),
(484,674,o),
(485,613,cs),
(486,553,o),
(424,490,o),
(308,490,cs)
);
}
);
userData = {
com.hugojourdan.ColorFlow = {
"0" = 0;
"1" = 0;
"10" = 0;
"11" = 0;
"2" = 0;
"3" = 0;
"4" = 0;
"5" = 0;
"6" = 0;
"7" = 0;
"8" = 0;
"9" = 0;
};
};
width = 1021;
},
{
layerId = m004;
shapes = (
{
closed = 1;
nodes = (
(60,37,o),
(353,-136,o),
(670,-122,cs),
(1012,-107,o),
(1195,115,o),
(1195,342,cs),
(1195,524,o),
(1071,711,o),
(793,801,c),
(778,782,l),
(930,732,o),
(1019,517,o),
(1019,317,cs),
(1019,125,o),
(938,-52,o),
(716,-57,cs),
(386,-64,o),
(249,168,o),
(283,448,c),
(638,448,l),
(638,84,ls),
(638,48,o),
(632,24,o),
(618,0,c),
(840,0,l),
(827,23,o),
(822,48,o),
(822,84,cs),
(822,448,l),
(920,448,l),
(942,520,l),
(917,501,o),
(880,500,o),
(834,500,cs),
(822,500,l),
(822,533,ls),
(822,595,o),
(824,666,o),
(830,746,c),
(818,754,l),
(620,631,l),
(619,617,l),
(633,599,o),
(638,574,o),
(638,531,cs),
(638,500,l),
(485,500,l),
(555,527,o),
(606,575,o),
(606,629,cs),
(606,692,o),
(538,725,o),
(449,725,cs),
(200,725,o),
(60,539,o),
(60,342,cs)
);
},
{
closed = 1;
nodes = (
(289,500,l),
(314,621,o),
(360,664,o),
(404,664,cs),
(437,664,o),
(459,639,o),
(457,604,cs),
(454,557,o),
(406,500,o),
(308,500,cs)
);
}
);
userData = {
com.hugojourdan.ColorFlow = {
"0" = 0;
"1" = 0;
"10" = 0;
"11" = 0;
"2" = 0;
"3" = 0;
"4" = 0;
"5" = 0;
"6" = 0;
"7" = 0;
"8" = 0;
"9" = 0;
};
};
width = 1245;
},
{
layerId = "D54810B1-F9A5-4F35-A1FF-AED0599B2373";
shapes = (
{
closed = 1;
nodes = (
(60,61,o),
(332,-100,o),
(612,-92,cs),
(897,-84,o),
(1089,92,o),
(1089,328,cs),
(1089,492,o),
(987,669,o),
(757,787,c),
(746,773,l),
(887,691,o),
(965,500,o),
(965,325,cs),
(965,108,o),
(844,-42,o),
(641,-45,cs),
(363,-49,o),
(182,156,o),
(213,455,c),
(624,455,l),
(624,104,ls),
(624,64,o),
(620,44,o),
(609,20,c),
(766,20,l),
(757,42,o),
(753,63,o),
(753,100,cs),
(753,455,l),
(840,455,l),
(857,509,l),
(838,496,o),
(810,495,o),
(771,495,cs),
(753,495,l),
(753,518,ls),
(753,579,o),
(755,666,o),
(763,723,c),
(754,729,l),
(603,594,l),
(603,585,l),
(615,568,o),
(623,548,o),
(623,515,cs),
(623,495,l),
(448,495,l),
(533,522,o),
(580,569,o),
(579,623,cs),
(578,691,o),
(507,729,o),
(416,729,cs),
(216,729,o),
(60,581,o),
(60,356,cs)
);
},
{
closed = 1;
nodes = (
(217,495,l),
(242,626,o),
(311,683,o),
(377,685,cs),
(436,687,o),
(470,655,o),
(470,608,cs),
(469,555,o),
(414,495,o),
(308,495,cs)
);
}
);
userData = {
com.hugojourdan.ColorFlow = {
"0" = 0;
"1" = 0;
"10" = 0;
"11" = 0;
"2" = 0;
"3" = 0;
"4" = 0;
"5" = 0;
"6" = 0;
"7" = 0;
"8" = 0;
"9" = 0;
};
};
width = 1149;
}
);
unicode = 38;
}
{
glyphname = quotesingle;
kernLeft = quotedblleft;
kernRight = quotedblleft;
layers = (
{
layerId = "452AD06C-4D92-427C-8B35-838986F56274";
shapes = (
{
closed = 1;
nodes = (
(136,726,o),
(160,686,o),
(160,644,cs),
(160,598,o),
(131,548,o),
(65,512,c),
(60,520,l),
(105,544,o),
(124,579,o),
(124,612,cs),
(124,648,o),
(102,683,o),
(65,702,c),
(93,749,l)
);
}
);
userData = {
com.hugojourdan.ColorFlow = {
"0" = 0;
"1" = 0;
"10" = 0;
"11" = 0;
"2" = 0;
"3" = 0;
"4" = 0;
"5" = 0;
"6" = 0;
"7" = 0;
"8" = 0;
"9" = 0;
};
};
width = 220;
},
{
layerId = m004;
shapes = (
{
closed = 1;
nodes = (
(207,793,o),
(232,746,o),
(232,697,cs),
(232,622,o),
(175,541,o),
(73,504,c),
(60,520,l),
(109,545,o),
(130,584,o),
(130,624,cs),
(130,664,o),
(106,706,o),
(61,731,c),
(154,822,l)
);
}
);
userData = {
com.hugojourdan.ColorFlow = {
"0" = 0;
"1" = 0;
"10" = 0;
"11" = 0;
"2" = 0;
"3" = 0;
"4" = 0;
"5" = 0;
"6" = 0;
"7" = 0;
"8" = 0;
"9" = 0;
};
};
width = 292;
},
{
layerId = "D54810B1-F9A5-4F35-A1FF-AED0599B2373";
shapes = (
{
closed = 1;
nodes = (
(173,745,o),
(194,707,o),
(194,665,cs),
(194,603,o),
(146,534,o),
(68,500,c),
(60,512,l),
(104,536,o),
(128,576,o),
(128,615,cs),
(128,650,o),
(108,684,o),
(68,703,c),
(128,770,l)
);
}
);
userData = {
com.hugojourdan.ColorFlow = {
"0" = 0;
"1" = 0;
"10" = 0;
"11" = 0;
"2" = 0;
"3" = 0;
"4" = 0;
"5" = 0;
"6" = 0;
"7" = 0;
"8" = 0;
"9" = 0;
};
};
width = 254;
}
);
metricLeft = quotedblleft;
metricRight = quotedblleft;
note = quotesingle;
unicode = 39;
}
{
glyphname = asterisk;
kernLeft = quotedblleft;
kernRight = quotedblleft;
layers = (
{
layerId = "452AD06C-4D92-427C-8B35-838986F56274";
shapes = (
{
closed = 1;
nodes = (
(159,546,l),
(198,524,l),
(160,619,l),
(256,582,l),
(233,623,l),
(256,662,l),
(160,625,l),
(198,720,l),
(157,696,l),
(118,720,l),
(156,625,l),
(60,662,l),
(83,621,l),
(60,582,l),
(156,619,l),
(118,524,l)
);
}
);
userData = {
com.hugojourdan.ColorFlow = {
"0" = 0;
"1" = 0;
"10" = 0;
"11" = 0;
"2" = 0;
"3" = 0;
"4" = 0;
"5" = 0;
"6" = 0;
"7" = 0;
"8" = 0;
"9" = 0;
};
};
width = 316;
},
{
layerId = m004;
shapes = (
{
closed = 1;
nodes = (
(184,525,l),
(249,489,l),
(211,582,l),
(304,546,l),
(268,612,l),
(306,677,l),
(211,640,l),
(249,734,l),
(182,696,l),
(118,736,l),
(156,640,l),
(61,677,l),
(98,611,l),
(60,546,l),
(155,582,l),
(118,490,l)
);
}
);
userData = {
com.hugojourdan.ColorFlow = {
"0" = 0;
"1" = 0;
"10" = 0;
"11" = 0;
"2" = 0;
"3" = 0;
"4" = 0;
"5" = 0;
"6" = 0;
"7" = 0;
"8" = 0;
"9" = 0;
};
};
width = 366;
},
{
layerId = "D54810B1-F9A5-4F35-A1FF-AED0599B2373";
shapes = (
{
closed = 1;
nodes = (
(173,535,l),
(226,505,l),
(188,599,l),
(282,562,l),
(252,617,l),
(283,670,l),
(188,633,l),
(226,728,l),
(171,696,l),
(118,729,l),
(156,633,l),
(61,670,l),
(91,616,l),
(60,562,l),
(155,599,l),
(118,505,l)
);
}
);
userData = {
com.hugojourdan.ColorFlow = {
"0" = 0;
"1" = 0;
"10" = 0;
"11" = 0;
"2" = 0;
"3" = 0;
"4" = 0;
"5" = 0;
"6" = 0;
"7" = 0;
"8" = 0;
"9" = 0;
};
};
width = 343;
}
);
metricLeft = quotedblleft;
metricRight = quotedblleft;
unicode = 42;
}
{
glyphname = period;
kernLeft = period;
kernRight = period;
layers = (
{
layerId = "452AD06C-4D92-427C-8B35-838986F56274";
shapes = (
{
closed = 1;
nodes = (
(110,19,o),
(136,38,o),
(152,47,c),
(129,61,o),
(107,82,o),
(96,105,c),
(86,84,o),
(66,59,o),
(40,47,c),
(63,39,o),
(88,12,o),
(96,-11,c)
);
}
);
userData = {
com.hugojourdan.ColorFlow = {
"0" = 0;
"1" = 0;
"10" = 0;
"11" = 0;
"2" = 0;
"3" = 0;
"4" = 0;
"5" = 0;
"6" = 0;
"7" = 0;
"8" = 0;
"9" = 0;
};
};
width = 232;
},
{
layerId = m004;
shapes = (
{
closed = 1;
nodes = (
(146,17,o),
(182,61,o),
(212,78,c),
(175,105,o),
(132,141,o),
(116,174,c),
(89,136,o),
(53,92,o),
(20,78,c),
(59,49,o),
(103,13,o),
(116,-18,c)
);
}
);
userData = {
com.hugojourdan.ColorFlow = {
"0" = 0;
"1" = 0;
"10" = 0;
"11" = 0;
"2" = 0;
"3" = 0;
"4" = 0;
"5" = 0;
"6" = 0;
"7" = 0;
"8" = 0;
"9" = 0;
};
};
width = 262;
},
{
layerId = "D54810B1-F9A5-4F35-A1FF-AED0599B2373";
shapes = (
{
closed = 1;
nodes = (
(121,18,o),
(152,51,o),
(176,64,c),
(145,85,o),
(112,114,o),
(98,143,c),
(79,112,o),
(50,77,o),
(20,64,c),
(52,44,o),
(87,13,o),
(98,-15,c)
);
}
);
userData = {
com.hugojourdan.ColorFlow = {
"0" = 0;
"1" = 0;
"10" = 0;
"11" = 0;
"2" = 0;
"3" = 0;
"4" = 0;
"5" = 0;
"6" = 0;
"7" = 0;
"8" = 0;
"9" = 0;
};
};
width = 239.34375;
}
);
unicode = 46;
}
{
color = 5;
glyphname = zero;
kernLeft = O;
kernRight = O;
layers = (
{
layerId = "452AD06C-4D92-427C-8B35-838986F56274";
shapes = (
{
closed = 1;
nodes = (
(451,-16,o),
(540,160,o),
(540,351,cs),
(540,544,o),
(454,722,o),
(293,722,cs),
(137,722,o),
(50,546,o),
(50,346,cs),
(52,161,o),
(134,-16,o),
(293,-16,cs)
);
},
{
closed = 1;
nodes = (
(190,3,o),
(126,193,o),
(121,346,cs),
(121,534,o),
(181,700,o),
(295,700,cs),
(405,700,o),
(469,510,o),
(469,351,cs),
(469,195,o),
(406,3,o),
(295,3,cs)
);
}
);
userData = {
com.hugojourdan.ColorFlow = {
"0" = 0;
"1" = 0;
"10" = 0;
"11" = 0;
"2" = 0;
"3" = 0;
"4" = 0;
"5" = 0;
"6" = 0;
"7" = 0;
"8" = 0;
"9" = 0;
};
};
width = 590;
},
{
layerId = m004;
shapes = (
{
closed = 1;
nodes = (
(525,-20,o),
(647,141,o),
(647,356,cs),
(647,567,o),
(525,733,o),
(343,733,cs),
(160,733,o),
(30,566,o),
(30,355,cs),
(30,140,o),
(152,-20,o),
(343,-20,cs)
);
},
{
closed = 1;
nodes = (
(296,51,o),
(245,149,o),
(231,353,cs),
(218,564,o),
(260,664,o),
(323,664,cs),
(383,664,o),
(435,570,o),
(446,373,cs),
(459,155,o),
(420,51,o),
(355,51,cs)
);
}
);
userData = {
com.hugojourdan.ColorFlow = {
"0" = 0;
"1" = 0;
"10" = 0;
"11" = 0;
"2" = 0;
"3" = 0;
"4" = 0;
"5" = 0;
"6" = 0;
"7" = 0;
"8" = 0;
"9" = 0;
};
};
width = 677;
},
{
layerId = "D54810B1-F9A5-4F35-A1FF-AED0599B2373";
shapes = (
{
closed = 1;
nodes = (
(492,-18,o),
(600,150,o),
(600,354,cs),
(600,557,o),
(494,728,o),
(321,728,cs),
(151,728,o),
(40,557,o),
(40,351,cs),
(41,150,o),
(145,-18,o),
(321,-18,cs)
);
},
{
closed = 1;
nodes = (
(249,29,o),
(192,169,o),
(182,350,cs),
(175,550,o),
(225,680,o),
(311,680,cs),
(394,680,o),
(451,543,o),
(457,363,cs),
(465,173,o),
(415,29,o),
(329,29,cs)
);
}
);
userData = {
com.hugojourdan.ColorFlow = {
"0" = 0;
"1" = 0;
"10" = 0;
"11" = 0;
"2" = 0;
"3" = 0;
"4" = 0;
"5" = 0;
"6" = 0;
"7" = 0;
"8" = 0;
"9" = 0;
};
};
width = 640;
}
);
metricLeft = O;
metricRight = O;
unicode = 48;
}
{
color = 5;
glyphname = one;
kernLeft = l;
kernRight = l;
layers = (
{
layerId = "452AD06C-4D92-427C-8B35-838986F56274";
shapes = (
{
closed = 1;
nodes = (
(165,0,l),
(157,24,o),
(155,40,o),
(155,84,cs),
(155,649,ls),
(155,673,o),
(156,697,o),
(163,722,c),
(154,728,l),
(60,613,l),
(60,603,l),
(82,579,o),
(85,556,o),
(85,514,cs),
(85,84,ls),
(85,40,o),
(83,24,o),
(75,0,c)
);
}
);
userData = {
com.hugojourdan.ColorFlow = {
"0" = 0;
"1" = 0;
"10" = 0;
"11" = 0;
"2" = 0;
"3" = 0;
"4" = 0;
"5" = 0;
"6" = 0;
"7" = 0;
"8" = 0;
"9" = 0;
};
};
width = 225;
},
{
layerId = m004;
shapes = (
{
closed = 1;
nodes = (
(282,0,l),
(268,24,o),
(262,48,o),
(262,84,cs),
(262,639,ls),
(262,673,o),
(263,689,o),
(270,714,c),
(259,726,l),
(50,623,l),
(50,603,l),
(74,591,o),
(75,556,o),
(75,534,cs),
(75,84,ls),
(75,48,o),
(69,24,o),
(55,0,c)
);
}
);
userData = {
com.hugojourdan.ColorFlow = {
"0" = 0;
"1" = 0;
"10" = 0;
"11" = 0;
"2" = 0;
"3" = 0;
"4" = 0;
"5" = 0;
"6" = 0;
"7" = 0;
"8" = 0;
"9" = 0;
};
};
width = 332;
},
{
layerId = "D54810B1-F9A5-4F35-A1FF-AED0599B2373";
shapes = (
{
closed = 1;
nodes = (
(214,0,l),
(203,24,o),
(199,44,o),
(199,84,cs),
(199,644,ls),
(199,673,o),
(200,693,o),
(207,718,c),
(197,727,l),
(40,618,l),
(40,603,l),
(63,586,o),
(65,556,o),
(65,525,cs),
(65,84,ls),
(65,44,o),
(61,24,o),
(50,0,c)
);
}
);
userData = {
com.hugojourdan.ColorFlow = {
"0" = 0;
"1" = 0;
"10" = 0;
"11" = 0;
"2" = 0;
"3" = 0;
"4" = 0;
"5" = 0;
"6" = 0;
"7" = 0;
"8" = 0;
"9" = 0;
};
};
width = 264;
}
);
metricLeft = l;
metricRight = l;
unicode = 49;
}
{
color = 5;
glyphname = four;
layers = (
{
layerId = "452AD06C-4D92-427C-8B35-838986F56274";
shapes = (
{
closed = 1;
nodes = (
(296,-135,l),
(347,-51,o),
(380,-10,o),
(406,0,c),
(406,258,l),
(450,258,o),
(471,253,o),
(478,250,c),
(468,284,l),
(406,284,l),
(406,722,l),
(269,722,l),
(269,716,l),
(289,716,ls),
(325,716,o),
(341,697,o),
(341,652,cs),
(341,284,l),
(75,284,l),
(189,425,o),
(234,507,o),
(234,587,cs),
(234,667,o),
(193,717,o),
(110,734,cs),
(87,739,o),
(61,742,o),
(31,742,c),
(30,735,l),
(114,734,o),
(160,677,o),
(160,575,cs),
(160,473,o),
(114,360,o),
(31,258,c),
(341,258,l),
(341,15,ls),
(341,-28,o),
(331,-56,o),
(288,-130,c)
);
}
);
userData = {
com.hugojourdan.ColorFlow = {
"0" = 0;
"1" = 0;
"10" = 0;
"11" = 0;
"2" = 0;
"3" = 0;
"4" = 0;
"5" = 0;
"6" = 0;
"7" = 0;
"8" = 0;
"9" = 0;
};
};
width = 498;
},
{
layerId = m004;
shapes = (
{
closed = 1;
nodes = (
(350,-201,l),
(395,-151,o),
(487,-25,o),
(587,-25,c),
(587,172,l),
(633,173,o),
(645,170,o),
(666,163,c),
(649,244,l),
(587,244,l),
(587,722,l),
(319,722,l),
(319,698,l),
(335,698,ls),
(369,698,o),
(387,676,o),
(387,634,cs),
(387,244,l),
(192,244,l),
(257,364,o),
(304,471,o),
(304,563,cs),
(304,675,o),
(245,734,o),
(181,734,cs),
(109,734,o),
(30,659,o),
(20,495,c),
(38,492,l),
(83,582,o),
(169,547,o),
(166,438,cs),
(164,362,o),
(133,242,o),
(84,172,c),
(387,172,l),
(387,49,ls),
(387,-55,o),
(381,-121,o),
(332,-187,c)
);
}
);
userData = {
com.hugojourdan.ColorFlow = {
"0" = 0;
"1" = 0;
"10" = 0;
"11" = 0;
"2" = 0;
"3" = 0;
"4" = 0;
"5" = 0;
"6" = 0;
"7" = 0;
"8" = 0;
"9" = 0;
};
};
width = 700;
},
{
layerId = "D54810B1-F9A5-4F35-A1FF-AED0599B2373";
shapes = (
{
closed = 1;
nodes = (
(331,-171,l),
(378,-106,o),
(444,-18,o),
(510,-14,c),
(510,211,l),
(555,212,o),
(571,208,o),
(586,202,c),
(572,262,l),
(510,262,l),
(510,722,l),
(301,722,l),
(301,706,l),
(319,706,ls),
(354,706,o),
(371,686,o),
(371,642,cs),
(371,262,l),
(144,262,l),
(231,392,o),
(277,487,o),
(277,574,cs),
(277,671,o),
(226,726,o),
(154,734,c),
(104,736,o),
(49,697,o),
(30,607,c),
(39,602,l),
(102,651,o),
(170,606,o),
(168,500,cs),
(167,412,o),
(129,295,o),
(65,211,c),
(371,211,l),
(371,34,ls),
(371,-43,o),
(363,-92,o),
(317,-161,c)
);
}
);
userData = {
com.hugojourdan.ColorFlow = {
"0" = 0;
"1" = 0;
"10" = 0;
"11" = 0;
"2" = 0;
"3" = 0;
"4" = 0;
"5" = 0;
"6" = 0;
"7" = 0;
"8" = 0;
"9" = 0;
};
};
width = 616;
}
);
unicode = 52;
}
{
color = 5;
glyphname = five;
kernRight = "3";
layers = (
{
layerId = "452AD06C-4D92-427C-8B35-838986F56274";
shapes = (
{
closed = 1;
nodes = (
(175,-7,o),
(251,-7,cs),
(403,-7,o),
(480,114,o),
(480,235,cs),
(480,359,o),
(400,484,o),
(238,484,cs),
(196,484,o),
(152,476,o),
(110,458,c),
(106,461,l),
(142,662,l),
(259,662,ls),
(346,662,o),
(390,656,o),
(415,588,c),
(423,591,l),
(410,645,o),
(386,712,o),
(374,735,c),
(358,725,o),
(348,722,o),
(245,722,cs),
(190,722,o),
(136,719,o),
(104,727,c),
(100,723,l),
(104,685,o),
(118,633,o),
(75,430,c),
(84,424,l),
(131,448,o),
(176,459,o),
(215,459,cs),
(345,459,o),
(410,337,o),
(410,221,cs),
(410,116,o),
(357,16,o),
(255,16,cs),
(163,16,o),
(56,86,o),
(56,246,c),
(48,246,l),
(48,133,o),
(50,100,o),
(30,69,c),
(100,13,o)
);
}
);
userData = {
com.hugojourdan.ColorFlow = {
"0" = 0;
"1" = 0;
"10" = 0;
"11" = 0;
"2" = 0;
"3" = 0;
"4" = 0;
"5" = 0;
"6" = 0;
"7" = 0;
"8" = 0;
"9" = 0;
};
};
width = 510;
},
{
layerId = m004;
shapes = (
{
closed = 1;
nodes = (
(182,-12,o),
(277,-12,cs),
(485,-12,o),
(575,128,o),
(568,261,cs),
(562,381,o),
(476,496,o),
(327,496,cs),
(274,496,o),
(220,479,o),
(176,444,c),
(169,448,l),
(197,580,l),
(297,580,ls),
(431,580,o),
(481,572,o),
(513,497,c),
(529,501,l),
(514,579,o),
(496,670,o),
(481,734,c),
(460,722,o),
(420,723,o),
(378,722,cs),
(278,721,o),
(195,719,o),
(120,734,c),
(108,722,l),
(132,687,o),
(131,569,o),
(99,364,c),
(115,358,l),
(152,379,o),
(188,389,o),
(221,389,cs),
(326,389,o),
(377,295,o),
(382,207,cs),
(386,130,o),
(353,56,o),
(289,56,cs),
(209,56,o),
(118,139,o),
(107,286,c),
(85,285,l),
(87,167,o),
(70,129,o),
(30,84,c),
(87,21,o)
);
}
);
userData = {
com.hugojourdan.ColorFlow = {
"0" = 0;
"1" = 0;
"10" = 0;
"11" = 0;
"2" = 0;
"3" = 0;
"4" = 0;
"5" = 0;
"6" = 0;
"7" = 0;
"8" = 0;
"9" = 0;
};
};
width = 590;
},
{
layerId = "D54810B1-F9A5-4F35-A1FF-AED0599B2373";
shapes = (
{
closed = 1;
nodes = (
(170,-9,o),
(255,-9,cs),
(388,-9,o),
(519,74,o),
(520,242,cs),
(521,410,o),
(405,497,o),
(284,497,cs),
(242,497,o),
(199,486,o),
(160,465,c),
(155,469,l),
(187,626,l),
(294,626,ls),
(407,626,o),
(453,601,o),
(477,536,c),
(490,538,l),
(482,583,o),
(462,693,o),
(446,738,c),
(428,723,o),
(413,723,o),
(344,722,cs),
(264,722,o),
(179,719,o),
(120,731,c),
(110,722,l),
(130,686,o),
(123,589,o),
(89,403,c),
(100,394,l),
(135,411,o),
(169,422,o),
(202,422,cs),
(317,422,o),
(372,304,o),
(372,198,cs),
(372,111,o),
(335,33,o),
(264,33,cs),
(182,33,o),
(89,117,o),
(82,273,c),
(67,272,l),
(65,160,o),
(62,125,o),
(30,91,c),
(85,25,o)
);
}
);
userData = {
com.hugojourdan.ColorFlow = {
"0" = 0;
"1" = 0;
"10" = 0;
"11" = 0;
"2" = 0;
"3" = 0;
"4" = 0;
"5" = 0;
"6" = 0;
"7" = 0;
"8" = 0;
"9" = 0;
};
};
width = 559;
}
);
unicode = 53;
}
{
glyphname = less;
layers = (
{
layerId = "452AD06C-4D92-427C-8B35-838986F56274";
shapes = (
{
closed = 1;
nodes = (
(488,0,l),
(431,13,o),
(396,55,o),
(363,96,cs),
(286,192,o),
(195,337,o),
(129,382,c),
(315,615,ls),
(373,688,o),
(399,713,o),
(469,717,c),
(469,722,l),
(260,722,l),
(260,717,l),
(318,696,o),
(301,650,o),
(259,598,cs),
(116,424,ls),
(96,399,o),
(73,374,o),
(54,361,c),
(54,354,l),
(109,316,o),
(208,168,o),
(284,75,cs),
(333,15,o),
(364,0,o),
(485,-9,c)
);
}
);
userData = {
com.hugojourdan.ColorFlow = {
"0" = 0;
"1" = 0;
"10" = 0;
"11" = 0;
"2" = 0;
"3" = 0;
"4" = 0;
"5" = 0;
"6" = 0;
"7" = 0;
"8" = 0;
"9" = 0;
};
};
width = 540;
},
{
layerId = m004;
shapes = (
{
closed = 1;
nodes = (
(556,13,l),
(499,26,o),
(454,68,o),
(409,124,cs),
(344,205,o),
(223,357,o),
(157,402,c),
(343,625,ls),
(398,691,o),
(467,703,o),
(537,697,c),
(537,722,l),
(228,722,l),
(228,717,l),
(286,696,o),
(272,648,o),
(227,598,cs),
(84,439,ls),
(63,415,o),
(41,389,o),
(22,376,c),
(22,354,l),
(77,316,o),
(175,167,o),
(252,75,cs),
(312,3,o),
(432,0,o),
(553,-9,c)
);
}
);
userData = {
com.hugojourdan.ColorFlow = {
"0" = 0;
"1" = 0;
"10" = 0;
"11" = 0;
"2" = 0;
"3" = 0;
"4" = 0;
"5" = 0;
"6" = 0;
"7" = 0;
"8" = 0;
"9" = 0;
};
};
width = 592;
},
{
layerId = "D54810B1-F9A5-4F35-A1FF-AED0599B2373";
shapes = (
{
closed = 1;
nodes = (
(525,7,l),
(468,20,o),
(428,62,o),
(388,111,cs),
(318,199,o),
(210,348,o),
(144,393,c),
(330,620,ls),
(387,690,o),
(436,708,o),
(506,706,c),
(506,722,l),
(243,722,l),
(243,717,l),
(301,696,o),
(285,649,o),
(242,598,cs),
(99,432,ls),
(78,408,o),
(56,382,o),
(37,369,c),
(37,354,l),
(92,316,o),
(190,167,o),
(267,75,cs),
(322,8,o),
(401,0,o),
(522,-9,c)
);
}
);
userData = {
com.hugojourdan.ColorFlow = {
"0" = 0;
"1" = 0;
"10" = 0;
"11" = 0;
"2" = 0;
"3" = 0;
"4" = 0;
"5" = 0;
"6" = 0;
"7" = 0;
"8" = 0;
"9" = 0;
};
};
width = 568.4375;
}
);
note = less;
unicode = 60;
}
{
glyphname = equal;
layers = (
{
layerId = "452AD06C-4D92-427C-8B35-838986F56274";
shapes = (
{
closed = 1;
nodes = (
(550,316,l),
(550,416,l),
(102,324,l),
(102,300,l)
);
},
{
closed = 1;
nodes = (
(550,133,l),
(550,234,l),
(102,141,l),
(102,118,l)
);
}
);
userData = {
com.hugojourdan.ColorFlow = {
"0" = 0;
"1" = 0;
"10" = 0;
"11" = 0;
"2" = 0;
"3" = 0;
"4" = 0;
"5" = 0;
"6" = 0;
"7" = 0;
"8" = 0;
"9" = 0;
};
};
width = 690;
},
{
layerId = m004;
shapes = (
{
closed = 1;
nodes = (
(678,382,l),
(678,569,l),
(40,418,l),
(40,342,l)
);
},
{
closed = 1;
nodes = (
(678,120,l),
(678,306,l),
(40,186,l),
(40,109,l)
);
}
);
userData = {
com.hugojourdan.ColorFlow = {
"0" = 0;
"1" = 0;
"10" = 0;
"11" = 0;
"2" = 0;
"3" = 0;
"4" = 0;
"5" = 0;
"6" = 0;
"7" = 0;
"8" = 0;
"9" = 0;
};
};
width = 718;
},
{
layerId = "D54810B1-F9A5-4F35-A1FF-AED0599B2373";
shapes = (
{
closed = 1;
nodes = (
(620,352,l),
(620,500,l),
(68,375,l),
(68,323,l)
);
},
{
closed = 1;
nodes = (
(620,126,l),
(620,273,l),
(68,166,l),
(68,113,l)
);
}
);
userData = {
com.hugojourdan.ColorFlow = {
"0" = 0;
"1" = 0;
"10" = 0;
"11" = 0;
"2" = 0;
"3" = 0;
"4" = 0;
"5" = 0;
"6" = 0;
"7" = 0;
"8" = 0;
"9" = 0;
};
};
width = 705.3125;
}
);
unicode = 61;
}
{
glyphname = greater;
layers = (
{
layerId = "452AD06C-4D92-427C-8B35-838986F56274";
shapes = (
{
closed = 1;
nodes = (
(55,-9,l),
(176,0,o),
(207,15,o),
(256,75,cs),
(332,168,o),
(431,316,o),
(486,354,c),
(486,361,l),
(467,374,o),
(444,399,o),
(424,424,cs),
(281,598,ls),
(239,650,o),
(222,696,o),
(280,717,c),
(280,722,l),
(71,722,l),
(71,717,l),
(141,713,o),
(167,688,o),
(225,615,cs),
(411,382,l),
(345,337,o),
(254,192,o),
(177,96,cs),
(144,55,o),
(109,13,o),
(52,0,c)
);
}
);
userData = {
com.hugojourdan.ColorFlow = {
"0" = 0;
"1" = 0;
"10" = 0;
"11" = 0;
"2" = 0;
"3" = 0;
"4" = 0;
"5" = 0;
"6" = 0;
"7" = 0;
"8" = 0;
"9" = 0;
};
};
width = 540;
},
{
layerId = m004;
shapes = (
{
closed = 1;
nodes = (
(25,-9,l),
(146,0,o),
(266,3,o),
(326,75,cs),
(403,167,o),
(501,316,o),
(556,354,c),
(556,376,l),
(537,389,o),
(515,415,o),
(494,439,cs),
(351,598,ls),
(306,648,o),
(292,696,o),
(350,717,c),
(350,722,l),
(41,722,l),
(41,697,l),
(111,703,o),
(180,691,o),
(235,625,cs),
(421,402,l),
(355,357,o),
(234,205,o),
(169,124,cs),
(124,68,o),
(79,26,o),
(22,13,c)
);
}
);
userData = {
com.hugojourdan.ColorFlow = {
"0" = 0;
"1" = 0;
"10" = 0;
"11" = 0;
"2" = 0;
"3" = 0;
"4" = 0;
"5" = 0;
"6" = 0;
"7" = 0;
"8" = 0;
"9" = 0;
};
};
width = 582;
},
{
layerId = "D54810B1-F9A5-4F35-A1FF-AED0599B2373";
shapes = (
{
closed = 1;
nodes = (
(39,-9,l),
(160,0,o),
(239,8,o),
(294,75,cs),
(371,167,o),
(469,316,o),
(524,354,c),
(524,369,l),
(505,382,o),
(483,408,o),
(462,432,cs),
(319,598,ls),
(276,649,o),
(260,696,o),
(318,717,c),
(318,722,l),
(55,722,l),
(55,706,l),
(125,708,o),
(174,690,o),
(230,620,cs),
(416,393,l),
(350,348,o),
(243,199,o),
(173,111,cs),
(133,62,o),
(93,20,o),
(36,7,c)
);
}
);
userData = {
com.hugojourdan.ColorFlow = {
"0" = 0;
"1" = 0;
"10" = 0;
"11" = 0;
"2" = 0;
"3" = 0;
"4" = 0;
"5" = 0;
"6" = 0;
"7" = 0;
"8" = 0;
"9" = 0;
};
};
width = 562.96875;
}
);
note = greater;
unicode = 62;
}
{
color = 5;
glyphname = C;
kernLeft = O;
kernRight = C;
layers = (
{
anchors = (
{
name = bottom;
pos = (369,0);
},
{
name = top;
pos = (369,722);
}
);
layerId = "452AD06C-4D92-427C-8B35-838986F56274";
shapes = (
{
closed = 1;
nodes = (
(517,-15,o),
(592,1,o),
(663,48,c),
(701,184,l),
(695,188,l),
(632,58,o),
(537,8,o),
(436,2,cs),
(271,-8,o),
(136,124,o),
(126,359,cs),
(117,580,o),
(257,715,o),
(437,715,cs),
(560,715,o),
(637,651,o),
(668,550,c),
(677,551,l),
(665,690,l),
(596,720,o),
(537,735,o),
(464,735,cs),
(228,735,o),
(39,593,o),
(50,333,cs),
(60,100,o),
(227,-29,o),
(437,-19,cs)
);
}
);
userData = {
com.hugojourdan.ColorFlow = {
"0" = 0;
"1" = 0;
"10" = 0;
"11" = 0;
"2" = 0;
"3" = 0;
"4" = 0;
"5" = 0;
"6" = 0;
"7" = 0;
"8" = 0;
"9" = 0;
};
};
width = 731;
},
{
anchors = (
{
name = bottom;
pos = (350,0);
},
{
name = top;
pos = (408,722);
}
);
background = {
shapes = (
{
closed = 1;
nodes = (
(9,537,o),
(9,356,cs),
(9,161,o),
(127,-20,o),
(397,-20,cs),
(656,-20,o),
(778,161,o),
(778,356,cs),
(778,537,o),
(656,733,o),
(397,733,cs),
(137,733,o)
);
},
{
closed = 1;
nodes = (
(248,564,o),
(324,654,o),
(391,654,cs),
(454,654,o),
(529,570,o),
(534,373,cs),
(538,155,o),
(463,61,o),
(397,61,cs),
(333,61,o),
(258,149,o),
(253,353,cs)
);
},
{
closed = 1;
nodes = (
(436,692,o),
(484,630,o),
(558,487,cs),
(575,452,l),
(603,456,l),
(595,535,o),
(589,609,o),
(591,685,c),
(548,712,o),
(475,733,o),
(393,733,cs),
(164,733,o),
(9,576,o),
(9,372,cs),
(9,128,o),
(172,-19,o),
(393,-19,cs),
(480,-19,o),
(550,-4,o),
(602,27,c),
(609,101,o),
(621,180,o),
(635,253,c),
(607,261,l),
(590,225,ls),
(518,71,o),
(500,35,o),
(452,35,cs),
(370,35,o),
(278,210,o),
(278,444,cs),
(278,609,o),
(318,692,o),
(376,692,cs)
);
}
);
};
layerId = m004;
shapes = (
{
closed = 1;
nodes = (
(504,-15,o),
(590,-1,o),
(674,22,c),
(697,297,l),
(681,300,l),
(642,189,o),
(553,61,o),
(447,60,cs),
(313,59,o),
(249,223,o),
(249,375,cs),
(249,557,o),
(337,667,o),
(432,667,cs),
(534,667,o),
(605,555,o),
(625,443,c),
(640,443,l),
(676,682,l),
(618,717,o),
(529,739,o),
(434,739,cs),
(196,740,o),
(30,603,o),
(30,356,cs),
(30,122,o),
(177,-15,o),
(421,-15,cs)
);
}
);
userData = {
com.hugojourdan.ColorFlow = {
"0" = 0;
"1" = 0;
"10" = 0;
"11" = 0;
"2" = 0;
"3" = 0;
"4" = 0;
"5" = 0;
"6" = 0;
"7" = 0;
"8" = 0;
"9" = 0;
};
};
width = 727;
},
{
anchors = (
{
name = bottom;
pos = (365,0);
},
{
name = top;
pos = (365,722);
}
);
layerId = "D54810B1-F9A5-4F35-A1FF-AED0599B2373";
shapes = (
{
closed = 1;
nodes = (
(516,-15,o),
(597,0,o),
(675,34,c),
(705,246,l),
(693,249,l),
(643,130,o),
(552,37,o),
(448,34,cs),
(300,29,o),
(205,178,o),
(200,368,cs),
(196,567,o),
(307,690,o),
(440,690,cs),
(552,690,o),
(625,599,o),
(650,491,c),
(663,492,l),
(677,686,l),
(614,718,o),
(539,737,o),
(454,737,cs),
(218,738,o),
(35,597,o),
(40,346,cs),
(45,112,o),
(206,-21,o),
(434,-17,cs)
);
}
);
userData = {
com.hugojourdan.ColorFlow = {
"0" = 0;
"1" = 0;
"10" = 0;
"11" = 0;
"2" = 0;
"3" = 0;
"4" = 0;
"5" = 0;
"6" = 0;
"7" = 0;
"8" = 0;
"9" = 0;
};
};
width = 739;
}
);
metricLeft = O;
unicode = 67;
}
{
color = 5;
glyphname = D;
kernLeft = D;
kernRight = O;
layers = (
{
anchors = (
{
name = bottom;
pos = (327,0);
},
{
name = center;
pos = (327,361);
},
{
name = top;
pos = (327,722);
}
);
layerId = "452AD06C-4D92-427C-8B35-838986F56274";
shapes = (
{
closed = 1;
nodes = (
(186,0,ls),
(523,0,o),
(669,165,o),
(668,383,cs),
(667,589,o),
(533,730,o),
(266,725,cs),
(210,724,o),
(180,722,o),
(107,722,cs),
(25,722,l),
(25,716,l),
(45,716,ls),
(81,716,o),
(97,697,o),
(97,652,cs),
(97,84,ls),
(97,40,o),
(95,24,o),
(87,0,c)
);
},
{
closed = 1;
nodes = (
(167,697,l),
(196,701,o),
(221,704,o),
(246,704,cs),
(458,704,o),
(588,577,o),
(589,385,cs),
(590,143,o),
(441,24,o),
(167,24,c)
);
}
);
userData = {
com.hugojourdan.ColorFlow = {
"0" = 0;
"1" = 0;
"10" = 0;
"11" = 0;
"2" = 0;
"3" = 0;
"4" = 0;
"5" = 0;
"6" = 0;
"7" = 0;
"8" = 0;
"9" = 0;
};
};
width = 723;
},
{
anchors = (
{
name = bottom;
pos = (358,0);
},
{
name = center;
pos = (358,361);
},
{
name = top;
pos = (358,722);
}
);
background = {
shapes = (
{
closed = 1;
nodes = (
(261,722,o),
(199,719,o),
(135,718,cs),
(91,718,o),
(48,720,o),
(7,722,c),
(7,689,l),
(24,686,ls),
(46,682,o),
(47,665,o),
(47,547,cs),
(47,172,ls),
(47,54,o),
(46,37,o),
(24,33,cs),
(7,30,l),
(7,-3,l),
(42,-1,o),
(80,1,o),
(118,1,cs),
(188,1,o),
(257,-3,o),
(305,-3,cs),
(558,-3,o),
(712,150,o),
(712,357,cs),
(712,591,o),
(538,722,o),
(301,722,cs)
);
},
{
closed = 1;
nodes = (
(455,128,o),
(408,39,o),
(338,39,cs),
(301,39,o),
(289,69,o),
(289,159,cs),
(289,682,l),
(389,653,o),
(455,533,o),
(455,293,cs)
);
}
);
};
layerId = m004;
shapes = (
{
closed = 1;
nodes = (
(364,0,ls),
(626,0,o),
(763,168,o),
(763,378,cs),
(763,571,o),
(637,722,o),
(372,723,cs),
(269,723,o),
(182,721,o),
(99,722,cs),
(21,723,l),
(20,699,l),
(36,699,ls),
(70,698,o),
(88,676,o),
(88,634,cs),
(88,84,ls),
(88,48,o),
(82,24,o),
(68,0,c)
);
},
{
closed = 1;
nodes = (
(288,660,l),
(322,661,o),
(352,657,o),
(379,647,cs),
(482,612,o),
(533,508,o),
(533,379,cs),
(533,222,o),
(431,59,o),
(288,70,c)
);
}
);
userData = {
com.hugojourdan.ColorFlow = {
"0" = 0;
"1" = 0;
"10" = 0;
"11" = 0;
"2" = 0;
"3" = 0;
"4" = 0;
"5" = 0;
"6" = 0;
"7" = 0;
"8" = 0;
"9" = 0;
};
};
width = 793;
},
{
anchors = (
{
name = bottom;
pos = (348,0);
},
{
name = center;
pos = (348,361);
},
{
name = top;
pos = (348,722);
}
);
layerId = "D54810B1-F9A5-4F35-A1FF-AED0599B2373";
shapes = (
{
closed = 1;
nodes = (
(300,0,ls),
(584,0,o),
(725,167,o),
(724,380,cs),
(724,579,o),
(594,726,o),
(329,724,cs),
(247,723,o),
(185,721,o),
(108,722,cs),
(28,723,l),
(27,707,l),
(45,707,ls),
(80,706,o),
(97,686,o),
(97,642,cs),
(97,84,ls),
(97,44,o),
(93,24,o),
(82,0,c)
);
},
{
closed = 1;
nodes = (
(238,677,l),
(269,679,o),
(297,678,o),
(323,673,c),
(476,654,o),
(562,539,o),
(563,382,cs),
(563,186,o),
(440,43,o),
(238,49,c)
);
}
);
userData = {
com.hugojourdan.ColorFlow = {
"0" = 0;
"1" = 0;
"10" = 0;
"11" = 0;
"2" = 0;
"3" = 0;
"4" = 0;
"5" = 0;
"6" = 0;
"7" = 0;
"8" = 0;
"9" = 0;
};
};
width = 765.8125;
}
);
unicode = 68;
}
{
color = 5;
glyphname = K;
kernLeft = D;
kernRight = K;
layers = (
{
anchors = (
{
name = bottom;
pos = (308,0);
},
{
name = top;
pos = (308,722);
}
);
layerId = "452AD06C-4D92-427C-8B35-838986F56274";
shapes = (
{
closed = 1;
nodes = (
(688,-120,l),
(571,-77,o),
(557,96,o),
(504,229,cs),
(465,326,o),
(411,411,o),
(221,397,c),
(430,645,ls),
(477,700,o),
(500,714,o),
(572,717,c),
(572,722,l),
(430,722,l),
(411,687,o),
(294,553,o),
(172,409,c),
(172,722,l),
(30,722,l),
(30,716,l),
(50,716,ls),
(86,716,o),
(102,697,o),
(102,652,cs),
(102,84,ls),
(102,40,o),
(100,24,o),
(92,0,c),
(182,0,l),
(174,24,o),
(172,40,o),
(172,84,cs),
(172,376,l),
(194,379,o),
(220,381,o),
(236,381,cs),
(357,381,o),
(411,283,o),
(463,138,cs),
(507,15,o),
(536,-71,o),
(685,-129,c)
);
}
);
userData = {
com.hugojourdan.ColorFlow = {
"0" = 0;
"1" = 0;
"10" = 0;
"11" = 0;
"2" = 0;
"3" = 0;
"4" = 0;
"5" = 0;
"6" = 0;
"7" = 0;
"8" = 0;
"9" = 0;
};
};
width = 618;
},
{
anchors = (
{
name = bottom;
pos = (424,0);
},
{
name = top;
pos = (424,722);
}
);
layerId = m004;
shapes = (
{
closed = 1;
nodes = (
(807,-130,l),
(732,-90,o),
(733,97,o),
(676,236,cs),
(638,332,o),
(572,405,o),
(441,397,c),
(618,630,ls),
(652,675,o),
(672,694,o),
(720,698,c),
(720,722,l),
(496,722,l),
(487,687,o),
(429,612,o),
(288,429,c),
(288,722,l),
(20,722,l),
(20,698,l),
(36,698,ls),
(70,698,o),
(88,676,o),
(88,634,cs),
(88,84,ls),
(88,48,o),
(82,24,o),
(68,0,c),
(308,0,l),
(294,24,o),
(288,48,o),
(288,84,cs),
(288,337,l),
(299,338,o),
(309,338,o),
(319,337,cs),
(419,331,o),
(450,258,o),
(496,119,cs),
(535,3,o),
(576,-115,o),
(800,-150,c)
);
}
);
userData = {
com.hugojourdan.ColorFlow = {
"0" = 0;
"1" = 0;
"10" = 0;
"11" = 0;
"2" = 0;
"3" = 0;
"4" = 0;
"5" = 0;
"6" = 0;
"7" = 0;
"8" = 0;
"9" = 0;
};
};
width = 767;
},
{
anchors = (
{
name = bottom;
pos = (371,0);
},
{
name = top;
pos = (371,722);
}
);
layerId = "D54810B1-F9A5-4F35-A1FF-AED0599B2373";
shapes = (
{
closed = 1;
nodes = (
(753,-125,l),
(659,-84,o),
(653,97,o),
(598,233,cs),
(560,329,o),
(499,408,o),
(341,397,c),
(533,637,ls),
(573,686,o),
(594,703,o),
(653,707,c),
(653,722,l),
(466,722,l),
(453,687,o),
(368,585,o),
(235,420,c),
(235,722,l),
(24,722,l),
(24,706,l),
(42,706,ls),
(77,706,o),
(94,686,o),
(94,642,cs),
(94,84,ls),
(94,44,o),
(90,24,o),
(79,0,c),
(250,0,l),
(239,24,o),
(235,44,o),
(235,84,cs),
(235,355,l),
(251,357,o),
(269,357,o),
(281,357,cs),
(391,354,o),
(429,269,o),
(478,127,cs),
(519,8,o),
(558,-95,o),
(748,-140,c)
);
}
);
userData = {
com.hugojourdan.ColorFlow = {
"0" = 0;
"1" = 0;
"10" = 0;
"11" = 0;
"2" = 0;
"3" = 0;
"4" = 0;
"5" = 0;
"6" = 0;
"7" = 0;
"8" = 0;
"9" = 0;
};
};
width = 713;
}
);
unicode = 75;
}
{
color = 5;
glyphname = L;
kernLeft = D;
kernRight = L;
layers = (
{
anchors = (
{
name = bottom;
pos = (278,0);
},
{
name = center;
pos = (278,361);
},
{
name = top;
pos = (278,722);
},
{
name = topright;
pos = (352,500);
}
);
layerId = "452AD06C-4D92-427C-8B35-838986F56274";
shapes = (
{
closed = 1;
nodes = (
(488,0,l),
(519,185,l),
(511,187,l),
(463,47,o),
(413,26,o),
(172,24,c),
(172,722,l),
(30,722,l),
(30,715,l),
(50,715,ls),
(86,715,o),
(102,695,o),
(102,645,cs),
(102,109,ls),
(102,52,o),
(100,31,o),
(93,0,c)
);
}
);
userData = {
com.hugojourdan.ColorFlow = {
"0" = 0;
"1" = 0;
"10" = 0;
"11" = 0;
"2" = 0;
"3" = 0;
"4" = 0;
"5" = 0;
"6" = 0;
"7" = 0;
"8" = 0;
"9" = 0;
};
};
width = 544;
},
{
anchors = (
{
name = bottom;
pos = (304,0);
},
{
name = center;
pos = (304,361);
},
{
name = top;
pos = (304,722);
},
{
name = topright;
pos = (419,523);
}
);
layerId = m004;
shapes = (
{
closed = 1;
nodes = (
(589,0,l),
(622,332,l),
(597,336,l),
(563,155,o),
(476,92,o),
(288,90,c),
(288,722,l),
(20,722,l),
(20,698,l),
(36,698,ls),
(70,698,o),
(88,676,o),
(88,634,cs),
(88,126,ls),
(88,72,o),
(83,36,o),
(72,0,c)
);
}
);
userData = {
com.hugojourdan.ColorFlow = {
"0" = 0;
"1" = 0;
"10" = 0;
"11" = 0;
"2" = 0;
"3" = 0;
"4" = 0;
"5" = 0;
"6" = 0;
"7" = 0;
"8" = 0;
"9" = 0;
};
};
width = 642;
},
{
anchors = (
{
name = bottom;
pos = (292,0);
},
{
name = center;
pos = (292,361);
},
{
name = top;
pos = (292,722);
},
{
name = topright;
pos = (568,722);
}
);
layerId = "D54810B1-F9A5-4F35-A1FF-AED0599B2373";
shapes = (
{
closed = 1;
nodes = (
(543,0,l),
(575,265,l),
(558,268,l),
(518,106,o),
(447,57,o),
(235,55,c),
(235,722,l),
(24,722,l),
(24,706,l),
(42,706,ls),
(77,706,o),
(94,686,o),
(94,642,cs),
(94,118,ls),
(94,62,o),
(91,34,o),
(81,0,c)
);
}
);
userData = {
com.hugojourdan.ColorFlow = {
"0" = 0;
"1" = 0;
"10" = 0;
"11" = 0;
"2" = 0;
"3" = 0;
"4" = 0;
"5" = 0;
"6" = 0;
"7" = 0;
"8" = 0;
"9" = 0;
};
};
width = 597.59375;
}
);
unicode = 76;
}
{
color = 5;
glyphname = M;
kernLeft = M;
kernRight = M;
layers = (
{
anchors = (
{
name = bottom;
pos = (450,0);
},
{
name = top;
pos = (450,722);
}
);
layerId = "452AD06C-4D92-427C-8B35-838986F56274";
shapes = (
{
closed = 1;
nodes = (
(123,0,l),
(102,32,o),
(96,54,o),
(104,110,cs),
(173,624,l),
(429,-10,l),
(433,-10,l),
(670,590,l),
(753,108,ls),
(762,54,o),
(757,36,o),
(743,0,c),
(867,0,l),
(850,26,o),
(832,55,o),
(823,110,cs),
(737,645,ls),
(729,694,o),
(755,715,o),
(802,715,cs),
(828,715,l),
(828,722,l),
(698,722,l),
(454,121,l),
(210,722,l),
(56,722,l),
(56,715,l),
(82,715,ls),
(129,715,o),
(137,692,o),
(158,647,cs),
(149,666,l),
(78,110,ls),
(71,54,o),
(57,26,o),
(40,0,c)
);
}
);
userData = {
com.hugojourdan.ColorFlow = {
"0" = 0;
"1" = 0;
"10" = 0;
"11" = 0;
"2" = 0;
"3" = 0;
"4" = 0;
"5" = 0;
"6" = 0;
"7" = 0;
"8" = 0;
"9" = 0;
};
};
width = 897;
},
{
anchors = (
{
name = bottom;
pos = (409,0);
},
{
name = top;
pos = (409,722);
}
);
background = {
shapes = (
{
closed = 1;
nodes = (
(74,582,l),
(286,37,l),
(323,39,o),
(360,39,o),
(397,37,c),
(580,577,l),
(580,185,ls),
(580,55,o),
(579,37,o),
(557,33,cs),
(540,30,l),
(540,-3,l),
(638,2,o),
(765,2,o),
(862,-3,c),
(862,30,l),
(845,33,ls),
(823,37,o),
(822,55,o),
(822,185,cs),
(822,539,ls),
(822,664,o),
(823,682,o),
(845,686,cs),
(862,689,l),
(862,722,l),
(769,717,o),
(674,717,o),
(587,722,c),
(443,293,l),
(276,722,l),
(178,717,o),
(77,717,o),
(-20,722,c),
(-20,689,l),
(-4,678,ls),
(29,653,o),
(35,622,o),
(35,581,cs),
(35,323,ls),
(35,85,o),
(21,50,o),
(-17,36,cs),
(-35,30,l),
(-35,-3,l),
(26,1,o),
(111,1,o),
(172,-3,c),
(172,30,l),
(159,34,ls),
(104,52,o),
(78,96,o),
(76,323,cs)
);
}
);
};
layerId = m004;
shapes = (
{
closed = 1;
nodes = (
(149,0,l),
(139,31,o),
(138,54,o),
(143,111,cs),
(175,473,l),
(357,0,l),
(416,0,l),
(594,461,l),
(625,128,ls),
(631,64,o),
(631,36,o),
(622,0,c),
(855,0,l),
(843,26,o),
(840,55,o),
(834,130,cs),
(791,634,ls),
(787,676,o),
(809,698,o),
(846,698,cs),
(864,698,l),
(864,722,l),
(615,722,l),
(460,339,l),
(314,722,l),
(30,722,l),
(30,698,l),
(48,698,ls),
(85,698,o),
(105,676,o),
(105,634,cs),
(105,638,l),
(59,111,ls),
(54,54,o),
(49,28,o),
(35,0,c)
);
}
);
userData = {
com.hugojourdan.ColorFlow = {
"0" = 0;
"1" = 0;
"10" = 0;
"11" = 0;
"2" = 0;
"3" = 0;
"4" = 0;
"5" = 0;
"6" = 0;
"7" = 0;
"8" = 0;
"9" = 0;
};
};
width = 894;
},
{
anchors = (
{
name = bottom;
pos = (425,0);
},
{
name = top;
pos = (425,722);
}
);
layerId = "D54810B1-F9A5-4F35-A1FF-AED0599B2373";
shapes = (
{
closed = 1;
nodes = (
(135,0,l),
(120,31,o),
(117,54,o),
(123,111,cs),
(172,541,l),
(387,-5,l),
(421,-5,l),
(626,519,l),
(681,119,ls),
(688,59,o),
(686,36,o),
(675,0,c),
(858,0,l),
(844,26,o),
(834,55,o),
(827,121,cs),
(764,639,ls),
(759,684,o),
(782,705,o),
(824,705,cs),
(845,705,l),
(845,722,l),
(650,722,l),
(455,240,l),
(265,722,l),
(38,722,l),
(38,705,l),
(60,705,ls),
(102,705,o),
(117,684,o),
(125,639,cs),
(123,651,l),
(65,111,ls),
(59,54,o),
(50,27,o),
(35,0,c)
);
}
);
userData = {
com.hugojourdan.ColorFlow = {
"0" = 0;
"1" = 0;
"10" = 0;
"11" = 0;
"2" = 0;
"3" = 0;
"4" = 0;
"5" = 0;
"6" = 0;
"7" = 0;
"8" = 0;
"9" = 0;
};
};
width = 893.54688;
}
);
unicode = 77;
}
{
color = 5;
glyphname = P;
kernLeft = D;
kernRight = P;
layers = (
{
anchors = (
{
name = bottom;
pos = (289,0);
},
{
name = top;
pos = (289,722);
}
);
layerId = "452AD06C-4D92-427C-8B35-838986F56274";
shapes = (
{
closed = 1;
nodes = (
(192,0,l),
(176,22,o),
(172,36,o),
(172,76,cs),
(172,311,l),
(206,303,o),
(240,299,o),
(272,299,cs),
(420,299,o),
(558,389,o),
(558,548,cs),
(558,642,o),
(481,728,o),
(352,728,cs),
(300,728,o),
(237,712,o),
(172,671,c),
(172,722,l),
(30,722,l),
(30,716,l),
(50,716,ls),
(86,716,o),
(102,697,o),
(102,652,cs),
(102,84,ls),
(102,40,o),
(100,24,o),
(92,0,c)
);
},
{
closed = 1;
nodes = (
(172,653,l),
(224,682,o),
(270,694,o),
(309,694,cs),
(421,694,o),
(477,612,o),
(477,528,cs),
(477,401,o),
(374,324,o),
(253,324,cs),
(227,324,o),
(200,328,o),
(172,334,c)
);
}
);
userData = {
com.hugojourdan.ColorFlow = {
"0" = 0;
"1" = 0;
"10" = 0;
"11" = 0;
"2" = 0;
"3" = 0;
"4" = 0;
"5" = 0;
"6" = 0;
"7" = 0;
"8" = 0;
"9" = 0;
};
};
width = 595;
},
{
anchors = (
{
name = bottom;
pos = (300,0);
},
{
name = top;
pos = (300,722);
}
);
layerId = m004;
shapes = (
{
closed = 1;
nodes = (
(320,0,l),
(298,22,o),
(288,43,o),
(288,76,cs),
(288,300,l),
(330,285,o),
(376,278,o),
(421,278,cs),
(616,278,o),
(705,396,o),
(705,512,cs),
(705,623,o),
(623,731,o),
(478,731,cs),
(424,731,o),
(360,715,o),
(288,679,c),
(288,722,l),
(20,722,l),
(20,698,l),
(36,698,ls),
(70,698,o),
(88,676,o),
(88,634,cs),
(88,84,ls),
(88,48,o),
(82,24,o),
(68,0,c)
);
},
{
closed = 1;
nodes = (
(288,609,l),
(318,623,o),
(345,629,o),
(369,629,cs),
(449,629,o),
(495,562,o),
(495,494,cs),
(495,427,o),
(449,360,o),
(347,360,cs),
(329,360,o),
(310,362,o),
(288,367,c)
);
}
);
userData = {
com.hugojourdan.ColorFlow = {
"0" = 0;
"1" = 0;
"10" = 0;
"11" = 0;
"2" = 0;
"3" = 0;
"4" = 0;
"5" = 0;
"6" = 0;
"7" = 0;
"8" = 0;
"9" = 0;
};
};
width = 735;
},
{
anchors = (
{
name = bottom;
pos = (295,0);
},
{
name = top;
pos = (295,722);
}
);
layerId = "D54810B1-F9A5-4F35-A1FF-AED0599B2373";
shapes = (
{
closed = 1;
nodes = (
(250,0,l),
(239,24,o),
(235,44,o),
(235,84,cs),
(235,305,l),
(274,293,o),
(314,288,o),
(353,288,cs),
(527,288,o),
(638,393,o),
(638,528,cs),
(638,632,o),
(559,730,o),
(421,730,cs),
(368,730,o),
(304,714,o),
(235,675,c),
(235,722,l),
(24,722,l),
(24,706,l),
(42,706,ls),
(77,706,o),
(94,686,o),
(94,642,cs),
(94,84,ls),
(94,44,o),
(90,24,o),
(79,0,c)
);
},
{
closed = 1;
nodes = (
(235,629,l),
(275,650,o),
(311,658,o),
(342,658,cs),
(436,658,o),
(487,585,o),
(487,509,cs),
(487,415,o),
(415,344,o),
(304,344,cs),
(283,344,o),
(260,347,o),
(235,352,c)
);
}
);
userData = {
com.hugojourdan.ColorFlow = {
"0" = 0;
"1" = 0;
"10" = 0;
"11" = 0;
"2" = 0;
"3" = 0;
"4" = 0;
"5" = 0;
"6" = 0;
"7" = 0;
"8" = 0;
"9" = 0;
};
};
width = 671.5625;
}
);
unicode = 80;
}
{
color = 5;
glyphname = Q;
kernLeft = O;
kernRight = Q;
layers = (
{
anchors = (
{
name = bottom;
pos = (436,0);
},
{
name = top;
pos = (436,722);
}
);
layerId = "452AD06C-4D92-427C-8B35-838986F56274";
shapes = (
{
closed = 1;
nodes = (
(1206,-252,o),
(1329,-209,o),
(1444,-119,c),
(1437,-111,l),
(1327,-192,o),
(1226,-225,o),
(1117,-225,cs),
(918,-225,o),
(660,-128,o),
(421,-17,c),
(635,-27,o),
(821,108,o),
(821,360,cs),
(821,612,o),
(634,738,o),
(436,738,cs),
(208,738,o),
(54,573,o),
(54,352,cs),
(54,110,o),
(237,3,o),
(387,-65,cs),
(637,-179,o),
(860,-252,o),
(1056,-252,cs)
);
},
{
closed = 1;
nodes = (
(249,6,o),
(123,200,o),
(123,376,cs),
(123,546,o),
(221,710,o),
(431,710,cs),
(636,710,o),
(748,526,o),
(748,346,cs),
(748,175,o),
(646,6,o),
(445,6,cs)
);
}
);
userData = {
com.hugojourdan.ColorFlow = {
"0" = 0;
"1" = 0;
"10" = 0;
"11" = 0;
"2" = 0;
"3" = 0;
"4" = 0;
"5" = 0;
"6" = 0;
"7" = 0;
"8" = 0;
"9" = 0;
};
};
width = 854;
},
{
anchors = (
{
name = bottom;
pos = (433,0);
},
{
name = top;
pos = (433,722);
}
);
layerId = m004;
shapes = (
{
closed = 1;
nodes = (
(1136,-325,o),
(1301,-262,o),
(1458,-125,c),
(1447,-112,l),
(1332,-199,o),
(1246,-223,o),
(1141,-223,cs),
(982,-223,o),
(791,-153,o),
(511,-7,c),
(688,38,o),
(779,200,o),
(779,361,cs),
(779,548,o),
(656,733,o),
(405,733,cs),
(145,733,o),
(29,537,o),
(30,336,cs),
(32,65,o),
(294,-74,o),
(502,-190,cs),
(668,-282,o),
(822,-325,o),
(959,-325,cs)
);
},
{
closed = 1;
nodes = (
(341,61,o),
(266,149,o),
(261,353,cs),
(256,564,o),
(332,654,o),
(399,654,cs),
(462,654,o),
(537,570,o),
(542,373,cs),
(546,155,o),
(471,61,o),
(405,61,cs)
);
}
);
userData = {
com.hugojourdan.ColorFlow = {
"0" = 0;
"1" = 0;
"10" = 0;
"11" = 0;
"2" = 0;
"3" = 0;
"4" = 0;
"5" = 0;
"6" = 0;
"7" = 0;
"8" = 0;
"9" = 0;
};
};
width = 818;
},
{
anchors = (
{
name = bottom;
pos = (434,0);
},
{
name = top;
pos = (434,722);
}
);
layerId = "D54810B1-F9A5-4F35-A1FF-AED0599B2373";
shapes = (
{
closed = 1;
nodes = (
(1168,-292,o),
(1312,-237,o),
(1449,-119,c),
(1441,-109,l),
(1330,-196,o),
(1237,-224,o),
(1130,-224,cs),
(953,-224,o),
(732,-142,o),
(470,-11,c),
(664,9,o),
(798,158,o),
(798,361,cs),
(798,577,o),
(646,735,o),
(419,735,cs),
(174,735,o),
(40,553,o),
(41,343,cs),
(42,85,o),
(268,-39,o),
(450,-133,cs),
(654,-235,o),
(839,-292,o),
(1003,-292,cs)
);
},
{
closed = 1;
nodes = (
(299,36,o),
(201,172,o),
(198,363,cs),
(196,556,o),
(282,679,o),
(414,679,cs),
(541,679,o),
(633,550,o),
(635,361,cs),
(638,164,o),
(550,36,o),
(423,36,cs)
);
}
);
userData = {
com.hugojourdan.ColorFlow = {
"0" = 0;
"1" = 0;
"10" = 0;
"11" = 0;
"2" = 0;
"3" = 0;
"4" = 0;
"5" = 0;
"6" = 0;
"7" = 0;
"8" = 0;
"9" = 0;
};
};
width = 829;
}
);
unicode = 81;
}
{
color = 5;
glyphname = R;
kernLeft = D;
kernRight = R;
layers = (
{
anchors = (
{
name = bottom;
pos = (304,0);
},
{
name = top;
pos = (304,722);
}
);
layerId = "452AD06C-4D92-427C-8B35-838986F56274";
shapes = (
{
closed = 1;
nodes = (
(724,-140,l),
(608,-97,o),
(565,43,o),
(498,158,cs),
(451,238,o),
(393,306,o),
(284,324,c),
(284,322,l),
(460,331,o),
(544,442,o),
(543,546,cs),
(542,661,o),
(458,725,o),
(351,725,cs),
(295,725,o),
(233,708,o),
(172,671,c),
(172,722,l),
(30,722,l),
(30,716,l),
(50,716,ls),
(86,716,o),
(102,697,o),
(102,652,cs),
(102,84,ls),
(102,40,o),
(100,24,o),
(92,0,c),
(182,0,l),
(174,24,o),
(172,40,o),
(172,84,cs),
(172,331,l),
(257,310,o),
(334,302,o),
(438,128,cs),
(523,-14,o),
(533,-90,o),
(722,-147,c)
);
},
{
closed = 1;
nodes = (
(466,402,o),
(367,343,o),
(260,343,cs),
(231,343,o),
(199,348,o),
(172,356,c),
(172,653,l),
(224,682,o),
(270,694,o),
(309,694,cs),
(410,694,o),
(466,612,o),
(466,528,cs)
);
}
);
userData = {
com.hugojourdan.ColorFlow = {
"0" = 0;
"1" = 0;
"10" = 0;
"11" = 0;
"2" = 0;
"3" = 0;
"4" = 0;
"5" = 0;
"6" = 0;
"7" = 0;
"8" = 0;
"9" = 0;
};
};
width = 642;
},
{
anchors = (
{
name = bottom;
pos = (420,0);
},
{
name = top;
pos = (420,722);
}
);
layerId = m004;
shapes = (
{
closed = 1;
nodes = (
(840,-128,l),
(731,-96,o),
(708,167,o),
(605,264,cs),
(565,302,o),
(490,336,o),
(361,339,c),
(377,330,l),
(598,324,o),
(688,434,o),
(688,541,cs),
(688,638,o),
(615,732,o),
(483,732,cs),
(421,732,o),
(353,712,o),
(288,675,c),
(288,722,l),
(20,722,l),
(20,698,l),
(36,698,ls),
(70,698,o),
(88,676,o),
(88,634,cs),
(88,84,ls),
(88,48,o),
(82,24,o),
(68,0,c),
(308,0,l),
(294,24,o),
(288,48,o),
(288,84,cs),
(288,311,l),
(377,295,o),
(400,267,o),
(491,93,cs),
(568,-54,o),
(644,-102,o),
(834,-146,c)
);
},
{
closed = 1;
nodes = (
(488,430,o),
(444,391,o),
(389,378,cs),
(357,370,o),
(321,371,o),
(288,378,c),
(288,610,l),
(322,627,o),
(351,635,o),
(377,635,cs),
(451,635,o),
(488,571,o),
(488,508,cs)
);
}
);
userData = {
com.hugojourdan.ColorFlow = {
"0" = 0;
"1" = 0;
"10" = 0;
"11" = 0;
"2" = 0;
"3" = 0;
"4" = 0;
"5" = 0;
"6" = 0;
"7" = 0;
"8" = 0;
"9" = 0;
};
};
width = 768;
},
{
anchors = (
{
name = bottom;
pos = (367,0);
},
{
name = top;
pos = (367,722);
}
);
layerId = "D54810B1-F9A5-4F35-A1FF-AED0599B2373";
shapes = (
{
closed = 1;
nodes = (
(789,-133,l),
(675,-96,o),
(627,118,o),
(559,212,cs),
(510,279,o),
(446,318,o),
(311,332,c),
(311,325,l),
(534,332,o),
(624,446,o),
(624,544,cs),
(624,640,o),
(549,730,o),
(424,730,cs),
(366,730,o),
(300,712,o),
(235,673,c),
(235,722,l),
(24,722,l),
(24,706,l),
(42,706,ls),
(77,706,o),
(94,686,o),
(94,642,cs),
(94,84,ls),
(94,44,o),
(90,24,o),
(79,0,c),
(250,0,l),
(239,24,o),
(235,44,o),
(235,84,cs),
(235,320,l),
(323,304,o),
(370,283,o),
(467,109,cs),
(548,-36,o),
(594,-97,o),
(783,-146,c)
);
},
{
closed = 1;
nodes = (
(478,417,o),
(408,368,o),
(329,361,cs),
(299,357,o),
(266,360,o),
(235,367,c),
(235,629,l),
(278,652,o),
(314,662,o),
(346,662,cs),
(432,662,o),
(478,590,o),
(478,517,cs)
);
}
);
userData = {
com.hugojourdan.ColorFlow = {
"0" = 0;
"1" = 0;
"10" = 0;
"11" = 0;
"2" = 0;
"3" = 0;
"4" = 0;
"5" = 0;
"6" = 0;
"7" = 0;
"8" = 0;
"9" = 0;
};
};
width = 710.90625;
}
);
unicode = 82;
}
{
color = 5;
glyphname = S;
kernLeft = S;
kernRight = S;
layers = (
{
anchors = (
{
name = bottom;
pos = (286,0);
},
{
name = top;
pos = (286,722);
}
);
background = {
shapes = (
{
closed = 1;
nodes = (
(445,-14,o),
(535,72,o),
(535,190,cs),
(535,320,o),
(402,367,o),
(264,426,cs),
(178,462,o),
(102,505,o),
(102,597,cs),
(102,658,o),
(152,705,o),
(241,705,cs),
(365,705,o),
(438,635,o),
(484,467,c),
(491,469,l),
(475,550,o),
(451,644,o),
(451,682,c),
(287,768,o),
(62,736,o),
(62,570,cs),
(62,532,o),
(75,490,o),
(106,448,cs),
(217,298,o),
(475,322,o),
(475,140,cs),
(475,72,o),
(423,10,o),
(330,10,cs),
(246,10,o),
(172,62,o),
(119,134,cs),
(89,175,o),
(74,218,o),
(55,294,c),
(46,291,l),
(71,189,o),
(73,157,o),
(33,126,c),
(77,49,o),
(175,-14,o),
(292,-14,cs)
);
}
);
};
layerId = "452AD06C-4D92-427C-8B35-838986F56274";
shapes = (
{
closed = 1;
nodes = (
(85,30,o),
(189,-16,o),
(287,-16,cs),
(413,-16,o),
(537,52,o),
(535,190,cs),
(533,301,o),
(428,356,o),
(322,403,cs),
(210,453,o),
(102,488,o),
(102,597,cs),
(102,658,o),
(153,704,o),
(240,705,cs),
(320,706,o),
(379,676,o),
(423,611,cs),
(447,574,o),
(466,527,o),
(481,467,c),
(489,469,l),
(451,682,l),
(393,713,o),
(327,729,o),
(256,729,cs),
(155,729,o),
(62,677,o),
(62,570,cs),
(62,429,o),
(170,390,o),
(278,343,cs),
(380,299,o),
(479,252,o),
(475,140,cs),
(472,52,o),
(399,9,o),
(313,9,cs),
(217,9,o),
(148,53,o),
(108,121,cs),
(80,168,o),
(63,227,o),
(63,290,c),
(54,291,l),
(40,96,l)
);
}
);
userData = {
com.hugojourdan.ColorFlow = {
"0" = 0;
"1" = 0;
"10" = 0;
"11" = 0;
"2" = 0;
"3" = 0;
"4" = 0;
"5" = 0;
"6" = 0;
"7" = 0;
"8" = 0;
"9" = 0;
};
};
width = 575;
},
{
anchors = (
{
name = bottom;
pos = (311,0);
},
{
name = top;
pos = (331,732);
}
);
background = {
shapes = (
{
closed = 1;
nodes = (
(517,-27,o),
(612,99,o),
(612,240,cs),
(612,402,o),
(493,440,o),
(330,507,cs),
(256,538,o),
(236,565,o),
(240,606,cs),
(245,652,o),
(285,676,o),
(345,676,cs),
(409,676,o),
(497,639,o),
(468,477,c),
(485,470,l),
(534,556,o),
(563,602,o),
(585,667,c),
(519,719,o),
(434,744,o),
(352,744,cs),
(206,744,o),
(91,673,o),
(91,537,cs),
(91,422,o),
(155,365,o),
(271,317,cs),
(393,266,o),
(457,231,o),
(457,144,cs),
(457,78,o),
(410,42,o),
(340,43,cs),
(274,44,o),
(207,82,o),
(174,147,cs),
(149,196,o),
(143,260,o),
(170,330,c),
(152,339,l),
(104,239,o),
(50,127,o),
(38,64,c),
(116,3,o),
(218,-27,o),
(313,-27,cs)
);
}
);
};
layerId = m004;
shapes = (
{
closed = 1;
nodes = (
(117,5,o),
(236,-29,o),
(348,-29,cs),
(521,-29,o),
(676,50,o),
(678,241,cs),
(679,357,o),
(594,411,o),
(483,450,cs),
(358,493,o),
(250,518,o),
(251,587,cs),
(252,633,o),
(304,654,o),
(363,654,cs),
(438,654,o),
(522,617,o),
(522,528,cs),
(522,512,o),
(520,495,o),
(515,475,c),
(541,464,l),
(655,662,l),
(579,714,o),
(476,742,o),
(376,744,cs),
(221,746,o),
(84,685,o),
(84,524,cs),
(84,404,o),
(167,355,o),
(277,318,cs),
(411,273,o),
(494,242,o),
(496,169,cs),
(498,97,o),
(440,63,o),
(371,63,cs),
(291,63,o),
(198,110,o),
(173,200,cs),
(163,238,o),
(166,281,o),
(183,322,c),
(156,337,l),
(30,66,l)
);
}
);
userData = {
com.hugojourdan.ColorFlow = {
"0" = 0;
"1" = 0;
"10" = 0;
"11" = 0;
"2" = 0;
"3" = 0;
"4" = 0;
"5" = 0;
"6" = 0;
"7" = 0;
"8" = 0;
"9" = 0;
};
};
width = 711;
},
{
anchors = (
{
name = bottom;
pos = (300,0);
},
{
name = top;
pos = (300,727);
}
);
layerId = "D54810B1-F9A5-4F35-A1FF-AED0599B2373";
shapes = (
{
closed = 1;
nodes = (
(103,16,o),
(215,-23,o),
(320,-23,cs),
(472,-23,o),
(616,57,o),
(612,215,cs),
(609,331,o),
(524,386,o),
(413,428,cs),
(292,474,o),
(184,502,o),
(183,592,cs),
(182,643,o),
(236,677,o),
(307,677,cs),
(389,678,o),
(441,647,o),
(469,599,cs),
(490,563,o),
(498,518,o),
(497,470,c),
(517,466,l),
(563,671,l),
(495,714,o),
(408,736,o),
(322,737,cs),
(191,738,o),
(68,680,o),
(68,543,cs),
(68,414,o),
(176,369,o),
(285,327,cs),
(401,282,o),
(485,248,o),
(486,156,cs),
(487,77,o),
(421,39,o),
(345,39,cs),
(257,39,o),
(175,84,o),
(144,164,cs),
(125,206,o),
(119,256,o),
(128,310,c),
(110,316,l),
(35,80,l)
);
}
);
userData = {
com.hugojourdan.ColorFlow = {
"0" = 0;
"1" = 0;
"10" = 0;
"11" = 0;
"2" = 0;
"3" = 0;
"4" = 0;
"5" = 0;
"6" = 0;
"7" = 0;
"8" = 0;
"9" = 0;
};
};
width = 647;
}
);
unicode = 83;
}
{
color = 5;
glyphname = T;
kernLeft = T;
kernRight = T;
layers = (
{
anchors = (
{
name = bottom;
pos = (323,0);
},
{
name = center;
pos = (323,361);
},
{
name = top;
pos = (323,722);
}
);
layerId = "452AD06C-4D92-427C-8B35-838986F56274";
shapes = (
{
closed = 1;
nodes = (
(368,0,l),
(360,24,o),
(358,40,o),
(358,84,cs),
(358,698,l),
(530,698,o),
(576,678,o),
(605,568,c),
(613,570,l),
(598,722,l),
(48,722,l),
(32,570,l),
(40,568,l),
(73,678,o),
(113,698,o),
(288,698,c),
(288,84,ls),
(288,40,o),
(286,24,o),
(278,0,c)
);
}
);
userData = {
com.hugojourdan.ColorFlow = {
"0" = 0;
"1" = 0;
"10" = 0;
"11" = 0;
"2" = 0;
"3" = 0;
"4" = 0;
"5" = 0;
"6" = 0;
"7" = 0;
"8" = 0;
"9" = 0;
};
};
width = 645;
},
{
anchors = (
{
name = bottom;
pos = (303,0);
},
{
name = center;
pos = (303,361);
},
{
name = top;
pos = (303,722);
}
);
layerId = m004;
shapes = (
{
closed = 1;
nodes = (
(488,0,l),
(474,24,o),
(468,48,o),
(468,84,cs),
(468,652,l),
(550,650,o),
(662,555,o),
(681,395,c),
(703,398,l),
(658,722,l),
(78,722,l),
(32,398,l),
(54,395,l),
(77,555,o),
(183,650,o),
(268,652,c),
(268,83,ls),
(268,47,o),
(262,23,o),
(248,-1,c)
);
}
);
userData = {
com.hugojourdan.ColorFlow = {
"0" = 0;
"1" = 0;
"10" = 0;
"11" = 0;
"2" = 0;
"3" = 0;
"4" = 0;
"5" = 0;
"6" = 0;
"7" = 0;
"8" = 0;
"9" = 0;
};
};
width = 735;
},
{
anchors = (
{
name = bottom;
pos = (312,0);
},
{
name = center;
pos = (312,361);
},
{
name = top;
pos = (312,722);
}
);
layerId = "D54810B1-F9A5-4F35-A1FF-AED0599B2373";
shapes = (
{
closed = 1;
nodes = (
(433,0,l),
(422,24,o),
(418,44,o),
(418,84,cs),
(418,680,l),
(541,674,o),
(623,610,o),
(647,473,c),
(662,476,l),
(631,722,l),
(64,722,l),
(32,476,l),
(47,473,l),
(75,610,o),
(151,674,o),
(277,680,c),
(277,83,ls),
(277,43,o),
(273,23,o),
(262,-1,c)
);
}
);
userData = {
com.hugojourdan.ColorFlow = {
"0" = 0;
"1" = 0;
"10" = 0;
"11" = 0;
"2" = 0;
"3" = 0;
"4" = 0;
"5" = 0;
"6" = 0;
"7" = 0;
"8" = 0;
"9" = 0;
};
};
width = 694.21875;
}
);
unicode = 84;
}
{
color = 5;
glyphname = V;
kernLeft = V;
kernRight = V;
layers = (
{
anchors = (
{
name = bottom;
pos = (335,0);
},
{
name = top;
pos = (335,722);
}
);
background = {
shapes = (
{
closed = 1;
nodes = (
(581,701,o),
(598,657,o),
(577,602,cs),
(426,214,ls),
(402,153,o),
(389,127,o),
(383,101,c),
(380,127,o),
(368,166,o),
(358,190,cs),
(171,635,ls),
(148,689,o),
(146,704,o),
(146,722,c),
(-8,722,l),
(-8,717,l),
(40,712,o),
(70,690,o),
(97,625,c),
(366,-12,l),
(594,587,ls),
(636,697,o),
(648,714,o),
(676,717,c),
(676,722,l),
(533,722,l)
);
}
);
};
layerId = "452AD06C-4D92-427C-8B35-838986F56274";
shapes = (
{
closed = 1;
nodes = (
(366,-12,l),
(371,-12,l),
(621,653,ls),
(637,695,o),
(640,715,o),
(668,715,cs),
(684,715,l),
(684,722,l),
(580,722,l),
(593,692,o),
(591,659,o),
(570,602,cs),
(455,295,ls),
(402,153,o),
(390,128,o),
(386,114,c),
(379,136,o),
(368,166,o),
(358,190,cs),
(171,635,ls),
(154,676,o),
(147,699,o),
(146,722,c),
(10,722,l),
(10,715,l),
(30,715,ls),
(66,715,o),
(70,689,o),
(91,640,cs)
);
}
);
userData = {
com.hugojourdan.ColorFlow = {
"0" = 0;
"1" = 0;
"10" = 0;
"11" = 0;
"2" = 0;
"3" = 0;
"4" = 0;
"5" = 0;
"6" = 0;
"7" = 0;
"8" = 0;
"9" = 0;
};
};
width = 694;
},
{
anchors = (
{
name = bottom;
pos = (410,0);
},
{
name = top;
pos = (410,722);
}
);
background = {
shapes = (
{
closed = 1;
nodes = (
(645,697,o),
(644,655,o),
(622,602,cs),
(525,364,ls),
(500,302,o),
(495,292,o),
(490,274,c),
(485,286,o),
(473,315,o),
(463,337,cs),
(332,635,ls),
(315,674,o),
(306,702,o),
(307,722,c),
(-13,722,l),
(-13,707,l),
(57,710,o),
(69,691,o),
(98,625,cs),
(374,0,l),
(447,0,l),
(469,42,o),
(483,75,o),
(498,112,cs),
(689,581,ls),
(718,652,o),
(732,696,o),
(763,722,c),
(636,722,l)
);
}
);
};
guides = (
{
angle = -66.2069;
pos = (463,337);
},
{
angle = 246.2069;
pos = (697,581);
}
);
layerId = m004;
shapes = (
{
closed = 1;
nodes = (
(374,0,l),
(447,0,l),
(710,635,ls),
(725,674,o),
(737,698,o),
(774,698,cs),
(792,698,l),
(792,722,l),
(626,722,l),
(641,697,o),
(643,655,o),
(615,587,cs),
(525,364,ls),
(500,302,o),
(495,292,o),
(490,274,c),
(485,286,o),
(473,315,o),
(463,337,cs),
(370,549,ls),
(327,646,o),
(319,675,o),
(319,722,c),
(10,722,l),
(10,698,l),
(28,698,ls),
(65,698,o),
(76,674,o),
(93,636,cs)
);
}
);
userData = {
com.hugojourdan.ColorFlow = {
"0" = 0;
"1" = 0;
"10" = 0;
"11" = 0;
"2" = 0;
"3" = 0;
"4" = 0;
"5" = 0;
"6" = 0;
"7" = 0;
"8" = 0;
"9" = 0;
};
};
width = 802;
},
{
anchors = (
{
name = bottom;
pos = (376,0);
},
{
name = top;
pos = (376,722);
}
);
layerId = "D54810B1-F9A5-4F35-A1FF-AED0599B2373";
shapes = (
{
closed = 1;
nodes = (
(370,-5,l),
(412,-5,l),
(669,643,ls),
(685,684,o),
(694,706,o),
(733,706,cs),
(748,706,l),
(748,722,l),
(617,722,l),
(623,695,o),
(618,657,o),
(594,594,cs),
(493,333,ls),
(455,234,o),
(447,218,o),
(443,202,c),
(437,218,o),
(425,247,o),
(415,270,cs),
(279,588,ls),
(248,660,o),
(240,688,o),
(240,722,c),
(10,722,l),
(10,706,l),
(29,706,ls),
(66,706,o),
(73,680,o),
(92,636,cs)
);
}
);
userData = {
com.hugojourdan.ColorFlow = {
"0" = 0;
"1" = 0;
"10" = 0;
"11" = 0;
"2" = 0;
"3" = 0;
"4" = 0;
"5" = 0;
"6" = 0;
"7" = 0;
"8" = 0;
"9" = 0;
};
};
width = 763;
}
);
unicode = 86;
}
{
color = 5;
glyphname = X;
kernLeft = X;
kernRight = X;
layers = (
{
anchors = (
{
name = bottom;
pos = (309,0);
},
{
name = top;
pos = (309,722);
}
);
layerId = "452AD06C-4D92-427C-8B35-838986F56274";
shapes = (
{
closed = 1;
nodes = (
(686,20,l),
(622,1,o),
(588,59,o),
(567,93,cs),
(212,673,ls),
(202,689,o),
(191,706,o),
(188,722,c),
(44,722,l),
(44,715,l),
(68,715,ls),
(111,715,o),
(115,690,o),
(141,648,cs),
(510,54,ls),
(536,12,o),
(560,-11,o),
(600,-11,cs),
(623,-11,o),
(651,-3,o),
(688,13,c)
);
},
{
closed = 1;
nodes = (
(12,0,l),
(170,0,l),
(154,25,o),
(155,54,o),
(179,91,cs),
(371,389,l),
(360,421,l),
(129,80,ls),
(94,29,o),
(67,9,o),
(12,5,c)
);
},
{
closed = 1;
nodes = (
(523,615,ls),
(569,687,o),
(595,713,o),
(649,717,c),
(649,722,l),
(515,722,l),
(517,691,o),
(510,652,o),
(478,601,cs),
(362,417,l),
(378,389,l)
);
}
);
userData = {
com.hugojourdan.ColorFlow = {
"0" = 0;
"1" = 0;
"10" = 0;
"11" = 0;
"2" = 0;
"3" = 0;
"4" = 0;
"5" = 0;
"6" = 0;
"7" = 0;
"8" = 0;
"9" = 0;
};
};
width = 676;
},
{
anchors = (
{
name = bottom;
pos = (279,0);
},
{
name = top;
pos = (279,722);
}
);
layerId = m004;
shapes = (
{
closed = 1;
nodes = (
(815,41,l),
(756,30,o),
(725,54,o),
(684,119,cs),
(343,656,ls),
(323,687,o),
(315,704,o),
(314,722,c),
(21,722,l),
(21,698,l),
(40,698,ls),
(81,698,o),
(90,673,o),
(113,637,cs),
(459,91,ls),
(513,5,o),
(561,-28,o),
(633,-32,cs),
(686,-35,o),
(748,-21,o),
(822,14,c)
);
},
{
closed = 1;
nodes = (
(21,0,l),
(265,0,l),
(256,27,o),
(251,68,o),
(290,148,cs),
(418,411,l),
(334,452,l),
(137,110,ls),
(105,54,o),
(78,27,o),
(20,22,c)
);
},
{
closed = 1;
nodes = (
(605,520,ls),
(699,655,o),
(732,697,o),
(804,701,c),
(804,722,l),
(566,722,l),
(569,692,o),
(566,654,o),
(514,564,cs),
(424,407,l),
(485,348,l)
);
}
);
userData = {
com.hugojourdan.ColorFlow = {
"0" = 0;
"1" = 0;
"10" = 0;
"11" = 0;
"2" = 0;
"3" = 0;
"4" = 0;
"5" = 0;
"6" = 0;
"7" = 0;
"8" = 0;
"9" = 0;
};
};
width = 812;
},
{
anchors = (
{
name = bottom;
pos = (292,0);
},
{
name = top;
pos = (292,722);
}
);
layerId = "D54810B1-F9A5-4F35-A1FF-AED0599B2373";
shapes = (
{
closed = 1;
nodes = (
(756,31,l),
(694,17,o),
(662,56,o),
(630,107,cs),
(283,664,ls),
(267,688,o),
(258,705,o),
(256,722,c),
(30,722,l),
(30,705,l),
(52,705,ls),
(94,705,o),
(100,680,o),
(125,641,cs),
(481,74,ls),
(522,8,o),
(560,-20,o),
(617,-22,cs),
(656,-24,o),
(703,-13,o),
(760,14,c)
);
},
{
closed = 1;
nodes = (
(16,0,l),
(221,0,l),
(209,26,o),
(207,62,o),
(239,122,cs),
(396,401,l),
(345,438,l),
(132,96,ls),
(99,43,o),
(72,19,o),
(15,14,c)
);
},
{
closed = 1;
nodes = (
(567,563,ls),
(639,670,o),
(669,704,o),
(733,708,c),
(733,722,l),
(542,722,l),
(544,692,o),
(540,653,o),
(497,581,cs),
(395,412,l),
(436,367,l)
);
}
);
userData = {
com.hugojourdan.ColorFlow = {
"0" = 0;
"1" = 0;
"10" = 0;
"11" = 0;
"2" = 0;
"3" = 0;
"4" = 0;
"5" = 0;
"6" = 0;
"7" = 0;
"8" = 0;
"9" = 0;
};
};
width = 765;
}
);
unicode = 88;
}
{
glyphname = backslash;
layers = (
{
layerId = "452AD06C-4D92-427C-8B35-838986F56274";
shapes = (
{
closed = 1;
nodes = (
(434,-62,l),
(87,800,l),
(10,800,l),
(416,-72,l)
);
}
);
userData = {
com.hugojourdan.ColorFlow = {
"0" = 0;
"1" = 0;
"10" = 0;
"11" = 0;
"2" = 0;
"3" = 0;
"4" = 0;
"5" = 0;
"6" = 0;
"7" = 0;
"8" = 0;
"9" = 0;
};
};
width = 480;
},
{
layerId = m004;
shapes = (
{
closed = 1;
nodes = (
(496,-52,l),
(247,800,l),
(30,800,l),
(458,-72,l)
);
}
);
userData = {
com.hugojourdan.ColorFlow = {
"0" = 0;
"1" = 0;
"10" = 0;
"11" = 0;
"2" = 0;
"3" = 0;
"4" = 0;
"5" = 0;
"6" = 0;
"7" = 0;
"8" = 0;
"9" = 0;
};
};
width = 520;
},
{
layerId = "D54810B1-F9A5-4F35-A1FF-AED0599B2373";
shapes = (
{
closed = 1;
nodes = (
(468,-57,l),
(175,800,l),
(21,800,l),
(439,-72,l)
);
}
);
userData = {
com.hugojourdan.ColorFlow = {
"0" = 0;
"1" = 0;
"10" = 0;
"11" = 0;
"2" = 0;
"3" = 0;
"4" = 0;
"5" = 0;
"6" = 0;
"7" = 0;
"8" = 0;
"9" = 0;
};
};
width = 501.875;
}
);
unicode = 92;
}
{
glyphname = underscore;
layers = (
{
layerId = "452AD06C-4D92-427C-8B35-838986F56274";
shapes = (
{
closed = 1;
nodes = (
(542,0,l),
(35,-7,l),
(38,-25,l),
(560,-83,l)
);
}
);
userData = {
com.hugojourdan.ColorFlow = {
"0" = 0;
"1" = 0;
"10" = 0;
"11" = 0;
"2" = 0;
"3" = 0;
"4" = 0;
"5" = 0;
"6" = 0;
"7" = 0;
"8" = 0;
"9" = 0;
};
};
width = 591;
},
{
layerId = m004;
shapes = (
{
closed = 1;
nodes = (
(595,-20,l),
(28,-5,l),
(28,-61,l),
(595,-205,l)
);
}
);
userData = {
com.hugojourdan.ColorFlow = {
"0" = 0;
"1" = 0;
"10" = 0;
"11" = 0;
"2" = 0;
"3" = 0;
"4" = 0;
"5" = 0;
"6" = 0;
"7" = 0;
"8" = 0;
"9" = 0;
};
};
width = 639;
},
{
layerId = "D54810B1-F9A5-4F35-A1FF-AED0599B2373";
shapes = (
{
closed = 1;
nodes = (
(571,-11,l),
(31,-6,l),
(33,-45,l),
(579,-150,l)
);
}
);
userData = {
com.hugojourdan.ColorFlow = {
"0" = 0;
"1" = 0;
"10" = 0;
"11" = 0;
"2" = 0;
"3" = 0;
"4" = 0;
"5" = 0;
"6" = 0;
"7" = 0;
"8" = 0;
"9" = 0;
};
};
width = 617.25;
}
);
unicode = 95;
}
{
color = 5;
glyphname = a;
kernLeft = a;
kernRight = a;
layers = (
{
anchors = (
{
name = ogonek;
pos = (494,0);
},
{
name = top;
pos = (198,500);
}
);
background = {
shapes = (
{
closed = 1;
nodes = (
(242,-12,o),
(327,34,o),
(369,114,c),
(407,33,ls),
(412,22,o),
(416,9,o),
(412,0,c),
(493,0,l),
(281,458,ls),
(274,473,o),
(267,486,o),
(267,500,c),
(67,500,l),
(67,495,l),
(157,490,o),
(198,482,o),
(229,416,cs),
(259,351,l),
(132,341,o),
(27,261,o),
(27,149,cs),
(27,70,o),
(83,-12,o),
(180,-12,cs)
);
},
{
closed = 1;
nodes = (
(131,33,o),
(83,105,o),
(83,173,cs),
(83,256,o),
(165,330,o),
(266,335,c),
(361,130,l),
(327,71,o),
(257,33,o),
(208,33,cs)
);
}
);
};
guides = (
{
angle = -65.1519;
pos = (270,458);
}
);
layerId = "452AD06C-4D92-427C-8B35-838986F56274";
shapes = (
{
closed = 1;
nodes = (
(492,0,l),
(278,461,ls),
(269,481,o),
(267,488,o),
(268,500,c),
(101,500,l),
(101,493,l),
(133,493,ls),
(191,493,o),
(204,470,o),
(225,425,cs),
(393,63,ls),
(408,31,o),
(410,19,o),
(406,0,c)
);
},
{
closed = 1;
nodes = (
(278,-12,o),
(354,48,o),
(374,132,c),
(366,144,l),
(342,76,o),
(281,32,o),
(212,32,cs),
(137,32,o),
(86,83,o),
(86,162,cs),
(86,263,o),
(163,331,o),
(282,336,c),
(278,352,l),
(133,352,o),
(30,268,o),
(30,150,cs),
(30,55,o),
(96,-12,o),
(190,-12,cs)
);
}
);
userData = {
com.hugojourdan.ColorFlow = {
"0" = 0;
"1" = 0;
"10" = 0;
"11" = 0;
"2" = 0;
"3" = 0;
"4" = 0;
"5" = 0;
"6" = 0;
"7" = 0;
"8" = 0;
"9" = 0;
};
};
width = 502;
},
{
anchors = (
{
name = ogonek;
pos = (619,0);
},
{
name = top;
pos = (297,500);
}
);
background = {
shapes = (
{
closed = 1;
nodes = (
(613,10,o),
(605,26,o),
(594,51,cs),
(414,458,l),
(407,473,o),
(402,486,o),
(400,500,c),
(94,500,l),
(94,480,l),
(154,483,o),
(203,488,o),
(233,420,cs),
(260,359,l),
(100,354,o),
(21,265,o),
(21,159,cs),
(21,47,o),
(114,-15,o),
(202,-15,cs),
(284,-15,o),
(362,38,o),
(354,148,c),
(393,60,ls),
(408,26,o),
(413,14,o),
(403,0,c),
(625,0,l)
);
},
{
closed = 1;
nodes = (
(349,161,o),
(308,126,o),
(267,125,cs),
(217,124,o),
(191,167,o),
(191,214,cs),
(191,263,o),
(218,316,o),
(273,329,c),
(319,227,ls)
);
}
);
};
guides = (
{
angle = -65.1519;
pos = (289,458);
},
{
angle = -66.0375;
pos = (400,44);
}
);
layerId = m004;
shapes = (
{
closed = 1;
nodes = (
(619,0,l),
(415,460,ls),
(407,477,o),
(405,488,o),
(408,500,c),
(64,500,l),
(64,476,l),
(103,476,ls),
(184,476,o),
(218,452,o),
(236,414,cs),
(393,64,ls),
(404,37,o),
(406,19,o),
(398,0,c)
);
},
{
closed = 1;
nodes = (
(291,-12,o),
(366,51,o),
(377,140,c),
(353,200,l),
(342,154,o),
(308,124,o),
(265,124,cs),
(219,124,o),
(189,158,o),
(189,212,cs),
(189,279,o),
(234,324,o),
(305,328,c),
(281,360,l),
(131,360,o),
(25,275,o),
(25,156,cs),
(25,58,o),
(96,-12,o),
(197,-12,cs)
);
}
);
userData = {
com.hugojourdan.ColorFlow = {
"0" = 0;
"1" = 0;
"10" = 0;
"11" = 0;
"2" = 0;
"3" = 0;
"4" = 0;
"5" = 0;
"6" = 0;
"7" = 0;
"8" = 0;
"9" = 0;
};
};
width = 634;
},
{
anchors = (
{
name = ogonek;
pos = (565,0);
},
{
name = top;
pos = (255,500);
}
);
layerId = "D54810B1-F9A5-4F35-A1FF-AED0599B2373";
shapes = (
{
closed = 1;
nodes = (
(564,0,l),
(356,460,ls),
(348,479,o),
(346,488,o),
(348,500,c),
(85,500,l),
(85,482,l),
(112,482,ls),
(191,482,o),
(211,470,o),
(240,405,cs),
(395,63,ls),
(408,34,o),
(411,19,o),
(404,0,c)
);
},
{
closed = 1;
nodes = (
(288,-12,o),
(363,50,o),
(378,136,c),
(362,175,l),
(345,119,o),
(298,82,o),
(244,82,cs),
(185,82,o),
(145,124,o),
(145,189,cs),
(145,272,o),
(205,327,o),
(297,332,c),
(282,356,l),
(135,356,o),
(30,272,o),
(30,153,cs),
(30,57,o),
(99,-12,o),
(197,-12,cs)
);
}
);
userData = {
com.hugojourdan.ColorFlow = {
"0" = 0;
"1" = 0;
"10" = 0;
"11" = 0;
"2" = 0;
"3" = 0;
"4" = 0;
"5" = 0;
"6" = 0;
"7" = 0;
"8" = 0;
"9" = 0;
};
};
width = 584;
}
);
unicode = 97;
}
{
color = 5;
glyphname = b;
kernLeft = b;
kernRight = o;
layers = (
{
anchors = (
{
name = bottom;
pos = (269,0);
},
{
name = center;
pos = (257,250);
},
{
name = top;
pos = (269,800);
}
);
layerId = "452AD06C-4D92-427C-8B35-838986F56274";
shapes = (
{
closed = 1;
nodes = (
(402,-12,o),
(503,128,o),
(503,262,cs),
(503,461,o),
(361,515,o),
(222,515,cs),
(175,515,o),
(128,509,o),
(87,500,c),
(87,421,l),
(155,471,o),
(221,489,o),
(275,486,cs),
(375,480,o),
(435,405,o),
(435,255,cs),
(435,119,o),
(360,13,o),
(236,13,cs),
(179,13,o),
(128,34,o),
(128,103,cs),
(128,676,ls),
(127,714,o),
(132,756,o),
(145,794,c),
(140,797,l),
(42,649,l),
(43,645,l),
(58,622,o),
(64,602,o),
(64,566,cs),
(64,97,ls),
(64,78,o),
(57,65,o),
(46,52,c),
(97,6,o),
(165,-12,o),
(234,-12,cs)
);
}
);
userData = {
com.hugojourdan.ColorFlow = {
"0" = 0;
"1" = 0;
"10" = 0;
"11" = 0;
"2" = 0;
"3" = 0;
"4" = 0;
"5" = 0;
"6" = 0;
"7" = 0;
"8" = 0;
"9" = 0;
};
};
width = 533;
},
{
anchors = (
{
name = bottom;
pos = (338,0);
},
{
name = center;
pos = (328,250);
},
{
name = top;
pos = (338,800);
}
);
layerId = m004;
shapes = (
{
closed = 1;
nodes = (
(433,-8,o),
(579,76,o),
(579,265,cs),
(579,425,o),
(466,511,o),
(332,511,cs),
(279,511,o),
(223,498,o),
(170,470,c),
(210,404,l),
(243,435,o),
(272,447,o),
(298,447,cs),
(353,447,o),
(383,368,o),
(383,252,cs),
(383,154,o),
(354,54,o),
(293,54,cs),
(258,54,o),
(247,87,o),
(247,132,cs),
(247,657,ls),
(247,746,o),
(249,771,o),
(265,820,c),
(253,828,l),
(37,668,l),
(37,656,l),
(55,638,o),
(63,611,o),
(63,568,cs),
(63,193,ls),
(63,154,o),
(53,124,o),
(27,91,c),
(86,24,o),
(177,-8,o),
(277,-8,cs)
);
}
);
userData = {
com.hugojourdan.ColorFlow = {
"0" = 0;
"1" = 0;
"10" = 0;
"11" = 0;
"2" = 0;
"3" = 0;
"4" = 0;
"5" = 0;
"6" = 0;
"7" = 0;
"8" = 0;
"9" = 0;
};
};
width = 604;
},
{
anchors = (
{
name = bottom;
pos = (307,0);
},
{
name = center;
pos = (296,250);
},
{
name = top;
pos = (307,800);
}
);
layerId = "D54810B1-F9A5-4F35-A1FF-AED0599B2373";
shapes = (
{
closed = 1;
nodes = (
(419,-10,o),
(545,100,o),
(545,264,cs),
(545,441,o),
(418,513,o),
(282,513,cs),
(232,513,o),
(180,503,o),
(132,484,c),
(154,412,l),
(203,451,o),
(249,466,o),
(288,465,cs),
(363,462,o),
(407,385,o),
(407,253,cs),
(407,138,o),
(357,35,o),
(267,35,cs),
(222,35,o),
(193,63,o),
(193,119,cs),
(192,670,ls),
(193,721,o),
(197,757,o),
(212,801,c),
(203,807,l),
(39,655,l),
(39,647,l),
(55,626,o),
(61,602,o),
(63,562,c),
(63,150,ls),
(63,120,o),
(55,97,o),
(36,73,c),
(91,16,o),
(172,-10,o),
(258,-10,cs)
);
}
);
userData = {
com.hugojourdan.ColorFlow = {
"0" = 0;
"1" = 0;
"10" = 0;
"11" = 0;
"2" = 0;
"3" = 0;
"4" = 0;
"5" = 0;
"6" = 0;
"7" = 0;
"8" = 0;
"9" = 0;
};
};
width = 575;
}
);
metricRight = o;
unicode = 98;
}
{
color = 5;
glyphname = l;
kernLeft = l;
kernRight = l;
layers = (
{
anchors = (
{
name = bottom;
pos = (112,0);
},
{
name = top;
pos = (110,800);
}
);
background = {
hints = (
{
name = _corner.rightSerif;
options = 1;
origin = (0,0);
type = Corner;
},
{
name = _corner.leftSerif;
origin = (0,11);
type = Corner;
}
);
shapes = (
{
closed = 1;
nodes = (
(144,0,l),
(144,664,ls),
(144,726,o),
(150,768,o),
(164,805,c),
(159,808,l),
(60,664,l),
(60,660,l),
(74,636,o),
(80,606,o),
(80,560,cs),
(80,0,l)
);
}
);
};
layerId = "452AD06C-4D92-427C-8B35-838986F56274";
shapes = (
{
closed = 1;
nodes = (
(152,0,l),
(146,20,o),
(144,36,o),
(144,76,cs),
(144,678,ls),
(143,716,o),
(149,758,o),
(162,795,c),
(157,798,l),
(60,653,l),
(60,649,l),
(74,625,o),
(80,605,o),
(80,569,cs),
(80,84,ls),
(80,40,o),
(78,24,o),
(70,0,c)
);
}
);
userData = {
com.hugojourdan.ColorFlow = {
"0" = 0;
"1" = 0;
"10" = 0;
"11" = 0;
"2" = 0;
"3" = 0;
"4" = 0;
"5" = 0;
"6" = 0;
"7" = 0;
"8" = 0;
"9" = 0;
};
};
width = 222;
},
{
anchors = (
{
name = bottom;
pos = (168,0);
},
{
name = top;
pos = (166,800);
}
);
background = {
hints = (
{
name = _corner.rightSerif;
options = 1;
origin = (0,0);
type = Corner;
},
{
name = _corner.leftSerif;
origin = (0,11);
type = Corner;
}
);
shapes = (
{
closed = 1;
nodes = (
(260,0,l),
(260,628,ls),
(260,705,o),
(265,757,o),
(278,800,c),
(266,808,l),
(50,648,l),
(50,636,l),
(68,618,o),
(76,591,o),
(76,548,cs),
(76,0,l)
);
}
);
};
layerId = m004;
shapes = (
{
closed = 1;
nodes = (
(278,0,l),
(265,23,o),
(260,48,o),
(260,84,cs),
(260,656,ls),
(260,745,o),
(262,771,o),
(278,820,c),
(266,828,l),
(50,668,l),
(50,656,l),
(68,638,o),
(76,611,o),
(76,568,cs),
(76,84,ls),
(76,48,o),
(70,24,o),
(56,0,c)
);
}
);
userData = {
com.hugojourdan.ColorFlow = {
"0" = 0;
"1" = 0;
"10" = 0;
"11" = 0;
"2" = 0;
"3" = 0;
"4" = 0;
"5" = 0;
"6" = 0;
"7" = 0;
"8" = 0;
"9" = 0;
};
};
width = 328;
},
{
anchors = (
{
name = bottom;
pos = (128,0);
},
{
name = top;
pos = (129,765);
}
);
layerId = "D54810B1-F9A5-4F35-A1FF-AED0599B2373";
shapes = (
{
closed = 1;
nodes = (
(205,0,l),
(196,22,o),
(192,43,o),
(192,80,cs),
(193,666,ls),
(194,717,o),
(198,753,o),
(214,797,c),
(205,803,l),
(40,652,l),
(40,644,l),
(56,623,o),
(61,599,o),
(63,559,c),
(63,84,ls),
(63,44,o),
(59,24,o),
(48,0,c)
);
}
);
userData = {
com.hugojourdan.ColorFlow = {
"0" = 0;
"1" = 0;
"10" = 0;
"11" = 0;
"2" = 0;
"3" = 0;
"4" = 0;
"5" = 0;
"6" = 0;
"7" = 0;
"8" = 0;
"9" = 0;
};
};
width = 264;
}
);
unicode = 108;
}
{
color = 5;
glyphname = o;
kernLeft = o;
kernRight = o;
layers = (
{
anchors = (
{
name = top;
pos = (282,500);
}
);
layerId = "452AD06C-4D92-427C-8B35-838986F56274";
shapes = (
{
closed = 1;
nodes = (
(435,-12,o),
(534,94,o),
(534,244,cs),
(534,399,o),
(432,508,o),
(278,508,cs),
(129,508,o),
(30,402,o),
(30,252,cs),
(30,97,o),
(132,-12,o),
(286,-12,cs)
);
},
{
closed = 1;
nodes = (
(176,12,o),
(98,124,o),
(98,281,cs),
(98,406,o),
(158,486,o),
(264,486,cs),
(385,486,o),
(466,375,o),
(466,217,cs),
(466,93,o),
(404,12,o),
(300,12,cs)
);
}
);
userData = {
com.hugojourdan.ColorFlow = {
"0" = 0;
"1" = 0;
"10" = 0;
"11" = 0;
"2" = 0;
"3" = 0;
"4" = 0;
"5" = 0;
"6" = 0;
"7" = 0;
"8" = 0;
"9" = 0;
};
};
width = 564;
},
{
anchors = (
{
name = top;
pos = (295,500);
}
);
layerId = m004;
shapes = (
{
closed = 1;
nodes = (
(457,-12,o),
(569,95,o),
(569,246,cs),
(569,399,o),
(455,508,o),
(295,508,cs),
(137,508,o),
(25,401,o),
(25,250,cs),
(25,97,o),
(139,-12,o),
(299,-12,cs)
);
},
{
closed = 1;
nodes = (
(266,57,o),
(225,152,o),
(219,288,cs),
(217,390,o),
(242,445,o),
(286,446,cs),
(342,447,o),
(382,355,o),
(387,219,cs),
(389,117,o),
(366,57,o),
(322,57,cs)
);
}
);
userData = {
com.hugojourdan.ColorFlow = {
"0" = 0;
"1" = 0;
"10" = 0;
"11" = 0;
"2" = 0;
"3" = 0;
"4" = 0;
"5" = 0;
"6" = 0;
"7" = 0;
"8" = 0;
"9" = 0;
};
};
width = 594;
},
{
anchors = (
{
name = top;
pos = (292,500);
}
);
layerId = "D54810B1-F9A5-4F35-A1FF-AED0599B2373";
shapes = (
{
closed = 1;
nodes = (
(450,-12,o),
(556,95,o),
(556,245,cs),
(556,399,o),
(448,508,o),
(290,508,cs),
(136,508,o),
(30,401,o),
(30,251,cs),
(30,97,o),
(139,-12,o),
(296,-12,cs)
);
},
{
closed = 1;
nodes = (
(228,37,o),
(170,139,o),
(167,285,cs),
(166,397,o),
(207,464,o),
(279,464,cs),
(364,465,o),
(423,364,o),
(426,218,cs),
(427,106,o),
(386,37,o),
(315,37,cs)
);
}
);
userData = {
com.hugojourdan.ColorFlow = {
"0" = 0;
"1" = 0;
"10" = 0;
"11" = 0;
"2" = 0;
"3" = 0;
"4" = 0;
"5" = 0;
"6" = 0;
"7" = 0;
"8" = 0;
"9" = 0;
};
};
width = 586;
}
);
metricRight = "=|";
unicode = 111;
}
{
color = 5;
glyphname = p;
kernLeft = i;
kernRight = o;
layers = (
{
anchors = (
{
name = bottom;
pos = (293,0);
},
{
name = top;
pos = (293,500);
}
);
background = {
hints = (
{
name = _corner.topSerif;
options = 1;
origin = (0,6);
scale = (1,1.2);
type = Corner;
},
{
name = _corner.topSerif;
options = 1;
origin = (0,6);
scale = (1,1.2);
type = Corner;
}
);
shapes = (
{
closed = 1;
nodes = (
(273,503,o),
(223,491,o),
(169,452,c),
(169,468,o),
(169,484,o),
(164,500,c),
(105,500,l),
(105,-151,ls),
(105,-214,o),
(65,-303,o),
(36,-366,c),
(44,-370,l),
(93,-280,o),
(123,-204,o),
(169,-150,c),
(169,51,l),
(220,8,o),
(276,-5,o),
(321,-5,cs),
(445,-5,o),
(549,104,o),
(549,257,cs),
(549,389,o),
(450,503,o),
(328,503,cs)
);
},
{
closed = 1;
nodes = (
(290,21,o),
(219,44,o),
(169,139,c),
(169,386,l),
(203,460,o),
(263,480,o),
(321,480,cs),
(416,480,o),
(479,354,o),
(479,233,cs),
(479,101,o),
(415,21,o),
(340,21,cs)
);
}
);
};
layerId = "452AD06C-4D92-427C-8B35-838986F56274";
shapes = (
{
closed = 1;
nodes = (
(144,14,l),
(186,-8,o),
(229,-18,o),
(272,-18,cs),
(440,-18,o),
(521,113,o),
(521,244,cs),
(521,374,o),
(440,505,o),
(286,505,cs),
(232,505,o),
(179,491,o),
(139,467,c),
(133,500,l),
(10,500,l),
(10,493,l),
(30,493,ls),
(66,493,o),
(82,470,o),
(82,416,cs),
(82,-119,ls),
(82,-155,o),
(76,-175,o),
(61,-198,c),
(61,-202,l),
(155,-350,l),
(160,-347,l),
(147,-309,o),
(143,-267,o),
(144,-229,cs)
);
},
{
closed = 1;
nodes = (
(453,116,o),
(400,10,o),
(293,10,cs),
(247,10,o),
(196,33,o),
(144,86,c),
(144,416,l),
(178,461,o),
(223,482,o),
(268,482,cs),
(389,482,o),
(453,352,o),
(453,228,cs)
);
}
);
userData = {
com.hugojourdan.ColorFlow = {
"0" = 0;
"1" = 0;
"10" = 0;
"11" = 0;
"2" = 0;
"3" = 0;
"4" = 0;
"5" = 0;
"6" = 0;
"7" = 0;
"8" = 0;
"9" = 0;
};
};
width = 551;
},
{
anchors = (
{
name = bottom;
pos = (275,0);
},
{
name = top;
pos = (275,500);
}
);
background = {
hints = (
{
name = _corner.rightSerif;
options = 1;
origin = (0,7);
scale = (-1,-1);
type = Corner;
},
{
name = _corner.topSerifAsc;
options = 1;
origin = (0,8);
scale = (1,-1);
type = Corner;
}
);
shapes = (
{
closed = 1;
nodes = (
(312,516,o),
(255,482,o),
(231,435,c),
(243,438,l),
(242,457,o),
(245,487,o),
(250,500,c),
(83,500,l),
(83,-50,l),
(267,-50,l),
(267,-34,o),
(267,-12,o),
(264,-2,c),
(278,-5,o),
(294,-7,o),
(310,-7,cs),
(426,-7,o),
(588,75,o),
(589,270,cs),
(590,442,o),
(491,516,o),
(393,516,cs)
);
},
{
closed = 1;
nodes = (
(267,403,o),
(270,442,o),
(315,442,cs),
(370,442,o),
(396,343,o),
(396,247,cs),
(396,147,o),
(367,66,o),
(308,66,cs),
(286,66,o),
(272,69,o),
(267,75,c),
(267,358,ls)
);
}
);
};
layerId = m004;
shapes = (
{
closed = 1;
nodes = (
(267,-6,l),
(306,-12,o),
(342,-12,o),
(375,-7,cs),
(507,16,o),
(588,132,o),
(588,299,cs),
(588,437,o),
(503,516,o),
(398,516,cs),
(351,516,o),
(300,500,o),
(251,466,c),
(240,500,l),
(15,500,l),
(15,476,l),
(31,476,ls),
(65,476,o),
(83,454,o),
(83,412,cs),
(83,-66,ls),
(83,-109,o),
(75,-136,o),
(57,-154,c),
(57,-166,l),
(273,-326,l),
(285,-318,l),
(269,-269,o),
(267,-243,o),
(267,-154,cs)
);
},
{
closed = 1;
nodes = (
(396,156,o),
(367,71,o),
(304,57,cs),
(291,55,o),
(278,55,o),
(263,58,c),
(263,400,l),
(267,422,o),
(285,436,o),
(308,436,cs),
(360,436,o),
(396,359,o),
(396,246,cs)
);
}
);
userData = {
com.hugojourdan.ColorFlow = {
"0" = 0;
"1" = 0;
"10" = 0;
"11" = 0;
"2" = 0;
"3" = 0;
"4" = 0;
"5" = 0;
"6" = 0;
"7" = 0;
"8" = 0;
"9" = 0;
};
};
width = 613;
},
{
anchors = (
{
name = bottom;
pos = (271,0);
},
{
name = top;
pos = (271,500);
}
);
layerId = "D54810B1-F9A5-4F35-A1FF-AED0599B2373";
shapes = (
{
closed = 1;
nodes = (
(199,3,l),
(239,-10,o),
(279,-15,o),
(316,-12,cs),
(464,1,o),
(545,123,o),
(545,274,cs),
(545,408,o),
(462,511,o),
(335,511,cs),
(285,511,o),
(233,496,o),
(188,466,c),
(179,500,l),
(0,500,l),
(0,483,l),
(18,483,ls),
(53,483,o),
(70,461,o),
(70,413,cs),
(70,-66,l),
(68,-106,o),
(62,-130,o),
(46,-151,c),
(46,-159,l),
(210,-311,l),
(219,-305,l),
(204,-261,o),
(200,-225,o),
(199,-174,cs)
);
},
{
closed = 1;
nodes = (
(410,138,o),
(370,43,o),
(287,36,cs),
(259,35,o),
(229,45,o),
(197,71,c),
(197,407,l),
(215,440,o),
(245,457,o),
(278,457,cs),
(361,457,o),
(410,356,o),
(410,238,cs)
);
}
);
userData = {
com.hugojourdan.ColorFlow = {
"0" = 0;
"1" = 0;
"10" = 0;
"11" = 0;
"2" = 0;
"3" = 0;
"4" = 0;
"5" = 0;
"6" = 0;
"7" = 0;
"8" = 0;
"9" = 0;
};
};
width = 575;
}
);
metricRight = o;
unicode = 112;
}
{
color = 5;
glyphname = s;
kernLeft = s;
kernRight = s;
layers = (
{
anchors = (
{
name = bottom;
pos = (186,0);
},
{
name = top;
pos = (186,500);
}
);
background = {
shapes = (
{
closed = 1;
nodes = (
(347,466,o),
(278,503,o),
(199,503,cs),
(105,503,o),
(47,442,o),
(47,376,cs),
(47,305,o),
(100,260,o),
(203,226,cs),
(274,203,o),
(330,170,o),
(330,109,cs),
(330,57,o),
(280,8,o),
(219,8,cs),
(116,8,o),
(70,126,o),
(68,229,c),
(60,229,l),
(60,179,o),
(43,135,o),
(20,105,c),
(57,28,o),
(123,-10,o),
(210,-10,cs),
(322,-10,o),
(390,47,o),
(390,129,cs),
(390,209,o),
(343,249,o),
(229,284,cs),
(138,312,o),
(96,340,o),
(96,398,cs),
(96,450,o),
(131,487,o),
(184,487,cs),
(251,487,o),
(313,438,o),
(313,377,cs),
(313,356,o),
(306,336,o),
(293,320,c),
(301,315,l),
(327,345,o),
(349,386,o),
(373,402,c)
);
}
);
};
layerId = "452AD06C-4D92-427C-8B35-838986F56274";
shapes = (
{
closed = 1;
nodes = (
(319,-10,o),
(382,72,o),
(382,147,cs),
(383,312,o),
(104,289,o),
(104,416,cs),
(104,467,o),
(148,484,o),
(185,484,cs),
(261,484,o),
(306,430,o),
(306,374,cs),
(306,357,o),
(303,340,o),
(295,324,c),
(301,321,l),
(358,421,l),
(332,476,o),
(271,508,o),
(208,508,cs),
(131,508,o),
(55,465,o),
(56,380,cs),
(57,242,o),
(330,258,o),
(330,110,cs),
(330,59,o),
(287,12,o),
(220,12,cs),
(117,12,o),
(68,126,o),
(66,229,c),
(60,229,l),
(60,179,o),
(43,135,o),
(20,105,c),
(57,28,o),
(123,-10,o),
(210,-10,cs)
);
}
);
userData = {
com.hugojourdan.ColorFlow = {
"0" = 0;
"1" = 0;
"10" = 0;
"11" = 0;
"2" = 0;
"3" = 0;
"4" = 0;
"5" = 0;
"6" = 0;
"7" = 0;
"8" = 0;
"9" = 0;
};
};
width = 412;
},
{
anchors = (
{
name = bottom;
pos = (229,0);
},
{
name = top;
pos = (229,500);
}
);
background = {
shapes = (
{
closed = 1;
nodes = (
(406,469,o),
(343,503,o),
(259,503,cs),
(138,503,o),
(80,442,o),
(80,373,cs),
(80,305,o),
(143,230,o),
(246,196,cs),
(317,173,o),
(363,150,o),
(363,102,cs),
(363,57,o),
(324,18,o),
(257,18,cs),
(150,18,o),
(113,130,o),
(111,229,c),
(103,229,l),
(103,179,o),
(86,135,o),
(23,105,c),
(98,30,o),
(156,-10,o),
(253,-10,cs),
(375,-10,o),
(443,47,o),
(443,135,cs),
(443,209,o),
(386,269,o),
(272,304,cs),
(181,332,o),
(149,360,o),
(149,402,cs),
(149,442,o),
(174,479,o),
(232,479,cs),
(294,479,o),
(356,438,o),
(356,377,cs),
(356,356,o),
(349,336,o),
(336,320,c),
(344,315,l),
(370,345,o),
(392,386,o),
(466,402,c)
);
}
);
};
layerId = m004;
shapes = (
{
closed = 1;
nodes = (
(382,-21,o),
(500,32,o),
(500,154,cs),
(500,350,o),
(213,292,o),
(214,397,cs),
(214,436,o),
(251,455,o),
(290,455,cs),
(360,455,o),
(383,410,o),
(383,364,cs),
(383,352,o),
(381,339,o),
(378,328,c),
(400,320,l),
(481,447,l),
(429,497,o),
(351,520,o),
(275,520,cs),
(164,520,o),
(60,468,o),
(60,362,cs),
(61,166,o),
(345,218,o),
(345,104,cs),
(345,62,o),
(309,42,o),
(272,42,cs),
(191,42,o),
(119,120,o),
(104,212,c),
(82,211,l),
(80,137,o),
(53,96,o),
(20,55,c),
(58,9,o),
(160,-21,o),
(259,-21,cs)
);
}
);
userData = {
com.hugojourdan.ColorFlow = {
"0" = 0;
"1" = 0;
"10" = 0;
"11" = 0;
"2" = 0;
"3" = 0;
"4" = 0;
"5" = 0;
"6" = 0;
"7" = 0;
"8" = 0;
"9" = 0;
};
};
width = 520;
},
{
anchors = (
{
name = bottom;
pos = (210,0);
},
{
name = top;
pos = (210,500);
}
);
layerId = "D54810B1-F9A5-4F35-A1FF-AED0599B2373";
shapes = (
{
closed = 1;
nodes = (
(354,-16,o),
(447,50,o),
(447,151,cs),
(447,333,o),
(164,291,o),
(164,406,cs),
(164,450,o),
(205,468,o),
(243,468,cs),
(315,468,o),
(348,419,o),
(348,369,cs),
(348,354,o),
(345,339,o),
(340,326,c),
(356,320,l),
(426,435,l),
(385,487,o),
(315,515,o),
(245,515,cs),
(149,515,o),
(58,467,o),
(58,370,cs),
(59,200,o),
(338,236,o),
(338,107,cs),
(338,61,o),
(299,28,o),
(249,28,cs),
(158,28,o),
(97,123,o),
(88,220,c),
(72,219,l),
(71,156,o),
(49,114,o),
(20,78,c),
(58,18,o),
(144,-16,o),
(237,-16,cs)
);
}
);
userData = {
com.hugojourdan.ColorFlow = {
"0" = 0;
"1" = 0;
"10" = 0;
"11" = 0;
"2" = 0;
"3" = 0;
"4" = 0;
"5" = 0;
"6" = 0;
"7" = 0;
"8" = 0;
"9" = 0;
};
};
width = 477;
}
);
unicode = 115;
}
{
color = 5;
glyphname = t;
kernLeft = t;
kernRight = t;
layers = (
{
anchors = (
{
name = bottom;
pos = (84,0);
},
{
name = center;
pos = (86,250);
},
{
name = top;
pos = (86,500);
},
{
name = topright;
pos = (145,514);
}
);
background = {
hints = (
{
name = _corner.rightSerif;
options = 1;
origin = (0,0);
type = Corner;
},
{
name = _corner.leftSerif;
origin = (0,11);
type = Corner;
}
);
shapes = (
{
closed = 1;
nodes = (
(116,0,l),
(116,604,ls),
(116,666,o),
(122,708,o),
(136,745,c),
(131,748,l),
(32,604,l),
(32,600,l),
(46,576,o),
(52,546,o),
(52,500,cs),
(52,0,l)
);
},
{
closed = 1;
nodes = (
(-28,466,o),
(-10,480,o),
(22,480,cs),
(190,480,l),
(218,540,l),
(212,542,l),
(200,514,o),
(182,500,o),
(150,500,cs),
(-18,500,l),
(-46,440,l),
(-40,438,l)
);
}
);
};
layerId = "452AD06C-4D92-427C-8B35-838986F56274";
shapes = (
{
closed = 1;
nodes = (
(124,0,l),
(118,20,o),
(116,36,o),
(116,76,cs),
(116,572,ls),
(116,610,o),
(122,652,o),
(136,689,c),
(131,692,l),
(32,548,l),
(32,544,l),
(46,520,o),
(52,500,o),
(52,464,cs),
(52,84,ls),
(52,40,o),
(50,24,o),
(42,0,c)
);
},
{
closed = 1;
nodes = (
(52,500,l),
(20,478,l),
(22,470,l),
(188,470,l),
(204,511,l),
(198,514,l),
(190,501,o),
(173,500,o),
(141,500,cs)
);
}
);
userData = {
com.hugojourdan.ColorFlow = {
"0" = 0;
"1" = 0;
"10" = 0;
"11" = 0;
"2" = 0;
"3" = 0;
"4" = 0;
"5" = 0;
"6" = 0;
"7" = 0;
"8" = 0;
"9" = 0;
};
};
width = 224;
},
{
anchors = (
{
name = bottom;
pos = (177,0);
},
{
name = center;
pos = (177,250);
},
{
name = top;
pos = (177,500);
},
{
name = topright;
pos = (305,554);
}
);
background = {
hints = (
{
name = _corner.rightSerif;
options = 1;
origin = (0,0);
type = Corner;
},
{
name = _corner.leftSerif;
origin = (0,11);
type = Corner;
}
);
shapes = (
{
closed = 1;
nodes = (
(269,0,l),
(269,564,ls),
(269,641,o),
(274,693,o),
(287,736,c),
(275,744,l),
(59,592,l),
(59,580,l),
(77,562,o),
(85,535,o),
(85,492,cs),
(85,0,l)
);
},
{
closed = 1;
nodes = (
(6,438,o),
(24,448,o),
(53,448,cs),
(351,448,l),
(367,528,l),
(353,532,l),
(342,510,o),
(324,500,o),
(295,500,cs),
(-3,500,l),
(-19,420,l),
(-5,416,l)
);
}
);
};
layerId = m004;
shapes = (
{
closed = 1;
nodes = (
(281,0,l),
(268,23,o),
(263,48,o),
(263,84,cs),
(263,589,ls),
(263,678,o),
(265,702,o),
(281,751,c),
(269,759,l),
(53,599,l),
(53,587,l),
(71,569,o),
(79,542,o),
(79,499,cs),
(79,84,ls),
(79,48,o),
(73,24,o),
(59,0,c)
);
},
{
closed = 1;
nodes = (
(80,500,l),
(20,448,l),
(24,430,l),
(349,430,l),
(369,522,l),
(351,526,l),
(339,505,o),
(327,500,o),
(289,500,cs)
);
}
);
userData = {
com.hugojourdan.ColorFlow = {
"0" = 0;
"1" = 0;
"10" = 0;
"11" = 0;
"2" = 0;
"3" = 0;
"4" = 0;
"5" = 0;
"6" = 0;
"7" = 0;
"8" = 0;
"9" = 0;
};
};
width = 389;
},
{
anchors = (
{
name = bottom;
pos = (135,0);
},
{
name = center;
pos = (136,250);
},
{
name = top;
pos = (136,500);
},
{
name = topright;
pos = (244,664);
}
);
layerId = "D54810B1-F9A5-4F35-A1FF-AED0599B2373";
shapes = (
{
closed = 1;
nodes = (
(210,0,l),
(201,22,o),
(197,43,o),
(197,80,cs),
(197,584,ls),
(197,635,o),
(202,671,o),
(218,715,c),
(209,721,l),
(44,570,l),
(44,562,l),
(60,541,o),
(65,517,o),
(67,477,c),
(67,84,ls),
(67,44,o),
(63,24,o),
(52,0,c)
);
},
{
closed = 1;
nodes = (
(74,500,l),
(20,470,l),
(23,458,l),
(276,458,l),
(295,517,l),
(281,521,l),
(271,503,o),
(258,500,o),
(222,500,cs)
);
}
);
userData = {
com.hugojourdan.ColorFlow = {
"0" = 0;
"1" = 0;
"10" = 0;
"11" = 0;
"2" = 0;
"3" = 0;
"4" = 0;
"5" = 0;
"6" = 0;
"7" = 0;
"8" = 0;
"9" = 0;
};
};
width = 315;
}
);
unicode = 116;
}
{
color = 5;
glyphname = v;
kernLeft = v;
kernRight = v;
layers = (
{
layerId = "452AD06C-4D92-427C-8B35-838986F56274";
shapes = (
{
closed = 1;
nodes = (
(268,11,o),
(281,29,o),
(299,35,c),
(446,420,ls),
(462,461,o),
(470,476,o),
(484,500,c),
(360,500,l),
(360,494,l),
(411,494,o),
(421,446,o),
(395,375,cs),
(283,75,l),
(162,388,ls),
(140,445,o),
(135,466,o),
(140,500,c),
(20,500,l),
(20,494,l),
(60,492,o),
(72,456,o),
(92,404,cs),
(252,-14,l),
(262,-14,l)
);
}
);
userData = {
com.hugojourdan.ColorFlow = {
"0" = 0;
"1" = 0;
"10" = 0;
"11" = 0;
"2" = 0;
"3" = 0;
"4" = 0;
"5" = 0;
"6" = 0;
"7" = 0;
"8" = 0;
"9" = 0;
};
};
width = 504;
},
{
layerId = m004;
shapes = (
{
closed = 1;
nodes = (
(291,10,o),
(329,28,o),
(374,32,c),
(517,419,ls),
(530,453,o),
(543,476,o),
(562,500,c),
(418,500,l),
(418,480,l),
(452,477,o),
(463,458,o),
(440,394,cs),
(351,151,l),
(261,403,ls),
(246,444,o),
(246,471,o),
(262,500,c),
(10,500,l),
(10,478,l),
(48,476,o),
(70,445,o),
(86,400,cs),
(234,-16,l),
(263,-23,l)
);
}
);
userData = {
com.hugojourdan.ColorFlow = {
"0" = 0;
"1" = 0;
"10" = 0;
"11" = 0;
"2" = 0;
"3" = 0;
"4" = 0;
"5" = 0;
"6" = 0;
"7" = 0;
"8" = 0;
"9" = 0;
};
};
width = 572;
},
{
layerId = "D54810B1-F9A5-4F35-A1FF-AED0599B2373";
shapes = (
{
closed = 1;
nodes = (
(276,10,o),
(310,28,o),
(342,33,c),
(488,419,ls),
(502,457,o),
(513,476,o),
(530,500,c),
(394,500,l),
(394,485,l),
(436,484,o),
(447,453,o),
(422,385,cs),
(323,117,l),
(219,396,ls),
(201,444,o),
(198,469,o),
(208,500,c),
(10,500,l),
(10,485,l),
(49,482,o),
(66,450,o),
(84,402,cs),
(238,-15,l),
(258,-19,l)
);
}
);
userData = {
com.hugojourdan.ColorFlow = {
"0" = 0;
"1" = 0;
"10" = 0;
"11" = 0;
"2" = 0;
"3" = 0;
"4" = 0;
"5" = 0;
"6" = 0;
"7" = 0;
"8" = 0;
"9" = 0;
};
};
width = 540;
}
);
unicode = 118;
}
{
color = 5;
glyphname = z;
kernLeft = z;
kernRight = z;
layers = (
{
anchors = (
{
name = bottom;
pos = (268,0);
},
{
name = center;
pos = (268,250);
},
{
name = top;
pos = (268,500);
}
);
layerId = "452AD06C-4D92-427C-8B35-838986F56274";
shapes = (
{
closed = 1;
nodes = (
(68,17,o),
(135,45,o),
(214,45,cs),
(273,45,o),
(340,29,o),
(422,-8,c),
(494,114,l),
(486,118,l),
(437,29,o),
(364,89,o),
(252,89,cs),
(206,89,o),
(150,79,o),
(93,48,c),
(90,51,l),
(213,197,o),
(454,473,o),
(494,497,c),
(489,506,l),
(475,501,o),
(453,500,o),
(428,500,cs),
(213,500,ls),
(150,500,o),
(135,505,o),
(119,516,c),
(56,393,l),
(63,388,l),
(100,431,o),
(129,442,o),
(184,442,cs),
(376,442,l),
(20,0,l),
(32,-10,l)
);
}
);
userData = {
com.hugojourdan.ColorFlow = {
"0" = 0;
"1" = 0;
"10" = 0;
"11" = 0;
"2" = 0;
"3" = 0;
"4" = 0;
"5" = 0;
"6" = 0;
"7" = 0;
"8" = 0;
"9" = 0;
};
};
width = 515;
},
{
anchors = (
{
name = bottom;
pos = (246,0);
},
{
name = center;
pos = (255,250);
},
{
name = top;
pos = (264,500);
}
);
layerId = m004;
shapes = (
{
closed = 1;
nodes = (
(94,-2,o),
(122,0,o),
(161,0,cs),
(261,0,o),
(341,-6,o),
(438,2,c),
(494,185,l),
(472,193,l),
(458,158,o),
(433,150,o),
(397,149,cs),
(355,148,o),
(268,149,o),
(206,142,c),
(201,148,l),
(259,239,o),
(372,366,o),
(494,490,c),
(481,507,l),
(463,501,o),
(443,500,o),
(391,500,cs),
(214,500,ls),
(138,500,o),
(123,501,o),
(100,510,c),
(25,316,l),
(47,307,l),
(76,360,o),
(110,366,o),
(185,366,cs),
(310,366,l),
(20,6,l),
(32,-10,l)
);
}
);
userData = {
com.hugojourdan.ColorFlow = {
"0" = 0;
"1" = 0;
"10" = 0;
"11" = 0;
"2" = 0;
"3" = 0;
"4" = 0;
"5" = 0;
"6" = 0;
"7" = 0;
"8" = 0;
"9" = 0;
};
};
width = 519;
},
{
anchors = (
{
name = bottom;
pos = (256,0);
},
{
name = center;
pos = (261,250);
},
{
name = top;
pos = (266,500);
}
);
layerId = "D54810B1-F9A5-4F35-A1FF-AED0599B2373";
shapes = (
{
closed = 1;
nodes = (
(82,7,o),
(128,20,o),
(185,20,cs),
(266,20,o),
(341,10,o),
(431,-3,c),
(494,153,l),
(478,159,l),
(448,100,o),
(402,122,o),
(331,122,cs),
(287,121,o),
(215,117,o),
(155,99,c),
(151,104,l),
(238,220,o),
(409,414,o),
(494,493,c),
(485,507,l),
(468,501,o),
(448,500,o),
(408,500,cs),
(214,500,ls),
(143,500,o),
(128,503,o),
(109,513,c),
(39,351,l),
(54,344,l),
(87,392,o),
(119,400,o),
(185,400,cs),
(340,400,l),
(20,3,l),
(32,-10,l)
);
}
);
userData = {
com.hugojourdan.ColorFlow = {
"0" = 0;
"1" = 0;
"10" = 0;
"11" = 0;
"2" = 0;
"3" = 0;
"4" = 0;
"5" = 0;
"6" = 0;
"7" = 0;
"8" = 0;
"9" = 0;
};
};
width = 517.1875;
}
);
unicode = 122;
}
{
color = 8;
glyphname = braceright;
layers = (
{
layerId = "452AD06C-4D92-427C-8B35-838986F56274";
shapes = (
{
closed = 1;
nodes = (
(353,0,l),
(306,51,o),
(281,183,o),
(281,246,cs),
(281,373,o),
(359,409,o),
(451,416,c),
(451,422,l),
(354,449,o),
(290,490,o),
(290,593,cs),
(290,652,o),
(314,769,o),
(363,820,c),
(81,820,l),
(80,788,o),
(74,732,o),
(53,668,c),
(62,665,l),
(115,775,o),
(182,802,o),
(268,802,cs),
(282,802,o),
(284,801,o),
(284,796,cs),
(284,787,o),
(231,696,o),
(231,594,cs),
(231,495,o),
(292,456,o),
(384,429,c),
(384,424,l),
(288,409,o),
(219,356,o),
(219,247,cs),
(219,152,o),
(255,84,o),
(255,53,cs),
(255,27,o),
(239,18,o),
(210,18,cs),
(138,18,o),
(82,45,o),
(29,155,c),
(20,152,l),
(41,88,o),
(47,32,o),
(48,0,c)
);
}
);
userData = {
com.hugojourdan.ColorFlow = {
"0" = 0;
"1" = 0;
"10" = 0;
"11" = 0;
"2" = 0;
"3" = 0;
"4" = 0;
"5" = 0;
"6" = 0;
"7" = 0;
"8" = 0;
"9" = 0;
};
};
width = 508;
},
{
layerId = m004;
shapes = (
{
closed = 1;
nodes = (
(489,0,l),
(451,41,o),
(407,97,o),
(407,171,cs),
(407,228,o),
(435,313,o),
(551,387,c),
(551,403,l),
(432,455,o),
(406,529,o),
(406,608,cs),
(406,689,o),
(454,764,o),
(488,799,c),
(96,799,l),
(95,767,o),
(89,711,o),
(68,647,c),
(77,644,l),
(130,754,o),
(206,781,o),
(265,781,cs),
(278,781,o),
(284,777,o),
(284,767,cs),
(284,739,o),
(241,677,o),
(241,611,cs),
(241,526,o),
(295,442,o),
(467,403,c),
(467,394,l),
(314,398,o),
(226,347,o),
(226,235,cs),
(226,159,o),
(275,101,o),
(275,52,cs),
(275,29,o),
(254,18,o),
(226,18,cs),
(154,18,o),
(98,45,o),
(45,155,c),
(36,152,l),
(57,88,o),
(63,32,o),
(64,0,c)
);
}
);
userData = {
com.hugojourdan.ColorFlow = {
"0" = 0;
"1" = 0;
"10" = 0;
"11" = 0;
"2" = 0;
"3" = 0;
"4" = 0;
"5" = 0;
"6" = 0;
"7" = 0;
"8" = 0;
"9" = 0;
};
};
width = 589;
},
{
layerId = "D54810B1-F9A5-4F35-A1FF-AED0599B2373";
shapes = (
{
closed = 1;
nodes = (
(429,0,l),
(387,46,o),
(351,136,o),
(351,205,cs),
(351,294,o),
(402,357,o),
(507,400,c),
(507,412,l),
(398,452,o),
(355,511,o),
(355,601,cs),
(355,672,o),
(392,766,o),
(433,809,c),
(91,809,l),
(90,777,o),
(84,721,o),
(63,657,c),
(72,654,l),
(125,764,o),
(191,792,o),
(257,792,cs),
(275,792,o),
(281,787,o),
(281,775,cs),
(281,741,o),
(237,681,o),
(237,608,cs),
(237,514,o),
(301,450,o),
(429,418,c),
(429,408,l),
(305,402,o),
(227,351,o),
(227,239,cs),
(227,155,o),
(267,81,o),
(267,44,cs),
(267,26,o),
(248,18,o),
(220,18,cs),
(148,18,o),
(92,45,o),
(39,155,c),
(30,152,l),
(51,88,o),
(57,32,o),
(58,0,c)
);
}
);
userData = {
com.hugojourdan.ColorFlow = {
"0" = 0;
"1" = 0;
"10" = 0;
"11" = 0;
"2" = 0;
"3" = 0;
"4" = 0;
"5" = 0;
"6" = 0;
"7" = 0;
"8" = 0;
"9" = 0;
};
};
width = 552.29688;
}
);
note = braceright;
unicode = 125;
}
{
color = 5;
glyphname = sterling;
kernLeft = L;
kernRight = E;
layers = (
{
layerId = "452AD06C-4D92-427C-8B35-838986F56274";
shapes = (
{
closed = 1;
nodes = (
(248,71,o),
(256,71,o),
(263,69,c),
(542,384,l),
(539,391,l),
(525,387,o),
(510,386,o),
(494,386,cs),
(113,386,l),
(139,359,l),
(209,359,l),
(210,333,ls),
(214,228,o),
(183,113,o),
(65,-15,c),
(73,-23,l),
(99,2,o),
(158,40,o),
(223,33,cs),
(315,23,o),
(363,-40,o),
(446,-40,cs),
(522,-40,o),
(590,29,o),
(616,83,c),
(607,88,l),
(585,52,o),
(538,20,o),
(463,20,cs),
(406,20,o),
(301,64,o),
(228,62,cs),
(190,61,o),
(162,52,o),
(134,35,c),
(130,39,l),
(241,177,o),
(274,272,o),
(270,359,c),
(461,359,l),
(239,71,l)
);
},
{
closed = 1;
nodes = (
(55,455,l),
(92,419,l),
(527,419,ls),
(555,419,o),
(559,418,o),
(579,411,c),
(611,453,l),
(605,460,l),
(587,454,o),
(572,451,o),
(549,451,cs),
(259,451,l),
(256,487,o),
(251,522,o),
(251,559,cs),
(251,655,o),
(309,705,o),
(371,705,cs),
(440,705,o),
(514,644,o),
(522,512,c),
(530,513,l),
(540,690,l),
(486,714,o),
(430,727,o),
(379,727,cs),
(271,727,o),
(186,671,o),
(186,547,cs),
(186,518,o),
(192,487,o),
(198,451,c),
(100,451,ls),
(83,451,o),
(72,454,o),
(63,462,c)
);
},
{
closed = 1;
nodes = (
(152,-35,l),
(160,-43,l),
(221,24,l),
(215,27,o),
(208,27,o),
(202,26,c)
);
}
);
userData = {
com.hugojourdan.ColorFlow = {
"0" = 0;
"1" = 0;
"10" = 0;
"11" = 0;
"2" = 0;
"3" = 0;
"4" = 0;
"5" = 0;
"6" = 0;
"7" = 0;
"8" = 0;
"9" = 0;
};
};
width = 676;
},
{
layerId = m004;
shapes = (
{
closed = 1;
nodes = (
(290,121,o),
(316,125,o),
(332,123,c),
(582,374,l),
(569,391,l),
(555,387,o),
(540,386,o),
(524,386,cs),
(123,386,l),
(149,326,l),
(184,326,l),
(184,311,ls),
(184,226,o),
(163,123,o),
(45,-5,c),
(67,-28,l),
(93,-3,o),
(178,40,o),
(243,33,cs),
(335,23,o),
(383,-40,o),
(466,-40,cs),
(542,-40,o),
(615,63,o),
(641,117,c),
(622,132,l),
(600,96,o),
(575,77,o),
(500,77,cs),
(443,77,o),
(387,113,o),
(314,111,cs),
(276,110,o),
(221,81,o),
(193,64,c),
(186,77,l),
(295,197,o),
(334,257,o),
(343,326,c),
(431,326,l),
(262,111,l)
);
},
{
closed = 1;
nodes = (
(75,485,l),
(112,411,l),
(547,411,ls),
(575,411,o),
(579,413,o),
(599,408,c),
(651,483,l),
(637,494,l),
(624,487,o),
(612,481,o),
(569,481,cs),
(335,481,l),
(331,507,o),
(327,532,o),
(327,559,cs),
(327,632,o),
(356,664,o),
(393,664,cs),
(443,664,o),
(508,606,o),
(540,512,c),
(560,513,l),
(560,700,l),
(506,724,o),
(450,737,o),
(399,737,cs),
(289,737,o),
(151,683,o),
(151,523,cs),
(151,509,o),
(152,495,o),
(153,481,c),
(129,481,ls),
(112,481,o),
(100,487,o),
(91,495,c)
);
},
{
closed = 1;
nodes = (
(92,-111,l),
(106,-123,l),
(238,22,l),
(227,27,o),
(213,26,o),
(195,23,c)
);
}
);
userData = {
com.hugojourdan.ColorFlow = {
"0" = 0;
"1" = 0;
"10" = 0;
"11" = 0;
"2" = 0;
"3" = 0;
"4" = 0;
"5" = 0;
"6" = 0;
"7" = 0;
"8" = 0;
"9" = 0;
};
};
width = 645;
},
{
layerId = "D54810B1-F9A5-4F35-A1FF-AED0599B2373";
shapes = (
{
closed = 1;
nodes = (
(271,98,o),
(289,101,o),
(301,99,c),
(564,379,l),
(555,391,l),
(541,387,o),
(526,386,o),
(510,386,cs),
(118,386,l),
(144,341,l),
(195,341,l),
(196,321,ls),
(198,227,o),
(172,118,o),
(54,-10,c),
(70,-26,l),
(96,-1,o),
(169,40,o),
(234,33,cs),
(326,23,o),
(374,-40,o),
(457,-40,cs),
(533,-40,o),
(604,48,o),
(630,102,c),
(615,112,l),
(593,76,o),
(558,51,o),
(483,51,cs),
(426,51,o),
(348,91,o),
(275,89,cs),
(237,88,o),
(194,68,o),
(166,51,c),
(161,60,l),
(271,188,o),
(307,264,o),
(310,341,c),
(445,341,l),
(252,93,l)
);
},
{
closed = 1;
nodes = (
(66,471,l),
(103,415,l),
(538,415,ls),
(566,415,o),
(570,415,o),
(590,409,c),
(633,469,l),
(623,479,l),
(607,472,o),
(594,467,o),
(560,467,cs),
(301,467,l),
(297,498,o),
(293,527,o),
(293,559,cs),
(293,642,o),
(335,683,o),
(383,683,cs),
(442,683,o),
(511,623,o),
(532,512,c),
(546,513,l),
(551,695,l),
(497,719,o),
(441,732,o),
(390,732,cs),
(281,732,o),
(167,678,o),
(167,534,cs),
(167,513,o),
(170,491,o),
(173,467,c),
(116,467,ls),
(99,467,o),
(87,472,o),
(78,480,c)
);
},
{
closed = 1;
nodes = (
(119,-77,l),
(130,-87,l),
(230,23,l),
(222,27,o),
(211,26,o),
(198,24,c)
);
}
);
userData = {
com.hugojourdan.ColorFlow = {
"0" = 0;
"1" = 0;
"10" = 0;
"11" = 0;
"2" = 0;
"3" = 0;
"4" = 0;
"5" = 0;
"6" = 0;
"7" = 0;
"8" = 0;
"9" = 0;
};
};
width = 659.04688;
}
);
note = sterling;
unicode = 163;
}
{
glyphname = section;
kernLeft = s;
kernRight = s;
layers = (
{
layerId = "452AD06C-4D92-427C-8B35-838986F56274";
shapes = (
{
closed = 1;
nodes = (
(300,-10,o),
(364,45,o),
(364,124,cs),
(364,188,o),
(335,224,o),
(259,256,c),
(317,281,o),
(358,333,o),
(358,386,cs),
(358,436,o),
(323,467,o),
(279,491,cs),
(200,534,o),
(90,555,o),
(86,632,cs),
(83,686,o),
(119,721,o),
(169,721,cs),
(247,721,o),
(287,676,o),
(287,619,cs),
(287,592,o),
(276,561,o),
(258,531,c),
(269,525,l),
(350,638,l),
(325,699,o),
(258,737,o),
(183,737,cs),
(94,737,o),
(40,678,o),
(40,615,cs),
(40,554,o),
(80,512,o),
(158,481,c),
(84,471,o),
(40,418,o),
(40,361,cs),
(40,293,o),
(90,250,o),
(187,217,cs),
(254,195,o),
(307,163,o),
(307,104,cs),
(307,54,o),
(260,7,o),
(202,7,cs),
(105,7,o),
(47,106,o),
(60,218,c),
(52,220,l),
(20,101,l),
(48,38,o),
(102,-10,o),
(194,-10,cs)
);
},
{
closed = 1;
nodes = (
(86,432,o),
(119,468,o),
(169,468,cs),
(233,468,o),
(291,421,o),
(291,362,cs),
(291,322,o),
(271,281,o),
(232,266,c),
(126,299,o),
(86,324,o),
(86,378,cs)
);
}
);
userData = {
com.hugojourdan.ColorFlow = {
"0" = 0;
"1" = 0;
"10" = 0;
"11" = 0;
"2" = 0;
"3" = 0;
"4" = 0;
"5" = 0;
"6" = 0;
"7" = 0;
"8" = 0;
"9" = 0;
};
};
width = 394;
},
{
layerId = m004;
shapes = (
{
closed = 1;
nodes = (
(408,-144,o),
(486,-39,o),
(486,78,cs),
(486,153,o),
(449,196,o),
(402,230,c),
(468,270,o),
(505,340,o),
(499,413,cs),
(495,478,o),
(457,522,o),
(408,555,cs),
(319,614,o),
(196,631,o),
(196,717,cs),
(196,756,o),
(233,779,o),
(283,779,cs),
(323,779,o),
(375,757,o),
(385,686,cs),
(387,665,o),
(387,640,o),
(382,610,c),
(396,605,l),
(476,769,l),
(424,811,o),
(355,832,o),
(287,832,cs),
(169,832,o),
(77,773,o),
(77,660,cs),
(77,560,o),
(135,518,o),
(200,487,c),
(119,467,o),
(63,411,o),
(63,324,cs),
(63,209,o),
(154,175,o),
(235,140,cs),
(301,112,o),
(360,83,o),
(360,-3,cs),
(360,-58,o),
(322,-87,o),
(264,-86,cs),
(151,-83,o),
(83,35,o),
(129,151,c),
(112,159,l),
(20,-68,l),
(84,-119,o),
(165,-144,o),
(242,-144,cs)
);
},
{
closed = 1;
nodes = (
(182,420,o),
(220,447,o),
(269,442,cs),
(337,436,o),
(378,380,o),
(378,329,cs),
(378,302,o),
(365,276,o),
(339,261,c),
(262,296,o),
(182,321,o),
(182,380,cs)
);
}
);
userData = {
com.hugojourdan.ColorFlow = {
"0" = 0;
"1" = 0;
"10" = 0;
"11" = 0;
"2" = 0;
"3" = 0;
"4" = 0;
"5" = 0;
"6" = 0;
"7" = 0;
"8" = 0;
"9" = 0;
};
};
width = 520;
},
{
layerId = "D54810B1-F9A5-4F35-A1FF-AED0599B2373";
shapes = (
{
closed = 1;
nodes = (
(373,-93,o),
(447,-7,o),
(447,97,cs),
(447,170,o),
(412,211,o),
(350,245,c),
(415,280,o),
(455,344,o),
(452,411,cs),
(449,471,o),
(411,511,o),
(363,540,cs),
(276,594,o),
(154,614,o),
(152,698,cs),
(151,745,o),
(190,775,o),
(241,775,cs),
(298,775,o),
(347,741,o),
(353,675,cs),
(354,650,o),
(349,622,o),
(339,591,c),
(352,586,l),
(435,732,l),
(393,784,o),
(323,813,o),
(249,813,cs),
(141,813,o),
(62,752,o),
(62,658,cs),
(62,572,o),
(114,529,o),
(188,496,c),
(107,481,o),
(54,424,o),
(54,347,cs),
(54,249,o),
(130,210,o),
(221,175,cs),
(289,148,o),
(347,118,o),
(347,40,cs),
(347,-14,o),
(304,-52,o),
(245,-52,cs),
(135,-49,o),
(69,64,o),
(102,182,c),
(89,187,l),
(20,1,l),
(70,-57,o),
(142,-93,o),
(228,-93,cs)
);
},
{
closed = 1;
nodes = (
(145,436,o),
(182,467,o),
(233,464,cs),
(301,461,o),
(351,407,o),
(351,351,cs),
(351,317,o),
(335,284,o),
(301,268,c),
(209,303,o),
(145,330,o),
(145,388,cs)
);
}
);
userData = {
com.hugojourdan.ColorFlow = {
"0" = 0;
"1" = 0;
"10" = 0;
"11" = 0;
"2" = 0;
"3" = 0;
"4" = 0;
"5" = 0;
"6" = 0;
"7" = 0;
"8" = 0;
"9" = 0;
};
};
width = 482;
}
);
metricLeft = s;
metricRight = s;
note = section;
unicode = 167;
}
{
glyphname = logicalnot;
layers = (
{
layerId = "452AD06C-4D92-427C-8B35-838986F56274";
shapes = (
{
closed = 1;
nodes = (
(50,386,l),
(118,420,l),
(429,420,l),
(429,77,l),
(393,87,l),
(393,373,l),
(50,373,l)
);
}
);
userData = {
com.hugojourdan.ColorFlow = {
"0" = 0;
"1" = 0;
"10" = 0;
"11" = 0;
"2" = 0;
"3" = 0;
"4" = 0;
"5" = 0;
"6" = 0;
"7" = 0;
"8" = 0;
"9" = 0;
};
};
width = 479;
},
{
layerId = m004;
shapes = (
{
closed = 1;
nodes = (
(50,296,l),
(142,420,l),
(524,420,l),
(524,27,l),
(417,44,l),
(417,278,l),
(50,278,l)
);
}
);
userData = {
com.hugojourdan.ColorFlow = {
"0" = 0;
"1" = 0;
"10" = 0;
"11" = 0;
"2" = 0;
"3" = 0;
"4" = 0;
"5" = 0;
"6" = 0;
"7" = 0;
"8" = 0;
"9" = 0;
};
};
width = 574;
},
{
layerId = "D54810B1-F9A5-4F35-A1FF-AED0599B2373";
shapes = (
{
closed = 1;
nodes = (
(50,337,l),
(131,420,l),
(481,420,l),
(481,50,l),
(406,63,l),
(406,321,l),
(50,321,l)
);
}
);
userData = {
com.hugojourdan.ColorFlow = {
"0" = 0;
"1" = 0;
"10" = 0;
"11" = 0;
"2" = 0;
"3" = 0;
"4" = 0;
"5" = 0;
"6" = 0;
"7" = 0;
"8" = 0;
"9" = 0;
};
};
width = 530.95312;
}
);
unicode = 172;
}
{
color = 5;
glyphname = registered;
kernLeft = O;
kernRight = O;
layers = (
{
anchors = (
{
name = bottom;
pos = (428,0);
},
{
name = center;
pos = (428,361);
},
{
name = ogonek;
pos = (791,10);
},
{
name = top;
pos = (428,722);
},
{
name = topleft;
pos = (-7,722);
},
{
name = topright;
pos = (862,722);
}
);
layerId = "452AD06C-4D92-427C-8B35-838986F56274";
shapes = (
{
closed = 1;
nodes = (
(679,-17,o),
(805,171,o),
(805,360,cs),
(805,549,o),
(679,738,o),
(428,738,cs),
(241,738,o),
(50,605,o),
(50,360,cs),
(50,109,o),
(231,-17,o),
(429,-17,cs)
);
},
{
closed = 1;
nodes = (
(227,6,o),
(119,190,o),
(119,370,cs),
(119,541,o),
(216,712,o),
(422,712,cs),
(622,712,o),
(739,526,o),
(739,345,cs),
(739,173,o),
(632,6,o),
(437,6,cs)
);
},
{
closed = 1;
nodes = (
(762,-25,l),
(675,7,o),
(643,112,o),
(592,199,cs),
(557,259,o),
(513,310,o),
(435,320,c),
(435,324,l),
(560,336,o),
(629,426,o),
(629,493,cs),
(629,564,o),
(571,628,o),
(482,628,cs),
(443,628,o),
(396,616,o),
(347,585,c),
(347,624,l),
(240,624,l),
(240,619,l),
(255,619,ls),
(282,619,o),
(294,605,o),
(294,571,cs),
(294,143,ls),
(294,110,o),
(292,98,o),
(286,80,c),
(355,80,l),
(349,98,o),
(347,110,o),
(347,143,cs),
(347,329,l),
(411,317,o),
(469,307,o),
(547,176,cs),
(611,69,o),
(618,12,o),
(761,-31,c)
);
},
{
closed = 1;
nodes = (
(389,337,o),
(367,341,o),
(347,347,c),
(347,572,l),
(386,594,o),
(420,603,o),
(450,603,cs),
(526,603,o),
(568,541,o),
(568,478,cs),
(568,383,o),
(491,337,o),
(411,337,cs)
);
}
);
userData = {
com.hugojourdan.ColorFlow = {
"0" = 0;
"1" = 0;
"10" = 0;
"11" = 0;
"2" = 0;
"3" = 0;
"4" = 0;
"5" = 0;
"6" = 0;
"7" = 0;
"8" = 0;
"9" = 0;
};
};
width = 855;
},
{
anchors = (
{
name = bottom;
pos = (462,65);
},
{
name = center;
pos = (404,361);
},
{
name = ogonek;
pos = (767,10);
},
{
name = top;
pos = (462,696);
},
{
name = topleft;
pos = (-31,722);
},
{
name = topright;
pos = (838,722);
}
);
layerId = m004;
shapes = (
{
closed = 1;
nodes = (
(703,-9,o),
(812,185,o),
(812,391,cs),
(812,582,o),
(704,785,o),
(432,785,cs),
(157,785,o),
(30,578,o),
(30,387,cs),
(30,181,o),
(144,-9,o),
(429,-9,cs)
);
},
{
closed = 1;
nodes = (
(218,25,o),
(106,202,o),
(88,390,cs),
(74,565,o),
(165,754,o),
(400,754,cs),
(630,754,o),
(738,565,o),
(753,390,cs),
(770,202,o),
(694,25,o),
(461,25,cs)
);
},
{
closed = 1;
nodes = (
(749,55,l),
(671,77,o),
(647,279,o),
(572,342,cs),
(544,365,o),
(503,379,o),
(441,381,c),
(441,379,l),
(578,370,o),
(642,447,o),
(642,522,cs),
(642,589,o),
(590,655,o),
(498,655,cs),
(455,655,o),
(407,641,o),
(363,615,c),
(363,648,l),
(164,648,l),
(164,627,l),
(178,627,ls),
(207,627,o),
(223,608,o),
(223,571,cs),
(223,217,ls),
(223,186,o),
(218,165,o),
(206,144,c),
(380,144,l),
(368,165,o),
(363,186,o),
(363,217,cs),
(363,362,l),
(424,350,o),
(441,331,o),
(504,209,cs),
(557,107,o),
(611,73,o),
(743,43,c)
);
},
{
closed = 1;
nodes = (
(411,403,o),
(385,403,o),
(363,407,c),
(363,570,l),
(386,582,o),
(407,587,o),
(424,587,cs),
(476,587,o),
(502,542,o),
(502,498,cs),
(502,445,o),
(471,417,o),
(433,407,cs)
);
}
);
userData = {
com.hugojourdan.ColorFlow = {
"0" = 0;
"1" = 0;
"10" = 0;
"11" = 0;
"2" = 0;
"3" = 0;
"4" = 0;
"5" = 0;
"6" = 0;
"7" = 0;
"8" = 0;
"9" = 0;
};
};
width = 842;
},
{
anchors = (
{
name = bottom;
pos = (483,36);
},
{
name = center;
pos = (451,361);
},
{
name = ogonek;
pos = (814,10);
},
{
name = top;
pos = (483,708);
},
{
name = topleft;
pos = (16,722);
},
{
name = topright;
pos = (885,722);
}
);
layerId = "D54810B1-F9A5-4F35-A1FF-AED0599B2373";
shapes = (
{
closed = 1;
nodes = (
(40,75,o),
(229,-43,o),
(423,-43,cs),
(646,-43,o),
(877,115,o),
(877,416,cs),
(877,659,o),
(695,777,o),
(501,777,cs),
(279,777,o),
(40,622,o),
(40,321,cs)
);
},
{
closed = 1;
nodes = (
(258,16,o),
(148,197,o),
(138,381,cs),
(130,554,o),
(224,735,o),
(446,735,cs),
(662,735,o),
(774,547,o),
(783,370,cs),
(792,189,o),
(702,16,o),
(486,16,cs)
);
},
{
closed = 1;
nodes = (
(791,19,l),
(709,45,o),
(681,203,o),
(617,277,c),
(586,317,o),
(544,348,o),
(474,353,c),
(474,354,l),
(606,355,o),
(672,437,o),
(672,509,cs),
(672,578,o),
(617,643,o),
(527,643,cs),
(486,643,o),
(438,630,o),
(392,601,c),
(392,637,l),
(234,637,l),
(234,624,l),
(248,624,ls),
(277,624,o),
(291,608,o),
(291,571,cs),
(291,184,ls),
(291,151,o),
(288,135,o),
(279,115,c),
(404,115,l),
(395,135,o),
(392,151,o),
(392,184,cs),
(392,347,l),
(454,335,o),
(490,320,o),
(559,194,cs),
(617,90,o),
(650,45,o),
(787,9,c)
);
},
{
closed = 1;
nodes = (
(437,373,o),
(413,375,o),
(392,380,c),
(392,571,l),
(422,587,o),
(449,594,o),
(472,594,cs),
(535,594,o),
(568,542,o),
(568,489,cs),
(568,417,o),
(516,381,o),
(459,375,cs)
);
}
);
userData = {
com.hugojourdan.ColorFlow = {
"0" = 0;
"1" = 0;
"10" = 0;
"11" = 0;
"2" = 0;
"3" = 0;
"4" = 0;
"5" = 0;
"6" = 0;
"7" = 0;
"8" = 0;
"9" = 0;
};
};
width = 917;
}
);
metricLeft = O;
metricRight = O;
note = registered;
unicode = 174;
}
{
color = 7;
glyphname = macron;
layers = (
{
layerId = "452AD06C-4D92-427C-8B35-838986F56274";
shapes = (
{
closed = 1;
nodes = (
(77,619,l),
(431,619,l),
(445,649,l),
(370,641,o),
(315,639,o),
(254,639,cs),
(185,639,o),
(137,641,o),
(63,649,c)
);
}
);
userData = {
com.hugojourdan.ColorFlow = {
"0" = 0;
"1" = 0;
"10" = 0;
"11" = 0;
"2" = 0;
"3" = 0;
"4" = 0;
"5" = 0;
"6" = 0;
"7" = 0;
"8" = 0;
"9" = 0;
};
};
width = 550;
},
{
layerId = m004;
shapes = (
{
closed = 1;
nodes = (
(33,580,l),
(403,580,l),
(418,655,l),
(340,642,o),
(282,640,o),
(218,640,cs),
(146,640,o),
(96,642,o),
(18,655,c)
);
}
);
userData = {
com.hugojourdan.ColorFlow = {
"0" = 0;
"1" = 0;
"10" = 0;
"11" = 0;
"2" = 0;
"3" = 0;
"4" = 0;
"5" = 0;
"6" = 0;
"7" = 0;
"8" = 0;
"9" = 0;
};
};
width = 448;
},
{
layerId = "D54810B1-F9A5-4F35-A1FF-AED0599B2373";
shapes = (
{
closed = 1;
nodes = (
(45,595,l),
(415,595,l),
(430,647,l),
(352,639,o),
(294,637,o),
(230,637,cs),
(158,637,o),
(108,639,o),
(30,647,c)
);
}
);
userData = {
com.hugojourdan.ColorFlow = {
"0" = 0;
"1" = 0;
"10" = 0;
"11" = 0;
"2" = 0;
"3" = 0;
"4" = 0;
"5" = 0;
"6" = 0;
"7" = 0;
"8" = 0;
"9" = 0;
};
};
width = 550;
}
);
unicode = 175;
}
{
color = 5;
glyphname = micro;
layers = (
{
layerId = "452AD06C-4D92-427C-8B35-838986F56274";
shapes = (
{
closed = 1;
nodes = (
(132,-146,l),
(132,17,l),
(136,21,l),
(179,-1,o),
(219,-13,o),
(257,-13,cs),
(311,-13,o),
(360,11,o),
(403,65,c),
(406,36,o),
(425,0,o),
(477,0,cs),
(492,0,l),
(493,8,l),
(467,21,o),
(466,35,o),
(466,62,cs),
(466,416,ls),
(466,460,o),
(468,476,o),
(476,500,c),
(330,500,l),
(330,493,l),
(350,493,ls),
(386,493,o),
(402,470,o),
(402,416,cs),
(402,95,l),
(374,50,o),
(322,25,o),
(271,25,cs),
(200,25,o),
(132,73,o),
(132,180,cs),
(132,416,ls),
(132,460,o),
(134,476,o),
(142,500,c),
(10,500,l),
(10,493,l),
(26,493,ls),
(55,493,o),
(68,473,o),
(68,423,cs),
(68,80,ls),
(68,-36,o),
(70,-82,o),
(74,-146,c)
);
}
);
userData = {
com.hugojourdan.ColorFlow = {
"0" = 0;
"1" = 0;
"10" = 0;
"11" = 0;
"2" = 0;
"3" = 0;
"4" = 0;
"5" = 0;
"6" = 0;
"7" = 0;
"8" = 0;
"9" = 0;
};
};
width = 600;
},
{
layerId = m004;
shapes = (
{
closed = 1;
nodes = (
(251,-150,l),
(251,-5,l),
(257,1,l),
(269,-3,o),
(281,-6,o),
(294,-6,cs),
(332,-6,o),
(368,17,o),
(405,69,c),
(420,35,o),
(451,0,o),
(529,0,cs),
(605,0,l),
(608,20,l),
(576,35,o),
(573,50,o),
(573,104,cs),
(573,416,ls),
(573,452,o),
(578,476,o),
(589,500,c),
(335,500,l),
(335,478,l),
(347,478,ls),
(375,478,o),
(389,459,o),
(389,421,cs),
(389,122,l),
(367,103,o),
(339,90,o),
(315,90,cs),
(285,90,o),
(261,110,o),
(261,164,cs),
(261,416,ls),
(261,452,o),
(265,476,o),
(275,500,c),
(20,500,l),
(20,476,l),
(33,476,ls),
(62,476,o),
(77,454,o),
(77,412,cs),
(77,43,ls),
(77,-56,o),
(85,-107,o),
(98,-150,c)
);
}
);
userData = {
com.hugojourdan.ColorFlow = {
"0" = 0;
"1" = 0;
"10" = 0;
"11" = 0;
"2" = 0;
"3" = 0;
"4" = 0;
"5" = 0;
"6" = 0;
"7" = 0;
"8" = 0;
"9" = 0;
};
};
width = 600;
},
{
layerId = "D54810B1-F9A5-4F35-A1FF-AED0599B2373";
shapes = (
{
closed = 1;
nodes = (
(197,-148,l),
(197,5,l),
(202,10,l),
(228,-2,o),
(253,-9,o),
(277,-9,cs),
(322,-9,o),
(364,14,o),
(404,67,c),
(414,35,o),
(439,0,o),
(505,0,cs),
(554,0,l),
(556,15,l),
(527,29,o),
(525,43,o),
(525,85,cs),
(525,416,ls),
(525,456,o),
(528,476,o),
(538,500,c),
(333,500,l),
(333,485,l),
(348,485,ls),
(380,485,o),
(395,464,o),
(395,419,cs),
(395,110,l),
(370,79,o),
(331,61,o),
(295,61,cs),
(246,61,o),
(203,93,o),
(203,171,cs),
(203,416,ls),
(203,456,o),
(206,476,o),
(215,500,c),
(15,500,l),
(15,484,l),
(30,484,ls),
(59,484,o),
(73,463,o),
(73,417,cs),
(73,60,ls),
(73,-47,o),
(78,-96,o),
(87,-148,c)
);
}
);
userData = {
com.hugojourdan.ColorFlow = {
"0" = 0;
"1" = 0;
"10" = 0;
"11" = 0;
"2" = 0;
"3" = 0;
"4" = 0;
"5" = 0;
"6" = 0;
"7" = 0;
"8" = 0;
"9" = 0;
};
};
width = 600;
}
);
unicode = 181;
}
{
glyphname = guillemetright;
kernLeft = guillemetright;
kernRight = guillemetright;
layers = (
{
layerId = "452AD06C-4D92-427C-8B35-838986F56274";
shapes = (
{
closed = 1;
nodes = (
(46,0,l),
(129,8,o),
(170,18,o),
(202,58,cs),
(256,124,o),
(324,225,o),
(362,253,c),
(362,257,l),
(349,266,o),
(332,283,o),
(319,301,c),
(221,420,ls),
(204,439,o),
(191,461,o),
(191,476,cs),
(191,494,o),
(212,500,o),
(235,500,cs),
(296,500,o),
(295,479,o),
(331,432,cs),
(460,271,l),
(415,239,o),
(353,141,o),
(300,74,c),
(275,46,o),
(251,17,o),
(213,8,c),
(216,0,l),
(300,8,o),
(339,18,o),
(372,58,cs),
(425,124,o),
(493,225,o),
(532,253,c),
(532,257,l),
(518,266,o),
(503,283,o),
(490,301,c),
(389,420,ls),
(359,456,o),
(350,488,o),
(389,502,c),
(389,506,l),
(56,506,l),
(56,502,l),
(105,500,o),
(122,481,o),
(163,432,cs),
(290,271,l),
(244,239,o),
(182,141,o),
(129,74,cs),
(106,46,o),
(83,17,o),
(43,8,c)
);
}
);
userData = {
com.hugojourdan.ColorFlow = {
"0" = 0;
"1" = 0;
"10" = 0;
"11" = 0;
"2" = 0;
"3" = 0;
"4" = 0;
"5" = 0;
"6" = 0;
"7" = 0;
"8" = 0;
"9" = 0;
};
};
width = 556;
},
{
layerId = m004;
shapes = (
{
closed = 1;
nodes = (
(43,8,l),
(159,-19,o),
(219,11,o),
(269,71,cs),
(315,127,o),
(371,233,o),
(403,258,c),
(403,272,l),
(392,280,o),
(379,295,o),
(367,309,cs),
(315,372,ls),
(290,403,o),
(268,442,o),
(269,459,c),
(273,459,o),
(279,459,o),
(288,458,cs),
(325,456,o),
(365,447,o),
(393,412,cs),
(498,284,l),
(459,257,o),
(408,139,o),
(361,83,cs),
(342,58,o),
(320,34,o),
(288,26,c),
(289,9,l),
(437,-18,o),
(481,24,o),
(510,58,cs),
(573,133,o),
(614,245,o),
(647,269,c),
(647,283,l),
(634,291,o),
(622,306,o),
(610,320,cs),
(535,411,ls),
(510,442,o),
(501,458,o),
(523,481,c),
(513,500,l),
(53,500,l),
(53,481,l),
(95,479,o),
(110,466,o),
(144,422,cs),
(252,284,l),
(214,257,o),
(162,139,o),
(116,82,cs),
(97,57,o),
(76,33,o),
(42,25,c)
);
}
);
userData = {
com.hugojourdan.ColorFlow = {
"0" = 0;
"1" = 0;
"10" = 0;
"11" = 0;
"2" = 0;
"3" = 0;
"4" = 0;
"5" = 0;
"6" = 0;
"7" = 0;
"8" = 0;
"9" = 0;
};
};
width = 689;
},
{
layerId = "D54810B1-F9A5-4F35-A1FF-AED0599B2373";
shapes = (
{
closed = 1;
nodes = (
(44,4,l),
(145,-7,o),
(197,14,o),
(239,65,cs),
(288,126,o),
(350,229,o),
(384,256,c),
(384,265,l),
(373,274,o),
(358,290,o),
(345,305,cs),
(272,394,ls),
(251,419,o),
(233,451,o),
(234,467,c),
(236,475,o),
(249,478,o),
(264,477,cs),
(312,476,o),
(333,462,o),
(365,421,cs),
(481,278,l),
(439,249,o),
(383,140,o),
(333,79,cs),
(312,53,o),
(289,26,o),
(254,18,c),
(256,5,l),
(375,-6,o),
(417,21,o),
(447,58,cs),
(506,129,o),
(559,236,o),
(595,262,c),
(595,271,l),
(581,280,o),
(568,296,o),
(556,311,cs),
(469,415,ls),
(442,448,o),
(433,472,o),
(462,491,c),
(457,503,l),
(54,503,l),
(54,491,l),
(100,489,o),
(115,473,o),
(153,427,cs),
(269,278,l),
(228,249,o),
(171,140,o),
(122,78,cs),
(101,52,o),
(79,26,o),
(42,17,c)
);
}
);
userData = {
com.hugojourdan.ColorFlow = {
"0" = 0;
"1" = 0;
"10" = 0;
"11" = 0;
"2" = 0;
"3" = 0;
"4" = 0;
"5" = 0;
"6" = 0;
"7" = 0;
"8" = 0;
"9" = 0;
};
};
width = 628.73438;
}
);
note = guillemotleft;
unicode = 187;
}
{
color = 7;
glyphname = multiply;
layers = (
{
layerId = "452AD06C-4D92-427C-8B35-838986F56274";
shapes = (
{
closed = 1;
nodes = (
(229,87,o),
(297,170,o),
(355,233,c),
(407,165,o),
(469,98,o),
(441,1,c),
(519,8,o),
(578,-2,o),
(598,0,c),
(602,64,o),
(593,105,o),
(598,164,c),
(511,125,o),
(445,186,o),
(368,246,c),
(431,301,o),
(498,365,o),
(598,336,c),
(591,410,o),
(606,452,o),
(598,500,c),
(543,489,o),
(492,508,o),
(439,493,c),
(465,397,o),
(411,323,o),
(355,261,c),
(299,341,o),
(242,402,o),
(265,499,c),
(207,488,o),
(160,515,o),
(102,496,c),
(108,449,o),
(98,381,o),
(108,333,c),
(207,369,o),
(279,303,o),
(339,246,c),
(272,194,o),
(204,130,o),
(105,157,c),
(93,95,o),
(113,50,o),
(108,1,c),
(168,8,o),
(204,-4,o),
(268,0,c)
);
}
);
userData = {
com.hugojourdan.ColorFlow = {
"0" = 0;
"1" = 0;
"10" = 0;
"11" = 0;
"2" = 0;
"3" = 0;
"4" = 0;
"5" = 0;
"6" = 0;
"7" = 0;
"8" = 0;
"9" = 0;
};
};
width = 702;
},
{
layerId = m004;
shapes = (
{
closed = 1;
nodes = (
(257,65,o),
(296,135,o),
(353,201,c),
(406,133,o),
(444,74,o),
(386,-20,c),
(514,6,o),
(609,-26,o),
(629,-10,c),
(641,111,o),
(615,137,o),
(644,257,c),
(554,170,o),
(501,204,o),
(420,267,c),
(484,322,o),
(543,359,o),
(641,301,c),
(610,421,o),
(653,469,o),
(621,563,c),
(561,529,o),
(491,577,o),
(397,532,c),
(432,452,o),
(404,392,o),
(357,334,c),
(303,411,o),
(268,462,o),
(309,561,c),
(233,517,o),
(175,590,o),
(63,536,c),
(84,493,o),
(53,371,o),
(90,308,c),
(172,356,o),
(231,320,o),
(288,268,c),
(225,219,o),
(168,180,o),
(82,221,c),
(40,94,o),
(107,38,o),
(54,-23,c),
(178,8,o),
(175,-28,o),
(327,-7,c)
);
}
);
userData = {
com.hugojourdan.ColorFlow = {
"0" = 0;
"1" = 0;
"10" = 0;
"11" = 0;
"2" = 0;
"3" = 0;
"4" = 0;
"5" = 0;
"6" = 0;
"7" = 0;
"8" = 0;
"9" = 0;
};
};
width = 702;
},
{
layerId = "D54810B1-F9A5-4F35-A1FF-AED0599B2373";
shapes = (
{
closed = 1;
nodes = (
(244,75,o),
(296,151,o),
(354,216,c),
(406,148,o),
(455,85,o),
(411,-10,c),
(516,7,o),
(595,-15,o),
(615,-5,c),
(623,90,o),
(605,123,o),
(623,215,c),
(535,150,o),
(476,196,o),
(396,257,c),
(460,312,o),
(523,362,o),
(622,317,c),
(601,416,o),
(632,461,o),
(611,534,c),
(553,511,o),
(491,546,o),
(416,514,c),
(447,427,o),
(407,361,o),
(356,301,c),
(301,379,o),
(256,435,o),
(289,533,c),
(221,504,o),
(168,556,o),
(81,518,c),
(95,473,o),
(73,376,o),
(98,319,c),
(188,362,o),
(253,312,o),
(311,258,c),
(246,208,o),
(184,157,o),
(92,192,c),
(64,94,o),
(110,43,o),
(78,-12,c),
(173,8,o),
(188,-17,o),
(300,-4,c)
);
}
);
userData = {
com.hugojourdan.ColorFlow = {
"0" = 0;
"1" = 0;
"10" = 0;
"11" = 0;
"2" = 0;
"3" = 0;
"4" = 0;
"5" = 0;
"6" = 0;
"7" = 0;
"8" = 0;
"9" = 0;
};
};
width = 702;
}
);
note = multiply;
unicode = 215;
}
{
glyphname = Oslash;
kernLeft = O;
kernRight = O;
layers = (
{
anchors = (
{
name = bottom;
pos = (492,0);
},
{
name = top;
pos = (492,722);
}
);
layerId = "452AD06C-4D92-427C-8B35-838986F56274";
shapes = (
{
closed = 1;
nodes = (
(136,0,l),
(788,728,l),
(782,735,l),
(43,0,l)
);
},
{
alignment = -1;
pos = (10,0);
ref = O;
}
);
userData = {
com.hugojourdan.ColorFlow = {
"0" = 0;
"1" = 0;
"10" = 0;
"11" = 0;
"2" = 0;
"3" = 0;
"4" = 0;
"5" = 0;
"6" = 0;
"7" = 0;
"8" = 0;
"9" = 0;
};
};
width = 861;
},
{
anchors = (
{
name = bottom;
pos = (492,0);
},
{
name = top;
pos = (492,722);
}
);
layerId = m004;
shapes = (
{
closed = 1;
nodes = (
(767,710,l),
(745,730,l),
(21,-2,l),
(130,-87,l)
);
},
{
alignment = -1;
pos = (10,0);
ref = O;
}
);
userData = {
com.hugojourdan.ColorFlow = {
"0" = 0;
"1" = 0;
"10" = 0;
"11" = 0;
"2" = 0;
"3" = 0;
"4" = 0;
"5" = 0;
"6" = 0;
"7" = 0;
"8" = 0;
"9" = 0;
};
};
width = 823;
},
{
anchors = (
{
name = bottom;
pos = (492,0);
},
{
name = top;
pos = (492,722);
}
);
layerId = "D54810B1-F9A5-4F35-A1FF-AED0599B2373";
shapes = (
{
closed = 1;
nodes = (
(482,336,l),
(792,765,l),
(393,379,l),
(52,-86,l)
);
},
{
alignment = -1;
pos = (10,0);
ref = O;
}
);
userData = {
com.hugojourdan.ColorFlow = {
"0" = 0;
"1" = 0;
"10" = 0;
"11" = 0;
"2" = 0;
"3" = 0;
"4" = 0;
"5" = 0;
"6" = 0;
"7" = 0;
"8" = 0;
"9" = 0;
};
};
width = 840.21875;
}
);
unicode = 216;
}
{
glyphname = Thorn;
kernLeft = D;
kernRight = O;
layers = (
{
anchors = (
{
name = bottom;
pos = (416,0);
},
{
name = bottom_1;
pos = (583,0);
},
{
name = bottom_2;
pos = (1260,0);
},
{
name = caret_1;
pos = (922,0);
},
{
name = top;
pos = (416,722);
},
{
name = top_1;
pos = (583,722);
},
{
name = top_2;
pos = (1260,722);
}
);
layerId = "452AD06C-4D92-427C-8B35-838986F56274";
shapes = (
{
closed = 1;
nodes = (
(205,104,l),
(205,129,l),
(251,95,o),
(302,79,o),
(351,79,cs),
(539,79,o),
(638,239,o),
(638,389,cs),
(638,525,o),
(558,653,o),
(390,653,cs),
(329,653,o),
(264,632,o),
(206,584,c),
(207,643,l),
(152,643,l),
(152,169,l)
);
},
{
closed = 1;
nodes = (
(206,554,l),
(262,603,o),
(323,626,o),
(379,626,cs),
(503,626,o),
(559,511,o),
(559,389,cs),
(559,250,o),
(486,102,o),
(355,102,cs),
(282,102,o),
(206,148,o),
(206,232,cs)
);
},
{
pos = (40,0);
ref = I;
}
);
userData = {
com.hugojourdan.ColorFlow = {
"0" = 0;
"1" = 0;
"10" = 0;
"11" = 0;
"2" = 0;
"3" = 0;
"4" = 0;
"5" = 0;
"6" = 0;
"7" = 0;
"8" = 0;
"9" = 0;
};
};
width = 688;
},
{
anchors = (
{
name = bottom;
pos = (442,0);
},
{
name = bottom_1;
pos = (696,0);
},
{
name = bottom_2;
pos = (1399,0);
},
{
name = caret_1;
pos = (1048,0);
},
{
name = top;
pos = (442,722);
},
{
name = top_1;
pos = (696,722);
},
{
name = top_2;
pos = (1399,722);
}
);
layerId = m004;
shapes = (
{
closed = 1;
nodes = (
(307,90,l),
(307,104,l),
(349,96,o),
(390,97,o),
(428,107,cs),
(570,143,o),
(649,302,o),
(649,445,cs),
(649,571,o),
(587,684,o),
(452,684,cs),
(401,684,o),
(366,678,o),
(307,641,c),
(307,676,l),
(145,676,l),
(145,147,l)
);
},
{
closed = 1;
nodes = (
(307,576,l),
(321,594,o),
(345,607,o),
(375,607,cs),
(430,607,o),
(453,527,o),
(453,434,cs),
(453,306,o),
(410,154,o),
(352,154,cs),
(324,154,o),
(307,174,o),
(307,204,cs)
);
},
{
pos = (30,0);
ref = I;
}
);
userData = {
com.hugojourdan.ColorFlow = {
"0" = 0;
"1" = 0;
"10" = 0;
"11" = 0;
"2" = 0;
"3" = 0;
"4" = 0;
"5" = 0;
"6" = 0;
"7" = 0;
"8" = 0;
"9" = 0;
};
};
width = 679;
},
{
anchors = (
{
name = bottom;
pos = (416,0);
},
{
name = bottom_1;
pos = (630,0);
},
{
name = bottom_2;
pos = (1322,0);
},
{
name = caret_1;
pos = (977,0);
},
{
name = top;
pos = (416,722);
},
{
name = top_1;
pos = (630,722);
},
{
name = top_2;
pos = (1322,722);
}
);
layerId = "D54810B1-F9A5-4F35-A1FF-AED0599B2373";
shapes = (
{
closed = 1;
nodes = (
(246,96,l),
(246,115,l),
(290,96,o),
(336,89,o),
(379,94,cs),
(542,114,o),
(630,273,o),
(630,420,cs),
(630,550,o),
(560,670,o),
(410,670,cs),
(354,670,o),
(305,657,o),
(247,615,c),
(247,661,l),
(134,661,l),
(134,157,l)
);
},
{
closed = 1;
nodes = (
(247,566,l),
(280,598,o),
(321,616,o),
(362,616,cs),
(449,616,o),
(487,520,o),
(487,414,cs),
(487,281,o),
(430,130,o),
(339,130,cs),
(291,130,o),
(247,162,o),
(247,217,cs)
);
},
{
alignment = -1;
pos = (20,0);
ref = I;
}
);
userData = {
com.hugojourdan.ColorFlow = {
"0" = 0;
"1" = 0;
"10" = 0;
"11" = 0;
"2" = 0;
"3" = 0;
"4" = 0;
"5" = 0;
"6" = 0;
"7" = 0;
"8" = 0;
"9" = 0;
};
};
width = 670;
}
);
metricLeft = l;
metricRight = O;
unicode = 222;
}
{
color = 5;
glyphname = germandbls;
kernLeft = f;
kernRight = o;
layers = (
{
anchors = (
{
name = bottom;
pos = (259,0);
},
{
name = top;
pos = (259,500);
}
);
layerId = "452AD06C-4D92-427C-8B35-838986F56274";
shapes = (
{
closed = 1;
nodes = (
(48,-200,l),
(97,-110,o),
(122,-54,o),
(168,0,c),
(167,563,ls),
(167,661,o),
(198,716,o),
(260,717,cs),
(350,718,o),
(406,602,o),
(385,530,cs),
(378,506,o),
(286,437,o),
(251,389,c),
(258,201,o),
(448,235,o),
(469,120,cs),
(481,55,o),
(440,8,o),
(378,8,cs),
(331,8,o),
(279,57,o),
(277,154,c),
(271,154,l),
(271,116,o),
(249,73,o),
(231,51,c),
(257,6,o),
(314,-12,o),
(362,-12,cs),
(455,-12,o),
(522,56,o),
(522,133,cs),
(522,264,o),
(295,272,o),
(295,383,cs),
(295,450,o),
(441,512,o),
(446,538,cs),
(466,643,o),
(387,739,o),
(281,739,cs),
(191,739,o),
(108,682,o),
(108,556,cs),
(108,500,l),
(84,478,l),
(84,468,l),
(108,463,l),
(108,12,ls),
(108,-51,o),
(69,-133,o),
(40,-196,c)
);
}
);
userData = {
com.hugojourdan.ColorFlow = {
"0" = 0;
"1" = 0;
"10" = 0;
"11" = 0;
"2" = 0;
"3" = 0;
"4" = 0;
"5" = 0;
"6" = 0;
"7" = 0;
"8" = 0;
"9" = 0;
};
};
width = 552;
},
{
anchors = (
{
name = bottom;
pos = (251,0);
},
{
name = top;
pos = (251,500);
}
);
layerId = m004;
shapes = (
{
closed = 1;
nodes = (
(54,-184,l),
(122,-100,o),
(182,-48,o),
(278,0,c),
(278,627,ls),
(278,703,o),
(303,736,o),
(351,736,cs),
(416,736,o),
(442,654,o),
(442,572,cs),
(442,482,o),
(397,423,o),
(353,382,c),
(368,185,o),
(600,221,o),
(600,107,cs),
(600,65,o),
(563,45,o),
(525,45,cs),
(473,45,o),
(425,116,o),
(415,205,c),
(390,205,l),
(385,133,o),
(359,96,o),
(316,69,c),
(363,13,o),
(455,-18,o),
(527,-18,cs),
(644,-18,o),
(736,53,o),
(736,165,cs),
(736,346,o),
(469,300,o),
(462,407,cs),
(457,482,o),
(600,471,o),
(603,489,cs),
(630,650,o),
(499,806,o),
(338,804,cs),
(170,802,o),
(103,691,o),
(96,542,cs),
(94,500,l),
(42,442,l),
(48,428,l),
(94,428,l),
(94,52,ls),
(94,-41,o),
(78,-108,o),
(40,-174,c)
);
}
);
userData = {
com.hugojourdan.ColorFlow = {
"0" = 0;
"1" = 0;
"10" = 0;
"11" = 0;
"2" = 0;
"3" = 0;
"4" = 0;
"5" = 0;
"6" = 0;
"7" = 0;
"8" = 0;
"9" = 0;
};
};
width = 756;
},
{
anchors = (
{
name = bottom;
pos = (255,0);
},
{
name = top;
pos = (255,500);
}
);
layerId = "D54810B1-F9A5-4F35-A1FF-AED0599B2373";
shapes = (
{
closed = 1;
nodes = (
(51,-191,l),
(111,-105,o),
(155,-51,o),
(228,0,c),
(228,598,ls),
(228,684,o),
(255,727,o),
(310,727,cs),
(386,728,o),
(426,630,o),
(416,553,c),
(413,493,o),
(347,429,o),
(307,385,c),
(318,192,o),
(531,227,o),
(541,113,cs),
(546,60,o),
(507,28,o),
(458,28,cs),
(409,28,o),
(359,89,o),
(352,182,c),
(336,182,l),
(333,125,o),
(309,86,o),
(277,61,c),
(315,10,o),
(391,-15,o),
(452,-15,cs),
(558,-15,o),
(639,54,o),
(639,151,cs),
(639,309,o),
(390,287,o),
(386,396,cs),
(384,468,o),
(528,490,o),
(532,511,cs),
(556,647,o),
(448,776,o),
(312,775,cs),
(180,773,o),
(105,687,o),
(101,548,cs),
(100,500,l),
(61,458,l),
(64,446,l),
(100,444,l),
(100,34,ls),
(100,-46,o),
(74,-119,o),
(40,-184,c)
);
}
);
userData = {
com.hugojourdan.ColorFlow = {
"0" = 0;
"1" = 0;
"10" = 0;
"11" = 0;
"2" = 0;
"3" = 0;
"4" = 0;
"5" = 0;
"6" = 0;
"7" = 0;
"8" = 0;
"9" = 0;
};
};
width = 669;
}
);
metricRight = s;
unicode = 223;
}
{
glyphname = thorn;
kernLeft = i;
kernRight = o;
layers = (
{
anchors = (
{
name = bottom;
pos = (279,0);
},
{
name = top;
pos = (279,500);
}
);
layerId = "452AD06C-4D92-427C-8B35-838986F56274";
shapes = (
{
closed = 1;
nodes = (
(66,603,l),
(80,579,o),
(88,559,o),
(88,523,cs),
(88,-141,ls),
(88,-211,o),
(88,-268,o),
(60,-317,c),
(69,-323,l),
(162,-188,l),
(152,-153,o),
(152,-137,o),
(152,-101,cs),
(152,25,l),
(195,3,o),
(239,-7,o),
(281,-7,cs),
(411,-7,o),
(523,89,o),
(523,247,cs),
(523,424,o),
(382,506,o),
(247,506,cs),
(214,506,o),
(182,501,o),
(152,492,c),
(152,622,ls),
(152,663,o),
(156,711,o),
(170,748,c),
(163,752,l),
(66,609,l)
);
},
{
closed = 1;
nodes = (
(152,434,l),
(179,458,o),
(228,475,o),
(279,475,cs),
(365,475,o),
(458,426,o),
(458,279,cs),
(458,125,o),
(351,35,o),
(241,35,cs),
(211,35,o),
(180,42,o),
(152,56,c)
);
}
);
userData = {
com.hugojourdan.ColorFlow = {
"0" = 0;
"1" = 0;
"10" = 0;
"11" = 0;
"2" = 0;
"3" = 0;
"4" = 0;
"5" = 0;
"6" = 0;
"7" = 0;
"8" = 0;
"9" = 0;
};
};
width = 553;
},
{
anchors = (
{
name = bottom;
pos = (344,0);
},
{
name = top;
pos = (344,500);
}
);
layerId = m004;
shapes = (
{
closed = 1;
nodes = (
(78,636,l),
(96,618,o),
(104,591,o),
(104,500,cs),
(104,-121,ls),
(104,-215,o),
(88,-247,o),
(50,-313,c),
(64,-323,l),
(292,-139,l),
(289,-106,o),
(288,-73,o),
(288,-41,cs),
(288,18,l),
(327,-3,o),
(368,-12,o),
(409,-12,cs),
(537,-12,o),
(657,83,o),
(657,239,cs),
(657,420,o),
(521,514,o),
(362,514,cs),
(338,514,o),
(313,511,o),
(288,507,c),
(288,657,ls),
(288,719,o),
(291,750,o),
(306,800,c),
(294,808,l),
(78,648,l)
);
},
{
closed = 1;
nodes = (
(288,438,l),
(304,447,o),
(322,451,o),
(341,451,cs),
(403,451,o),
(471,404,o),
(471,307,cs),
(471,215,o),
(428,157,o),
(363,133,cs),
(341,124,o),
(315,120,o),
(288,120,c)
);
}
);
userData = {
com.hugojourdan.ColorFlow = {
"0" = 0;
"1" = 0;
"10" = 0;
"11" = 0;
"2" = 0;
"3" = 0;
"4" = 0;
"5" = 0;
"6" = 0;
"7" = 0;
"8" = 0;
"9" = 0;
};
};
width = 682;
},
{
anchors = (
{
name = bottom;
pos = (300,0);
},
{
name = top;
pos = (300,500);
}
);
layerId = "D54810B1-F9A5-4F35-A1FF-AED0599B2373";
shapes = (
{
closed = 1;
nodes = (
(58,621,l),
(74,600,o),
(82,577,o),
(82,510,cs),
(82,-130,ls),
(82,-213,o),
(73,-257,o),
(40,-315,c),
(52,-323,l),
(219,-161,l),
(212,-127,o),
(212,-102,o),
(212,-68,cs),
(212,21,l),
(253,0,o),
(295,-10,o),
(336,-10,cs),
(465,-10,o),
(582,86,o),
(582,243,cs),
(582,422,o),
(443,510,o),
(295,510,cs),
(267,510,o),
(239,506,o),
(212,500,c),
(212,641,ls),
(212,694,o),
(215,732,o),
(230,776,c),
(220,783,l),
(58,630,l)
);
},
{
closed = 1;
nodes = (
(212,436,l),
(233,452,o),
(265,462,o),
(298,462,cs),
(371,462,o),
(451,414,o),
(451,294,cs),
(451,174,o),
(379,102,o),
(293,89,cs),
(268,84,o),
(239,85,o),
(212,91,c)
);
}
);
userData = {
com.hugojourdan.ColorFlow = {
"0" = 0;
"1" = 0;
"10" = 0;
"11" = 0;
"2" = 0;
"3" = 0;
"4" = 0;
"5" = 0;
"6" = 0;
"7" = 0;
"8" = 0;
"9" = 0;
};
};
width = 612;
}
);
metricLeft = l;
metricRight = o;
unicode = 254;
}
{
glyphname = Eng;
kernLeft = D;
kernRight = N;
layers = (
{
layerId = "452AD06C-4D92-427C-8B35-838986F56274";
shapes = (
{
closed = 1;
nodes = (
(537,-183,l),
(629,-139,o),
(688,-59,o),
(709,-26,c),
(709,15,l),
(636,62,l),
(657,39,o),
(664,18,o),
(664,-3,cs),
(664,-70,o),
(592,-143,o),
(530,-172,c)
);
},
{
alignment = -1;
ref = N;
}
);
userData = {
com.hugojourdan.ColorFlow = {
"0" = 0;
"1" = 0;
"10" = 0;
"11" = 0;
"2" = 0;
"3" = 0;
"4" = 0;
"5" = 0;
"6" = 0;
"7" = 0;
"8" = 0;
"9" = 0;
};
};
width = 765;
},
{
layerId = m004;
shapes = (
{
closed = 1;
nodes = (
(549,-194,l),
(713,-154,o),
(765,-79,o),
(785,-6,c),
(785,35,l),
(614,35,l),
(638,12,o),
(649,-11,o),
(649,-36,cs),
(649,-87,o),
(615,-146,o),
(532,-174,c)
);
},
{
alignment = -1;
ref = N;
}
);
userData = {
com.hugojourdan.ColorFlow = {
"0" = 0;
"1" = 0;
"10" = 0;
"11" = 0;
"2" = 0;
"3" = 0;
"4" = 0;
"5" = 0;
"6" = 0;
"7" = 0;
"8" = 0;
"9" = 0;
};
};
width = 843;
},
{
layerId = "D54810B1-F9A5-4F35-A1FF-AED0599B2373";
shapes = (
{
closed = 1;
nodes = (
(544,-189,l),
(675,-147,o),
(731,-70,o),
(751,-15,c),
(751,26,l),
(624,48,l),
(643,24,o),
(656,2,o),
(656,-21,cs),
(656,-79,o),
(607,-142,o),
(534,-170,c)
);
},
{
alignment = -1;
ref = N;
}
);
userData = {
com.hugojourdan.ColorFlow = {
"0" = 0;
"1" = 0;
"10" = 0;
"11" = 0;
"2" = 0;
"3" = 0;
"4" = 0;
"5" = 0;
"6" = 0;
"7" = 0;
"8" = 0;
"9" = 0;
};
};
width = 807;
}
);
metricLeft = N;
metricRight = N;
unicode = 330;
}
{
color = 5;
glyphname = oe;
kernLeft = o;
kernRight = e;
layers = (
{
layerId = "452AD06C-4D92-427C-8B35-838986F56274";
shapes = (
{
ref = o;
},
{
alignment = -1;
pos = (440,0);
ref = e;
}
);
userData = {
com.hugojourdan.ColorFlow = {
"0" = 0;
"1" = 0;
"10" = 0;
"11" = 0;
"2" = 0;
"3" = 0;
"4" = 0;
"5" = 0;
"6" = 0;
"7" = 0;
"8" = 0;
"9" = 0;
};
};
width = 943;
},
{
background = {
shapes = (
{
closed = 1;
nodes = (
(134,-3,o),
(193,18,o),
(236,60,c),
(209,84,l),
(181,41,o),
(138,21,o),
(93,21,cs),
(-3,21,o),
(-110,114,o),
(-110,282,cs),
(-110,417,o),
(-41,480,o),
(36,480,cs),
(113,480,o),
(196,418,o),
(228,305,c),
(303,305,l),
(279,437,o),
(173,503,o),
(67,503,cs),
(-55,503,o),
(-176,418,o),
(-176,245,cs),
(-176,80,o),
(-47,-3,o),
(74,-3,cs)
);
},
{
closed = 1;
nodes = (
(454,-3,o),
(509,27,o),
(556,97,c),
(550,102,l),
(505,45,o),
(463,22,o),
(402,22,cs),
(278,22,o),
(191,129,o),
(191,282,cs),
(191,297,o),
(192,303,o),
(194,316,c),
(135,316,l),
(129,292,o),
(125,274,o),
(125,245,cs),
(125,101,o),
(230,-3,o),
(376,-3,cs)
);
},
{
closed = 1;
nodes = (
(536,294,l),
(524,316,l),
(420,316,l),
(502,340,o),
(539,375,o),
(539,409,cs),
(539,465,o),
(449,503,o),
(373,503,cs),
(307,503,o),
(241,486,o),
(180,449,c),
(231,425,l),
(266,465,o),
(321,485,o),
(366,485,cs),
(417,485,o),
(470,444,o),
(470,399,cs),
(470,366,o),
(443,333,o),
(384,316,c),
(188,316,l),
(182,294,l)
);
},
{
closed = 1;
nodes = (
(549,284,l),
(530,316,l),
(471,316,l),
(450,294,l),
(492,294,ls),
(514,294,o),
(530,289,o),
(544,281,c)
);
}
);
};
layerId = m004;
shapes = (
{
ref = o;
},
{
alignment = -1;
pos = (363,0);
ref = e;
}
);
userData = {
com.hugojourdan.ColorFlow = {
"0" = 0;
"1" = 0;
"10" = 0;
"11" = 0;
"2" = 0;
"3" = 0;
"4" = 0;
"5" = 0;
"6" = 0;
"7" = 0;
"8" = 0;
"9" = 0;
};
};
width = 891;
},
{
layerId = "D54810B1-F9A5-4F35-A1FF-AED0599B2373";
shapes = (
{
alignment = -1;
ref = o;
},
{
alignment = -1;
pos = (394,0);
ref = e;
}
);
userData = {
com.hugojourdan.ColorFlow = {
"0" = 0;
"1" = 0;
"10" = 0;
"11" = 0;
"2" = 0;
"3" = 0;
"4" = 0;
"5" = 0;
"6" = 0;
"7" = 0;
"8" = 0;
"9" = 0;
};
};
width = 914;
}
);
metricLeft = o;
metricRight = e;
unicode = 339;
}
{
glyphname = tbar;
kernLeft = t;
kernRight = t;
layers = (
{
layerId = "452AD06C-4D92-427C-8B35-838986F56274";
shapes = (
{
closed = 1;
nodes = (
(174,0,l),
(168,20,o),
(166,36,o),
(166,76,cs),
(166,516,ls),
(166,554,o),
(172,692,o),
(186,729,c),
(181,732,l),
(82,588,l),
(82,584,l),
(96,560,o),
(102,540,o),
(102,504,cs),
(102,84,ls),
(102,40,o),
(100,24,o),
(92,0,c)
);
},
{
closed = 1;
nodes = (
(36,459,o),
(59,463,o),
(93,463,cs),
(240,463,l),
(252,502,l),
(240,494,o),
(222,490,o),
(190,490,cs),
(32,490,l),
(20,449,l)
);
},
{
closed = 1;
nodes = (
(36,321,o),
(59,325,o),
(93,325,cs),
(240,325,l),
(252,364,l),
(240,356,o),
(222,352,o),
(190,352,cs),
(32,352,l),
(20,311,l)
);
}
);
userData = {
com.hugojourdan.ColorFlow = {
"0" = 0;
"1" = 0;
"10" = 0;
"11" = 0;
"2" = 0;
"3" = 0;
"4" = 0;
"5" = 0;
"6" = 0;
"7" = 0;
"8" = 0;
"9" = 0;
};
};
width = 272;
},
{
layerId = m004;
shapes = (
{
closed = 1;
nodes = (
(318,0,l),
(305,23,o),
(300,48,o),
(300,84,cs),
(300,469,ls),
(300,558,o),
(302,602,o),
(318,651,c),
(306,659,l),
(90,499,l),
(90,487,l),
(108,469,o),
(116,442,o),
(116,399,cs),
(116,84,ls),
(116,48,o),
(110,24,o),
(96,0,c)
);
},
{
closed = 1;
nodes = (
(36,445,o),
(61,448,o),
(90,448,cs),
(388,448,l),
(400,510,l),
(385,501,o),
(348,500,o),
(312,500,cs),
(34,500,l),
(20,436,l)
);
},
{
closed = 1;
nodes = (
(36,264,o),
(61,267,o),
(90,267,cs),
(388,267,l),
(400,329,l),
(385,320,o),
(348,319,o),
(312,319,cs),
(34,319,l),
(20,255,l)
);
}
);
userData = {
com.hugojourdan.ColorFlow = {
"0" = 0;
"1" = 0;
"10" = 0;
"11" = 0;
"2" = 0;
"3" = 0;
"4" = 0;
"5" = 0;
"6" = 0;
"7" = 0;
"8" = 0;
"9" = 0;
};
};
width = 420;
},
{
layerId = "D54810B1-F9A5-4F35-A1FF-AED0599B2373";
shapes = (
{
closed = 1;
nodes = (
(253,0,l),
(244,22,o),
(240,43,o),
(240,80,cs),
(240,486,ls),
(238,537,o),
(236,696,o),
(249,741,c),
(240,747,l),
(83,587,l),
(83,579,l),
(100,559,o),
(108,535,o),
(110,495,c),
(110,84,ls),
(110,44,o),
(106,24,o),
(95,0,c)
);
},
{
closed = 1;
nodes = (
(36,451,o),
(60,455,o),
(92,455,cs),
(321,455,l),
(333,506,l),
(320,498,o),
(291,495,o),
(257,495,cs),
(33,495,l),
(20,442,l)
);
},
{
closed = 1;
nodes = (
(36,290,o),
(60,293,o),
(92,293,cs),
(321,293,l),
(333,345,l),
(320,336,o),
(291,334,o),
(257,334,cs),
(33,334,l),
(20,280,l)
);
}
);
userData = {
com.hugojourdan.ColorFlow = {
"0" = 0;
"1" = 0;
"10" = 0;
"11" = 0;
"2" = 0;
"3" = 0;
"4" = 0;
"5" = 0;
"6" = 0;
"7" = 0;
"8" = 0;
"9" = 0;
};
};
width = 353;
}
);
metricLeft = t;
metricRight = t;
unicode = 359;
}
{
glyphname = Uring;
kernLeft = D;
kernRight = N;
layers = (
{
anchors = (
{
name = bottom;
pos = (338,0);
},
{
name = ogonek;
pos = (609,10);
},
{
name = top;
pos = (338,873);
},
{
name = topright;
pos = (657,722);
}
);
layerId = "452AD06C-4D92-427C-8B35-838986F56274";
shapes = (
{
closed = 1;
nodes = (
(65,251,ls),
(65,39,o),
(193,-18,o),
(314,-18,cs),
(439,-18,o),
(566,47,o),
(566,273,cs),
(566,633,ls),
(567,678,o),
(571,706,o),
(585,734,c),
(545,735,o),
(500,728,o),
(456,728,cs),
(391,728,o),
(331,748,o),
(331,812,cs),
(331,846,o),
(353,879,o),
(391,879,cs),
(446,879,o),
(461,818,o),
(436,778,c),
(441,775,l),
(472,823,o),
(449,908,o),
(373,908,cs),
(327,908,o),
(293,871,o),
(293,829,cs),
(293,784,o),
(331,734,o),
(435,714,cs),
(497,702,o),
(540,695,o),
(540,633,cs),
(540,267,ls),
(540,74,o),
(433,25,o),
(330,25,cs),
(233,25,o),
(135,60,o),
(135,240,cs),
(135,652,ls),
(135,697,o),
(156,716,o),
(203,716,cs),
(229,716,l),
(229,722,l),
(55,722,l),
(63,698,o),
(65,682,o),
(65,638,cs)
);
}
);
userData = {
com.hugojourdan.ColorFlow = {
"0" = 0;
"1" = 0;
"10" = 0;
"11" = 0;
"2" = 0;
"3" = 0;
"4" = 0;
"5" = 0;
"6" = 0;
"7" = 0;
"8" = 0;
"9" = 0;
};
};
width = 646;
},
{
anchors = (
{
name = bottom;
pos = (338,0);
},
{
name = ogonek;
pos = (609,10);
},
{
name = top;
pos = (338,873);
},
{
name = topright;
pos = (657,722);
}
);
layerId = m004;
shapes = (
{
closed = 1;
nodes = (
(50,250,ls),
(50,33,o),
(201,-28,o),
(357,-29,cs),
(558,-30,o),
(659,94,o),
(659,279,cs),
(659,638,ls),
(659,674,o),
(664,702,o),
(679,722,c),
(624,734,o),
(553,700,o),
(475,715,cs),
(395,730,o),
(350,779,o),
(350,835,cs),
(350,886,o),
(383,908,o),
(414,908,cs),
(475,908,o),
(486,844,o),
(452,802,c),
(463,795,l),
(526,864,o),
(482,1006,o),
(371,1006,cs),
(306,1006,o),
(242,953,o),
(253,870,cs),
(261,811,o),
(312,730,o),
(470,691,cs),
(523,678,o),
(529,648,o),
(529,557,cs),
(529,217,ls),
(529,138,o),
(480,77,o),
(396,77,cs),
(316,77,o),
(250,112,o),
(250,208,cs),
(250,634,ls),
(250,676,o),
(272,698,o),
(312,698,cs),
(332,698,l),
(332,722,l),
(30,722,l),
(44,698,o),
(50,674,o),
(50,638,cs)
);
}
);
userData = {
com.hugojourdan.ColorFlow = {
"0" = 0;
"1" = 0;
"10" = 0;
"11" = 0;
"2" = 0;
"3" = 0;
"4" = 0;
"5" = 0;
"6" = 0;
"7" = 0;
"8" = 0;
"9" = 0;
};
};
width = 709;
},
{
anchors = (
{
name = bottom;
pos = (338,0);
},
{
name = ogonek;
pos = (609,10);
},
{
name = top;
pos = (338,873);
},
{
name = topright;
pos = (657,722);
}
);
layerId = "D54810B1-F9A5-4F35-A1FF-AED0599B2373";
shapes = (
{
closed = 1;
nodes = (
(57,250,ls),
(57,36,o),
(197,-23,o),
(338,-24,cs),
(504,-25,o),
(617,73,o),
(617,276,cs),
(617,636,ls),
(617,676,o),
(622,704,o),
(636,727,c),
(588,734,o),
(529,713,o),
(466,721,cs),
(393,729,o),
(341,765,o),
(341,825,cs),
(341,868,o),
(369,895,o),
(404,895,cs),
(462,895,o),
(475,832,o),
(445,791,c),
(453,786,l),
(502,845,o),
(467,962,o),
(372,962,cs),
(316,962,o),
(265,916,o),
(271,851,cs),
(276,799,o),
(321,732,o),
(454,701,cs),
(511,689,o),
(534,669,o),
(534,591,cs),
(534,240,ls),
(534,109,o),
(459,53,o),
(366,53,cs),
(278,53,o),
(198,88,o),
(198,223,cs),
(198,642,ls),
(198,686,o),
(219,706,o),
(263,706,cs),
(285,706,l),
(285,722,l),
(42,722,l),
(53,698,o),
(57,678,o),
(57,638,cs)
);
}
);
userData = {
com.hugojourdan.ColorFlow = {
"0" = 0;
"1" = 0;
"10" = 0;
"11" = 0;
"2" = 0;
"3" = 0;
"4" = 0;
"5" = 0;
"6" = 0;
"7" = 0;
"8" = 0;
"9" = 0;
};
};
width = 680.45312;
}
);
metricRight = U;
unicode = 366;
}
{
color = 5;
glyphname = florin;
layers = (
{
layerId = "452AD06C-4D92-427C-8B35-838986F56274";
shapes = (
{
closed = 1;
nodes = (
(279,384,l),
(170,384,l),
(154,343,l),
(162,340,l),
(170,353,o),
(185,354,o),
(217,354,cs),
(275,354,l),
(248,141,ls),
(235,41,o),
(211,-19,o),
(148,-19,cs),
(86,-19,o),
(56,32,o),
(78,137,c),
(72,139,l),
(12,46,l),
(47,-14,o),
(94,-38,o),
(151,-38,cs),
(232,-38,o),
(296,27,o),
(312,157,cs),
(337,354,l),
(451,354,l),
(467,395,l),
(459,398,l),
(451,385,o),
(436,384,o),
(404,384,cs),
(341,384,l),
(362,551,ls),
(375,651,o),
(399,711,o),
(462,711,cs),
(524,711,o),
(554,660,o),
(532,555,c),
(538,553,l),
(598,646,l),
(563,706,o),
(516,730,o),
(459,730,cs),
(378,730,o),
(314,665,o),
(298,535,cs)
);
}
);
userData = {
com.hugojourdan.ColorFlow = {
"0" = 0;
"1" = 0;
"10" = 0;
"11" = 0;
"2" = 0;
"3" = 0;
"4" = 0;
"5" = 0;
"6" = 0;
"7" = 0;
"8" = 0;
"9" = 0;
};
};
width = 604;
},
{
layerId = m004;
shapes = (
{
closed = 1;
nodes = (
(276,401,l),
(154,401,l),
(110,309,l),
(127,305,l),
(144,326,o),
(158,331,o),
(196,331,cs),
(266,331,l),
(242,170,ls),
(231,98,o),
(221,58,o),
(173,58,cs),
(123,58,o),
(86,125,o),
(91,225,c),
(74,230,l),
(-12,91,l),
(31,37,o),
(89,0,o),
(192,0,cs),
(340,0,o),
(407,84,o),
(426,212,cs),
(444,331,l),
(567,331,l),
(611,423,l),
(594,427,l),
(577,406,o),
(563,401,o),
(525,401,cs),
(454,401,l),
(476,552,ls),
(487,624,o),
(497,664,o),
(545,664,cs),
(595,664,o),
(628,597,o),
(623,497,c),
(640,492,l),
(730,631,l),
(687,685,o),
(629,722,o),
(526,722,cs),
(378,722,o),
(311,638,o),
(292,510,cs)
);
}
);
userData = {
com.hugojourdan.ColorFlow = {
"0" = 0;
"1" = 0;
"10" = 0;
"11" = 0;
"2" = 0;
"3" = 0;
"4" = 0;
"5" = 0;
"6" = 0;
"7" = 0;
"8" = 0;
"9" = 0;
};
};
width = 740;
},
{
layerId = "D54810B1-F9A5-4F35-A1FF-AED0599B2373";
shapes = (
{
closed = 1;
nodes = (
(277,393,l),
(161,393,l),
(130,324,l),
(143,321,l),
(156,338,o),
(170,341,o),
(206,341,cs),
(270,341,l),
(245,157,ls),
(233,72,o),
(216,23,o),
(162,23,cs),
(106,23,o),
(72,83,o),
(85,185,c),
(73,189,l),
(-1,71,l),
(38,14,o),
(91,-17,o),
(173,-17,cs),
(291,-17,o),
(357,58,o),
(374,187,cs),
(396,341,l),
(514,341,l),
(546,410,l),
(533,414,l),
(520,396,o),
(505,393,o),
(470,393,cs),
(403,393,l),
(424,552,ls),
(436,636,o),
(453,685,o),
(507,685,cs),
(563,685,o),
(594,626,o),
(582,523,c),
(594,520,l),
(670,638,l),
(631,695,o),
(578,726,o),
(496,726,cs),
(378,726,o),
(312,650,o),
(295,521,cs)
);
}
);
userData = {
com.hugojourdan.ColorFlow = {
"0" = 0;
"1" = 0;
"10" = 0;
"11" = 0;
"2" = 0;
"3" = 0;
"4" = 0;
"5" = 0;
"6" = 0;
"7" = 0;
"8" = 0;
"9" = 0;
};
};
width = 678.375;
}
);
unicode = 402;
}
{
color = 9;
glyphname = apostrophemod;
layers = (
{
layerId = "452AD06C-4D92-427C-8B35-838986F56274";
shapes = (
{
closed = 1;
nodes = (
(49,478,l),
(132,722,l),
(63,722,l),
(35,478,l)
);
}
);
userData = {
com.hugojourdan.ColorFlow = {
"0" = 0;
"1" = 0;
"10" = 0;
"11" = 0;
"2" = 0;
"3" = 0;
"4" = 0;
"5" = 0;
"6" = 0;
"7" = 0;
"8" = 0;
"9" = 0;
};
};
width = 600;
},
{
layerId = "D54810B1-F9A5-4F35-A1FF-AED0599B2373";
shapes = (
{
closed = 1;
nodes = (
(55,478,l),
(175,722,l),
(76,722,l),
(35,478,l)
);
}
);
userData = {
com.hugojourdan.ColorFlow = {
"0" = 0;
"1" = 0;
"10" = 0;
"11" = 0;
"2" = 0;
"3" = 0;
"4" = 0;
"5" = 0;
"6" = 0;
"7" = 0;
"8" = 0;
"9" = 0;
};
};
width = 600;
},
{
layerId = m004;
shapes = (
{
closed = 1;
nodes = (
(64,478,l),
(241,722,l),
(95,722,l),
(35,478,l)
);
}
);
userData = {
com.hugojourdan.ColorFlow = {
"0" = 0;
"1" = 0;
"10" = 0;
"11" = 0;
"2" = 0;
"3" = 0;
"4" = 0;
"5" = 0;
"6" = 0;
"7" = 0;
"8" = 0;
"9" = 0;
};
};
width = 600;
}
);
unicode = 700;
}
{
color = 6;
glyphname = circumflex;
layers = (
{
layerId = "452AD06C-4D92-427C-8B35-838986F56274";
shapes = (
{
closed = 1;
nodes = (
(178,611,l),
(325,501,l),
(328,506,l),
(178,691,l),
(28,506,l),
(32,501,l)
);
}
);
userData = {
com.hugojourdan.ColorFlow = {
"0" = 0;
"1" = 0;
"10" = 0;
"11" = 0;
"2" = 0;
"3" = 0;
"4" = 0;
"5" = 0;
"6" = 0;
"7" = 0;
"8" = 0;
"9" = 0;
};
};
width = 354;
},
{
layerId = m004;
shapes = (
{
closed = 1;
nodes = (
(229,599,l),
(383,550,l),
(396,585,l),
(229,719,l),
(62,585,l),
(76,550,l)
);
}
);
userData = {
com.hugojourdan.ColorFlow = {
"0" = 0;
"1" = 0;
"10" = 0;
"11" = 0;
"2" = 0;
"3" = 0;
"4" = 0;
"5" = 0;
"6" = 0;
"7" = 0;
"8" = 0;
"9" = 0;
};
};
width = 438;
},
{
layerId = "D54810B1-F9A5-4F35-A1FF-AED0599B2373";
shapes = (
{
closed = 1;
nodes = (
(206,604,l),
(357,528,l),
(365,549,l),
(206,706,l),
(47,549,l),
(56,528,l)
);
}
);
userData = {
com.hugojourdan.ColorFlow = {
"0" = 0;
"1" = 0;
"10" = 0;
"11" = 0;
"2" = 0;
"3" = 0;
"4" = 0;
"5" = 0;
"6" = 0;
"7" = 0;
"8" = 0;
"9" = 0;
};
};
width = 399.9375;
}
);
unicode = 710;
}
{
color = 6;
glyphname = breve;
layers = (
{
layerId = "452AD06C-4D92-427C-8B35-838986F56274";
shapes = (
{
closed = 1;
nodes = (
(95,620,l),
(112,588,o),
(156,564,o),
(200,564,cs),
(233,564,o),
(267,578,o),
(288,612,c),
(274,629,l),
(262,597,o),
(242,583,o),
(220,583,cs),
(186,583,o),
(147,618,o),
(129,670,c)
);
}
);
userData = {
com.hugojourdan.ColorFlow = {
"0" = 0;
"1" = 0;
"10" = 0;
"11" = 0;
"2" = 0;
"3" = 0;
"4" = 0;
"5" = 0;
"6" = 0;
"7" = 0;
"8" = 0;
"9" = 0;
};
};
width = 374;
},
{
layerId = m004;
shapes = (
{
closed = 1;
nodes = (
(-22,676,l),
(6,613,o),
(83,566,o),
(163,566,cs),
(227,566,o),
(293,597,o),
(334,676,c),
(313,735,l),
(289,683,o),
(249,661,o),
(207,661,cs),
(137,661,o),
(62,722,o),
(51,807,c)
);
}
);
userData = {
com.hugojourdan.ColorFlow = {
"0" = 0;
"1" = 0;
"10" = 0;
"11" = 0;
"2" = 0;
"3" = 0;
"4" = 0;
"5" = 0;
"6" = 0;
"7" = 0;
"8" = 0;
"9" = 0;
};
};
width = 374;
},
{
layerId = "D54810B1-F9A5-4F35-A1FF-AED0599B2373";
shapes = (
{
closed = 1;
nodes = (
(31,651,l),
(54,602,o),
(116,565,o),
(180,565,cs),
(230,565,o),
(281,588,o),
(313,647,c),
(295,687,l),
(277,644,o),
(246,626,o),
(213,626,cs),
(159,626,o),
(101,675,o),
(86,745,c)
);
}
);
userData = {
com.hugojourdan.ColorFlow = {
"0" = 0;
"1" = 0;
"10" = 0;
"11" = 0;
"2" = 0;
"3" = 0;
"4" = 0;
"5" = 0;
"6" = 0;
"7" = 0;
"8" = 0;
"9" = 0;
};
};
width = 374;
}
);
unicode = 728;
}
{
color = 6;
glyphname = tilde;
layers = (
{
layerId = "452AD06C-4D92-427C-8B35-838986F56274";
shapes = (
{
closed = 1;
nodes = (
(67,579,l),
(85,602,o),
(106,609,o),
(134,607,cs),
(192,601,o),
(274,562,o),
(329,560,cs),
(359,557,o),
(393,583,o),
(423,633,c),
(416,637,l),
(398,610,o),
(375,602,o),
(355,603,cs),
(306,607,o),
(217,646,o),
(156,650,cs),
(127,651,o),
(87,628,o),
(60,584,c)
);
}
);
userData = {
com.hugojourdan.ColorFlow = {
"0" = 0;
"1" = 0;
"10" = 0;
"11" = 0;
"2" = 0;
"3" = 0;
"4" = 0;
"5" = 0;
"6" = 0;
"7" = 0;
"8" = 0;
"9" = 0;
};
};
width = 434;
},
{
layerId = m004;
shapes = (
{
closed = 1;
nodes = (
(47,519,l),
(65,562,o),
(97,585,o),
(144,575,cs),
(212,561,o),
(286,514,o),
(351,521,cs),
(401,527,o),
(423,593,o),
(464,677,c),
(444,687,l),
(417,642,o),
(395,640,o),
(355,647,cs),
(296,657,o),
(226,697,o),
(166,690,cs),
(87,681,o),
(47,608,o),
(26,528,c)
);
}
);
userData = {
com.hugojourdan.ColorFlow = {
"0" = 0;
"1" = 0;
"10" = 0;
"11" = 0;
"2" = 0;
"3" = 0;
"4" = 0;
"5" = 0;
"6" = 0;
"7" = 0;
"8" = 0;
"9" = 0;
};
};
width = 434;
},
{
layerId = "D54810B1-F9A5-4F35-A1FF-AED0599B2373";
shapes = (
{
closed = 1;
nodes = (
(56,546,l),
(74,580,o),
(101,596,o),
(139,590,cs),
(203,579,o),
(281,536,o),
(341,539,cs),
(382,541,o),
(409,588,o),
(445,657,c),
(431,664,l),
(408,628,o),
(386,623,o),
(355,627,cs),
(301,634,o),
(222,674,o),
(161,672,cs),
(105,667,o),
(65,617,o),
(41,553,c)
);
}
);
userData = {
com.hugojourdan.ColorFlow = {
"0" = 0;
"1" = 0;
"10" = 0;
"11" = 0;
"2" = 0;
"3" = 0;
"4" = 0;
"5" = 0;
"6" = 0;
"7" = 0;
"8" = 0;
"9" = 0;
};
};
width = 434;
}
);
unicode = 732;
}
{
color = 1;
export = 0;
glyphname = gravecomb;
layers = (
{
anchors = (
{
name = _top;
pos = (123,500);
},
{
name = top;
pos = (123,665);
}
);
layerId = "452AD06C-4D92-427C-8B35-838986F56274";
shapes = (
{
closed = 1;
nodes = (
(238,561,l),
(70,684,l),
(41,635,l),
(234,555,l)
);
}
);
userData = {
com.hugojourdan.ColorFlow = {
"0" = 0;
"1" = 0;
"10" = 0;
"11" = 0;
"2" = 0;
"3" = 0;
"4" = 0;
"5" = 0;
"6" = 0;
"7" = 0;
"8" = 0;
"9" = 0;
};
};
width = 256;
},
{
anchors = (
{
name = _top;
pos = (123,500);
},
{
name = top;
pos = (123,665);
}
);
layerId = m004;
shapes = (
{
closed = 1;
nodes = (
(250,567,l),
(9,744,l),
(-57,615,l),
(232,534,l)
);
}
);
userData = {
com.hugojourdan.ColorFlow = {
"0" = 0;
"1" = 0;
"10" = 0;
"11" = 0;
"2" = 0;
"3" = 0;
"4" = 0;
"5" = 0;
"6" = 0;
"7" = 0;
"8" = 0;
"9" = 0;
};
};
width = 352;
},
{
anchors = (
{
name = _top;
pos = (123,500);
},
{
name = top;
pos = (123,665);
}
);
layerId = "D54810B1-F9A5-4F35-A1FF-AED0599B2373";
shapes = (
{
closed = 1;
nodes = (
(247,589,l),
(60,699,l),
(30,603,l),
(238,568,l)
);
}
);
userData = {
com.hugojourdan.ColorFlow = {
"0" = 0;
"1" = 0;
"10" = 0;
"11" = 0;
"2" = 0;
"3" = 0;
"4" = 0;
"5" = 0;
"6" = 0;
"7" = 0;
"8" = 0;
"9" = 0;
};
};
width = 308.5;
}
);
unicode = 768;
}
{
color = 2;
export = 0;
glyphname = circumflexcomb;
layers = (
{
anchors = (
{
name = _top;
pos = (177,512);
},
{
name = top;
pos = (177,667);
}
);
layerId = "452AD06C-4D92-427C-8B35-838986F56274";
shapes = (
{
closed = 1;
nodes = (
(178,660,l),
(308,560,l),
(313,565,l),
(178,731,l),
(43,565,l),
(48,560,l)
);
}
);
userData = {
com.hugojourdan.ColorFlow = {
"0" = 0;
"1" = 0;
"10" = 0;
"11" = 0;
"2" = 0;
"3" = 0;
"4" = 0;
"5" = 0;
"6" = 0;
"7" = 0;
"8" = 0;
"9" = 0;
};
};
width = 392;
},
{
anchors = (
{
name = _top;
pos = (229,500);
},
{
name = top;
pos = (229,665);
}
);
layerId = m004;
shapes = (
{
closed = 1;
nodes = (
(229,599,l),
(383,550,l),
(396,585,l),
(229,719,l),
(62,585,l),
(76,550,l)
);
}
);
userData = {
com.hugojourdan.ColorFlow = {
"0" = 0;
"1" = 0;
"10" = 0;
"11" = 0;
"2" = 0;
"3" = 0;
"4" = 0;
"5" = 0;
"6" = 0;
"7" = 0;
"8" = 0;
"9" = 0;
};
};
width = 420;
},
{
anchors = (
{
name = _top;
pos = (206,505);
},
{
name = top;
pos = (206,666);
}
);
layerId = "D54810B1-F9A5-4F35-A1FF-AED0599B2373";
shapes = (
{
closed = 1;
nodes = (
(206,627,l),
(349,555,l),
(358,576,l),
(206,724,l),
(53,576,l),
(63,555,l)
);
}
);
userData = {
com.hugojourdan.ColorFlow = {
"0" = 0;
"1" = 0;
"10" = 0;
"11" = 0;
"2" = 0;
"3" = 0;
"4" = 0;
"5" = 0;
"6" = 0;
"7" = 0;
"8" = 0;
"9" = 0;
};
};
width = 407.3125;
}
);
unicode = 770;
}
{
color = 3;
export = 0;
glyphname = tildecomb;
layers = (
{
anchors = (
{
name = _top;
pos = (224,500);
},
{
name = top;
pos = (224,605);
}
);
layerId = "452AD06C-4D92-427C-8B35-838986F56274";
shapes = (
{
closed = 1;
nodes = (
(67,579,l),
(85,602,o),
(106,609,o),
(134,607,cs),
(192,601,o),
(274,562,o),
(329,560,cs),
(359,557,o),
(393,583,o),
(423,633,c),
(416,637,l),
(398,610,o),
(375,602,o),
(355,603,cs),
(306,607,o),
(217,646,o),
(156,650,cs),
(127,651,o),
(87,628,o),
(60,584,c)
);
}
);
userData = {
com.hugojourdan.ColorFlow = {
"0" = 0;
"1" = 0;
"10" = 0;
"11" = 0;
"2" = 0;
"3" = 0;
"4" = 0;
"5" = 0;
"6" = 0;
"7" = 0;
"8" = 0;
"9" = 0;
};
};
width = 434;
},
{
anchors = (
{
name = _top;
pos = (213,500);
},
{
name = top;
pos = (213,605);
}
);
layerId = m004;
shapes = (
{
closed = 1;
nodes = (
(102,562,l),
(121,602,o),
(154,623,o),
(203,614,cs),
(273,601,o),
(350,557,o),
(417,564,cs),
(469,569,o),
(509,631,o),
(534,708,c),
(513,718,l),
(485,676,o),
(463,674,o),
(421,681,cs),
(360,690,o),
(288,727,o),
(225,721,cs),
(144,712,o),
(106,657,o),
(81,570,c)
);
}
);
userData = {
com.hugojourdan.ColorFlow = {
"0" = 0;
"1" = 0;
"10" = 0;
"11" = 0;
"2" = 0;
"3" = 0;
"4" = 0;
"5" = 0;
"6" = 0;
"7" = 0;
"8" = 0;
"9" = 0;
};
};
width = 505;
},
{
anchors = (
{
name = _top;
pos = (218,500);
},
{
name = top;
pos = (218,605);
}
);
layerId = "D54810B1-F9A5-4F35-A1FF-AED0599B2373";
shapes = (
{
closed = 1;
nodes = (
(86,570,l),
(105,602,o),
(132,617,o),
(172,611,cs),
(236,601,o),
(316,559,o),
(377,562,cs),
(419,564,o),
(456,602,o),
(484,674,c),
(469,681,l),
(446,646,o),
(423,641,o),
(391,646,cs),
(336,652,o),
(256,690,o),
(194,689,c),
(136,684,o),
(95,637,o),
(71,576,c)
);
}
);
userData = {
com.hugojourdan.ColorFlow = {
"0" = 0;
"1" = 0;
"10" = 0;
"11" = 0;
"2" = 0;
"3" = 0;
"4" = 0;
"5" = 0;
"6" = 0;
"7" = 0;
"8" = 0;
"9" = 0;
};
};
width = 472.82812;
}
);
unicode = 771;
}
{
color = 1;
export = 0;
glyphname = hungarumlautcomb;
layers = (
{
anchors = (
{
name = _top;
pos = (223,500);
},
{
name = top;
pos = (223,695);
}
);
layerId = "452AD06C-4D92-427C-8B35-838986F56274";
shapes = (
{
closed = 1;
nodes = (
(268,606,l),
(239,655,l),
(71,532,l),
(75,526,l)
);
},
{
closed = 1;
nodes = (
(414,568,l),
(400,623,l),
(204,551,l),
(206,544,l)
);
}
);
userData = {
com.hugojourdan.ColorFlow = {
"0" = 0;
"1" = 0;
"10" = 0;
"11" = 0;
"2" = 0;
"3" = 0;
"4" = 0;
"5" = 0;
"6" = 0;
"7" = 0;
"8" = 0;
"9" = 0;
};
};
width = 434;
},
{
anchors = (
{
name = _top;
pos = (223,500);
},
{
name = top;
pos = (223,695);
}
);
layerId = m004;
shapes = (
{
closed = 1;
nodes = (
(299,670,l),
(284,782,l),
(9,627,l),
(23,578,l)
);
},
{
closed = 1;
nodes = (
(412,568,l),
(417,680,l),
(116,585,l),
(116,535,l)
);
}
);
userData = {
com.hugojourdan.ColorFlow = {
"0" = 0;
"1" = 0;
"10" = 0;
"11" = 0;
"2" = 0;
"3" = 0;
"4" = 0;
"5" = 0;
"6" = 0;
"7" = 0;
"8" = 0;
"9" = 0;
};
};
width = 434;
},
{
anchors = (
{
name = _top;
pos = (223,500);
},
{
name = top;
pos = (223,695);
}
);
layerId = "D54810B1-F9A5-4F35-A1FF-AED0599B2373";
shapes = (
{
closed = 1;
nodes = (
(285,641,l),
(264,724,l),
(37,584,l),
(47,554,l)
);
},
{
closed = 1;
nodes = (
(413,568,l),
(409,654,l),
(156,570,l),
(157,539,l)
);
}
);
userData = {
com.hugojourdan.ColorFlow = {
"0" = 0;
"1" = 0;
"10" = 0;
"11" = 0;
"2" = 0;
"3" = 0;
"4" = 0;
"5" = 0;
"6" = 0;
"7" = 0;
"8" = 0;
"9" = 0;
};
};
width = 434;
}
);
unicode = 779;
}
{
color = 2;
export = 0;
glyphname = caroncomb;
layers = (
{
anchors = (
{
name = _top;
pos = (196,500);
},
{
name = top;
pos = (196,695);
}
);
layerId = "452AD06C-4D92-427C-8B35-838986F56274";
shapes = (
{
closed = 1;
nodes = (
(237,530,l),
(362,689,l),
(358,694,l),
(196,563,l),
(34,694,l),
(30,689,l),
(155,530,l)
);
}
);
userData = {
com.hugojourdan.ColorFlow = {
"0" = 0;
"1" = 0;
"10" = 0;
"11" = 0;
"2" = 0;
"3" = 0;
"4" = 0;
"5" = 0;
"6" = 0;
"7" = 0;
"8" = 0;
"9" = 0;
};
};
width = 385;
},
{
anchors = (
{
name = _top;
pos = (196,500);
},
{
name = top;
pos = (196,695);
}
);
layerId = m004;
shapes = (
{
closed = 1;
nodes = (
(281,560,l),
(446,714,l),
(433,749,l),
(229,670,l),
(25,749,l),
(11,714,l),
(177,560,l)
);
}
);
userData = {
com.hugojourdan.ColorFlow = {
"0" = 0;
"1" = 0;
"10" = 0;
"11" = 0;
"2" = 0;
"3" = 0;
"4" = 0;
"5" = 0;
"6" = 0;
"7" = 0;
"8" = 0;
"9" = 0;
};
};
width = 497;
},
{
anchors = (
{
name = _top;
pos = (196,500);
},
{
name = top;
pos = (196,695);
}
);
layerId = "D54810B1-F9A5-4F35-A1FF-AED0599B2373";
shapes = (
{
closed = 1;
nodes = (
(261,546,l),
(408,703,l),
(399,724,l),
(214,622,l),
(29,724,l),
(20,703,l),
(167,546,l)
);
}
);
userData = {
com.hugojourdan.ColorFlow = {
"0" = 0;
"1" = 0;
"10" = 0;
"11" = 0;
"2" = 0;
"3" = 0;
"4" = 0;
"5" = 0;
"6" = 0;
"7" = 0;
"8" = 0;
"9" = 0;
};
};
width = 446.25;
}
);
unicode = 780;
}
{
color = 4;
export = 0;
glyphname = commaturnedabovecomb;
layers = (
{
anchors = (
{
name = _top;
pos = (109,500);
},
{
name = top;
pos = (109,818);
}
);
layerId = "452AD06C-4D92-427C-8B35-838986F56274";
shapes = (
{
closed = 1;
nodes = (
(127,566,o),
(133,584,o),
(131,598,cs),
(128,620,o),
(98,649,o),
(107,705,cs),
(111,730,o),
(128,753,o),
(160,772,c),
(156,782,l),
(93,748,o),
(69,683,o),
(69,632,cs),
(69,590,o),
(86,561,o),
(109,564,cs)
);
}
);
userData = {
com.hugojourdan.ColorFlow = {
"0" = 0;
"1" = 0;
"10" = 0;
"11" = 0;
"2" = 0;
"3" = 0;
"4" = 0;
"5" = 0;
"6" = 0;
"7" = 0;
"8" = 0;
"9" = 0;
};
};
width = 210;
},
{
anchors = (
{
name = _top;
pos = (109,500);
},
{
name = top;
pos = (109,818);
}
);
layerId = m004;
shapes = (
{
closed = 1;
nodes = (
(111,583,o),
(137,605,o),
(137,635,cs),
(137,680,o),
(101,711,o),
(101,753,cs),
(101,782,o),
(116,811,o),
(142,834,c),
(136,843,l),
(71,808,o),
(25,727,o),
(25,663,cs),
(25,607,o),
(55,583,o),
(83,583,cs)
);
}
);
userData = {
com.hugojourdan.ColorFlow = {
"0" = 0;
"1" = 0;
"10" = 0;
"11" = 0;
"2" = 0;
"3" = 0;
"4" = 0;
"5" = 0;
"6" = 0;
"7" = 0;
"8" = 0;
"9" = 0;
};
};
width = 210;
},
{
anchors = (
{
name = _top;
pos = (109,500);
},
{
name = top;
pos = (109,818);
}
);
layerId = "D54810B1-F9A5-4F35-A1FF-AED0599B2373";
shapes = (
{
closed = 1;
nodes = (
(118,575,o),
(135,595,o),
(134,618,cs),
(133,653,o),
(100,683,o),
(104,731,cs),
(106,758,o),
(121,785,o),
(150,806,c),
(145,815,l),
(81,781,o),
(45,707,o),
(45,649,cs),
(45,599,o),
(69,573,o),
(95,574,cs)
);
}
);
userData = {
com.hugojourdan.ColorFlow = {
"0" = 0;
"1" = 0;
"10" = 0;
"11" = 0;
"2" = 0;
"3" = 0;
"4" = 0;
"5" = 0;
"6" = 0;
"7" = 0;
"8" = 0;
"9" = 0;
};
};
width = 210;
}
);
unicode = 786;
}
{
color = 4;
export = 0;
glyphname = commaaccentcomb;
layers = (
{
anchors = (
{
name = _bottom;
pos = (126,0);
},
{
name = bottom;
pos = (126,-147);
}
);
layerId = "452AD06C-4D92-427C-8B35-838986F56274";
shapes = (
{
closed = 1;
nodes = (
(81,-154,l),
(149,-133,o),
(202,-69,o),
(202,-19,cs),
(202,14,o),
(177,39,o),
(112,38,c),
(101,12,o),
(83,-3,o),
(49,-6,c),
(49,-14,l),
(128,-4,o),
(153,-36,o),
(153,-62,cs),
(153,-92,o),
(119,-131,o),
(77,-147,c)
);
}
);
userData = {
com.hugojourdan.ColorFlow = {
"0" = 0;
"1" = 0;
"10" = 0;
"11" = 0;
"2" = 0;
"3" = 0;
"4" = 0;
"5" = 0;
"6" = 0;
"7" = 0;
"8" = 0;
"9" = 0;
};
};
width = 257;
},
{
anchors = (
{
name = _bottom;
pos = (114,0);
},
{
name = bottom;
pos = (114,-147);
}
);
layerId = m004;
shapes = (
{
closed = 1;
nodes = (
(62,-313,l),
(175,-256,o),
(254,-139,o),
(254,-52,cs),
(254,14,o),
(208,61,o),
(98,51,c),
(90,7,o),
(73,-26,o),
(5,-31,c),
(5,-57,l),
(97,-46,o),
(140,-91,o),
(140,-149,cs),
(140,-196,o),
(111,-253,o),
(47,-290,c)
);
}
);
userData = {
com.hugojourdan.ColorFlow = {
"0" = 0;
"1" = 0;
"10" = 0;
"11" = 0;
"2" = 0;
"3" = 0;
"4" = 0;
"5" = 0;
"6" = 0;
"7" = 0;
"8" = 0;
"9" = 0;
};
};
width = 264;
},
{
anchors = (
{
name = _bottom;
pos = (119,0);
},
{
name = bottom;
pos = (119,-147);
}
);
layerId = "D54810B1-F9A5-4F35-A1FF-AED0599B2373";
shapes = (
{
closed = 1;
nodes = (
(66,-249,l),
(159,-208,o),
(226,-115,o),
(226,-45,cs),
(226,6,o),
(190,43,o),
(100,37,c),
(91,1,o),
(73,-24,o),
(21,-28,c),
(21,-46,l),
(107,-35,o),
(142,-74,o),
(142,-118,cs),
(142,-157,o),
(110,-206,o),
(56,-233,c)
);
}
);
userData = {
com.hugojourdan.ColorFlow = {
"0" = 0;
"1" = 0;
"10" = 0;
"11" = 0;
"2" = 0;
"3" = 0;
"4" = 0;
"5" = 0;
"6" = 0;
"7" = 0;
"8" = 0;
"9" = 0;
};
};
width = 260.82812;
}
);
unicode = 806;
}
{
color = 5;
glyphname = "Dje-cy";
kernLeft = T;
kernRight = h;
layers = (
{
layerId = "452AD06C-4D92-427C-8B35-838986F56274";
shapes = (
{
ref = T;
},
{
closed = 1;
nodes = (
(499,-76,l),
(622,28,o),
(709,189,o),
(709,312,cs),
(709,441,o),
(624,507,o),
(521,507,cs),
(464,507,o),
(402,487,o),
(345,446,c),
(355,366,l),
(378,440,o),
(445,486,o),
(513,486,cs),
(596,486,o),
(641,412,o),
(641,300,cs),
(641,172,o),
(582,22,o),
(490,-70,c)
);
}
);
userData = {
com.hugojourdan.ColorFlow = {
"0" = 0;
"1" = 0;
"10" = 0;
"11" = 0;
"2" = 0;
"3" = 0;
"4" = 0;
"5" = 0;
"6" = 0;
"7" = 0;
"8" = 0;
"9" = 0;
};
};
width = 739;
},
{
layerId = "D54810B1-F9A5-4F35-A1FF-AED0599B2373";
shapes = (
{
ref = T;
},
{
closed = 1;
nodes = (
(518,-112,l),
(659,-19,o),
(759,143,o),
(759,279,cs),
(759,401,o),
(679,477,o),
(575,477,cs),
(517,477,o),
(451,453,o),
(407,414,c),
(411,349,l),
(431,389,o),
(472,415,o),
(512,415,cs),
(583,415,o),
(624,340,o),
(624,225,cs),
(624,103,o),
(579,-28,o),
(509,-104,c)
);
}
);
userData = {
com.hugojourdan.ColorFlow = {
"0" = 0;
"1" = 0;
"10" = 0;
"11" = 0;
"2" = 0;
"3" = 0;
"4" = 0;
"5" = 0;
"6" = 0;
"7" = 0;
"8" = 0;
"9" = 0;
};
};
width = 789;
},
{
layerId = m004;
shapes = (
{
ref = T;
},
{
closed = 1;
nodes = (
(538,-148,l),
(686,-73,o),
(791,74,o),
(791,206,cs),
(791,311,o),
(720,386,o),
(620,386,cs),
(562,386,o),
(498,362,o),
(465,328,c),
(465,281,l),
(481,292,o),
(500,299,o),
(517,299,cs),
(574,299,o),
(610,232,o),
(610,126,cs),
(610,21,o),
(579,-83,o),
(529,-139,c)
);
}
);
userData = {
com.hugojourdan.ColorFlow = {
"0" = 0;
"1" = 0;
"10" = 0;
"11" = 0;
"2" = 0;
"3" = 0;
"4" = 0;
"5" = 0;
"6" = 0;
"7" = 0;
"8" = 0;
"9" = 0;
};
};
width = 811;
}
);
metricLeft = T;
metricRight = h;
unicode = 1026;
}
{
color = 5;
glyphname = "Yi-cy";
kernLeft = D;
kernRight = I;
layers = (
{
anchors = (
{
name = top;
pos = (121.921,874.221);
}
);
layerId = "452AD06C-4D92-427C-8B35-838986F56274";
shapes = (
{
ref = I;
},
{
closed = 1;
nodes = (
(71,782,o),
(89,799,o),
(89,820,cs),
(89,841,o),
(71,858,o),
(51,858,cs),
(30,858,o),
(12,841,o),
(12,820,cs),
(12,799,o),
(30,782,o),
(51,782,cs)
);
},
{
closed = 1;
nodes = (
(181,782,o),
(198,799,o),
(198,820,cs),
(198,841,o),
(181,858,o),
(160,858,cs),
(139,858,o),
(122,841,o),
(122,820,cs),
(122,799,o),
(139,782,o),
(160,782,cs)
);
}
);
userData = {
com.hugojourdan.ColorFlow = {
"0" = 0;
"1" = 0;
"10" = 0;
"11" = 0;
"2" = 0;
"3" = 0;
"4" = 0;
"5" = 0;
"6" = 0;
"7" = 0;
"8" = 0;
"9" = 0;
};
};
width = 220;
},
{
anchors = (
{
name = top;
pos = (133.3,803.375);
}
);
layerId = "D54810B1-F9A5-4F35-A1FF-AED0599B2373";
shapes = (
{
ref = I;
},
{
closed = 1;
nodes = (
(99,807,o),
(123,831,o),
(123,860,cs),
(123,890,o),
(99,914,o),
(70,914,cs),
(40,914,o),
(17,890,o),
(17,860,cs),
(17,831,o),
(40,807,o),
(70,807,cs)
);
},
{
closed = 1;
nodes = (
(236,807,o),
(260,831,o),
(260,860,cs),
(260,890,o),
(236,914,o),
(206,914,cs),
(177,914,o),
(153,890,o),
(153,860,cs),
(153,831,o),
(177,807,o),
(206,807,cs)
);
}
);
userData = {
com.hugojourdan.ColorFlow = {
"0" = 0;
"1" = 0;
"10" = 0;
"11" = 0;
"2" = 0;
"3" = 0;
"4" = 0;
"5" = 0;
"6" = 0;
"7" = 0;
"8" = 0;
"9" = 0;
};
};
width = 289;
},
{
anchors = (
{
name = top;
pos = (127,806);
}
);
layerId = m004;
shapes = (
{
ref = I;
},
{
closed = 1;
nodes = (
(107,787,o),
(138,818,o),
(138,858,cs),
(138,897,o),
(107,928,o),
(69,928,cs),
(28,928,o),
(-3,897,o),
(-3,858,cs),
(-3,818,o),
(28,787,o),
(69,787,cs)
);
},
{
closed = 1;
nodes = (
(283,787,o),
(314,818,o),
(314,858,cs),
(314,897,o),
(283,928,o),
(243,928,cs),
(204,928,o),
(173,897,o),
(173,858,cs),
(173,818,o),
(204,787,o),
(243,787,cs)
);
}
);
userData = {
com.hugojourdan.ColorFlow = {
"0" = 0;
"1" = 0;
"10" = 0;
"11" = 0;
"2" = 0;
"3" = 0;
"4" = 0;
"5" = 0;
"6" = 0;
"7" = 0;
"8" = 0;
"9" = 0;
};
};
width = 336;
}
);
unicode = 1031;
}
{
color = 5;
glyphname = "Lje-cy";
kernRight = o;
layers = (
{
layerId = "452AD06C-4D92-427C-8B35-838986F56274";
shapes = (
{
closed = 1;
nodes = (
(618,0,ls),
(798,0,o),
(983,58,o),
(983,259,cs),
(983,443,o),
(827,524,o),
(594,500,c),
(594,493,l),
(804,507,o),
(913,415,o),
(913,254,cs),
(913,77,o),
(794,22,o),
(575,24,c),
(575,612,ls),
(574,672,o),
(575,697,o),
(583,722,c),
(197,722,l),
(197,716,l),
(217,716,ls),
(252,716,o),
(267,703,o),
(266,663,cs),
(265,571,o),
(261,440,o),
(247,330,cs),
(234,225,o),
(207,60,o),
(84,60,cs),
(61,60,o),
(43,63,o),
(24,71,c),
(20,67,l),
(47,-13,l),
(219,-13,o),
(257,179,o),
(274,333,cs),
(288,453,o),
(294,588,o),
(295,698,c),
(505,698,l),
(505,84,ls),
(505,40,o),
(503,24,o),
(495,0,c)
);
}
);
userData = {
com.hugojourdan.ColorFlow = {
"0" = 0;
"1" = 0;
"10" = 0;
"11" = 0;
"2" = 0;
"3" = 0;
"4" = 0;
"5" = 0;
"6" = 0;
"7" = 0;
"8" = 0;
"9" = 0;
};
};
width = 1013;
},
{
layerId = "D54810B1-F9A5-4F35-A1FF-AED0599B2373";
shapes = (
{
closed = 1;
nodes = (
(720,0,ls),
(935,0,o),
(1046,98,o),
(1046,250,cs),
(1046,437,o),
(875,489,o),
(680,480,c),
(680,460,l),
(838,457,o),
(899,371,o),
(899,247,cs),
(899,119,o),
(823,45,o),
(654,43,c),
(654,584,ls),
(654,647,o),
(655,684,o),
(665,722,c),
(202,722,l),
(202,706,l),
(224,706,ls),
(259,706,o),
(277,689,o),
(277,644,cs),
(277,562,o),
(277,421,o),
(253,291,cs),
(230,171,o),
(187,70,o),
(103,70,cs),
(81,70,o),
(65,73,o),
(41,83,c),
(30,74,l),
(59,-23,l),
(246,-28,o),
(286,166,o),
(303,323,cs),
(316,437,o),
(320,575,o),
(321,680,c),
(518,680,l),
(518,84,ls),
(518,44,o),
(514,24,o),
(503,0,c)
);
}
);
userData = {
com.hugojourdan.ColorFlow = {
"0" = 0;
"1" = 0;
"10" = 0;
"11" = 0;
"2" = 0;
"3" = 0;
"4" = 0;
"5" = 0;
"6" = 0;
"7" = 0;
"8" = 0;
"9" = 0;
};
};
width = 1076;
},
{
layerId = m004;
shapes = (
{
closed = 1;
nodes = (
(756,0,ls),
(957,0,o),
(1113,84,o),
(1113,249,cs),
(1113,413,o),
(979,483,o),
(742,477,c),
(742,437,l),
(862,430,o),
(913,363,o),
(916,260,cs),
(919,142,o),
(863,72,o),
(727,70,c),
(727,590,ls),
(727,655,o),
(727,690,o),
(738,722,c),
(238,722,l),
(238,697,l),
(276,697,ls),
(305,697,o),
(317,682,o),
(317,641,cs),
(317,515,o),
(309,361,o),
(273,261,cs),
(246,189,o),
(202,134,o),
(123,134,cs),
(94,134,o),
(65,144,o),
(40,165,c),
(20,152,l),
(65,-6,l),
(238,-22,o),
(309,78,o),
(346,227,cs),
(376,348,o),
(385,512,o),
(387,652,c),
(537,652,l),
(537,84,ls),
(537,48,o),
(531,24,o),
(517,0,c)
);
}
);
userData = {
com.hugojourdan.ColorFlow = {
"0" = 0;
"1" = 0;
"10" = 0;
"11" = 0;
"2" = 0;
"3" = 0;
"4" = 0;
"5" = 0;
"6" = 0;
"7" = 0;
"8" = 0;
"9" = 0;
};
};
width = 1138;
}
);
metricRight = o;
unicode = 1033;
}
{
color = 5;
glyphname = "Dzhe-cy";
layers = (
{
layerId = "452AD06C-4D92-427C-8B35-838986F56274";
shapes = (
{
closed = 1;
nodes = (
(281,0,ls),
(327,-2,o),
(352,-17,o),
(352,-124,c),
(358,-124,l),
(358,-17,o),
(383,-2,o),
(429,0,cs),
(633,0,l),
(622,29,o),
(622,57,o),
(622,86,cs),
(622,608,ls),
(622,668,o),
(623,692,o),
(625,722,c),
(480,722,l),
(480,716,l),
(500,716,ls),
(536,716,o),
(552,697,o),
(552,652,cs),
(552,24,l),
(162,24,l),
(162,608,ls),
(162,668,o),
(163,692,o),
(165,722,c),
(20,722,l),
(20,716,l),
(40,716,ls),
(76,716,o),
(92,697,o),
(92,652,cs),
(92,103,ls),
(92,60,o),
(89,24,o),
(78,0,c)
);
}
);
userData = {
com.hugojourdan.ColorFlow = {
"0" = 0;
"1" = 0;
"10" = 0;
"11" = 0;
"2" = 0;
"3" = 0;
"4" = 0;
"5" = 0;
"6" = 0;
"7" = 0;
"8" = 0;
"9" = 0;
};
};
width = 683;
},
{
layerId = "D54810B1-F9A5-4F35-A1FF-AED0599B2373";
shapes = (
{
closed = 1;
nodes = (
(259,0,ls),
(334,0,o),
(363,-2,o),
(363,-130,c),
(381,-130,l),
(380,-2,o),
(407,0,o),
(484,0,cs),
(667,0,l),
(653,28,o),
(653,57,o),
(653,100,cs),
(653,602,ls),
(653,658,o),
(655,689,o),
(658,722,c),
(447,722,l),
(447,706,l),
(465,706,ls),
(500,706,o),
(517,686,o),
(517,642,cs),
(517,42,l),
(226,42,l),
(226,602,ls),
(226,658,o),
(228,689,o),
(231,722,c),
(20,722,l),
(20,706,l),
(38,706,ls),
(73,706,o),
(90,686,o),
(90,642,cs),
(90,84,ls),
(90,44,o),
(86,24,o),
(75,0,c)
);
}
);
userData = {
com.hugojourdan.ColorFlow = {
"0" = 0;
"1" = 0;
"10" = 0;
"11" = 0;
"2" = 0;
"3" = 0;
"4" = 0;
"5" = 0;
"6" = 0;
"7" = 0;
"8" = 0;
"9" = 0;
};
};
width = 717;
},
{
layerId = m004;
shapes = (
{
closed = 1;
nodes = (
(297,0,ls),
(376,0,o),
(403,-6,o),
(402,-131,c),
(426,-131,l),
(425,-6,o),
(449,0,o),
(530,0,cs),
(755,0,l),
(740,36,o),
(740,72,o),
(740,130,cs),
(740,596,ls),
(740,650,o),
(742,688,o),
(747,722,c),
(482,722,l),
(482,698,l),
(498,698,ls),
(532,698,o),
(550,676,o),
(550,634,cs),
(550,70,l),
(278,70,l),
(278,596,ls),
(278,650,o),
(280,688,o),
(285,722,c),
(20,722,l),
(20,698,l),
(36,698,ls),
(70,698,o),
(88,676,o),
(88,634,cs),
(88,84,ls),
(88,48,o),
(82,24,o),
(68,0,c)
);
}
);
userData = {
com.hugojourdan.ColorFlow = {
"0" = 0;
"1" = 0;
"10" = 0;
"11" = 0;
"2" = 0;
"3" = 0;
"4" = 0;
"5" = 0;
"6" = 0;
"7" = 0;
"8" = 0;
"9" = 0;
};
};
width = 795;
}
);
metricRight = I;
unicode = 1039;
}
{
color = 5;
glyphname = "Be-cy";
kernLeft = D;
kernRight = B;
layers = (
{
layerId = "452AD06C-4D92-427C-8B35-838986F56274";
shapes = (
{
closed = 1;
nodes = (
(204,0,ls),
(384,0,o),
(569,58,o),
(569,256,cs),
(569,439,o),
(400,508,o),
(197,497,c),
(197,490,l),
(377,491,o),
(499,411,o),
(499,251,cs),
(499,77,o),
(384,22,o),
(167,24,c),
(167,698,l),
(294,698,ls),
(402,698,o),
(447,680,o),
(487,574,c),
(494,576,l),
(461,722,l),
(25,722,l),
(25,716,l),
(45,716,ls),
(81,716,o),
(97,697,o),
(97,652,cs),
(97,84,ls),
(97,40,o),
(95,24,o),
(87,0,c)
);
}
);
userData = {
com.hugojourdan.ColorFlow = {
"0" = 0;
"1" = 0;
"10" = 0;
"11" = 0;
"2" = 0;
"3" = 0;
"4" = 0;
"5" = 0;
"6" = 0;
"7" = 0;
"8" = 0;
"9" = 0;
};
};
width = 599;
},
{
layerId = "D54810B1-F9A5-4F35-A1FF-AED0599B2373";
shapes = (
{
closed = 1;
nodes = (
(292,0,ls),
(507,0,o),
(618,98,o),
(618,250,cs),
(618,437,o),
(447,489,o),
(252,480,c),
(252,460,l),
(410,457,o),
(471,371,o),
(471,247,cs),
(471,121,o),
(398,47,o),
(233,43,c),
(233,680,l),
(275,680,ls),
(414,680,o),
(497,618,o),
(525,492,c),
(538,495,l),
(503,722,l),
(27,722,l),
(27,706,l),
(45,706,ls),
(80,706,o),
(97,686,o),
(97,642,cs),
(97,84,ls),
(97,44,o),
(93,24,o),
(82,0,c)
);
}
);
userData = {
com.hugojourdan.ColorFlow = {
"0" = 0;
"1" = 0;
"10" = 0;
"11" = 0;
"2" = 0;
"3" = 0;
"4" = 0;
"5" = 0;
"6" = 0;
"7" = 0;
"8" = 0;
"9" = 0;
};
};
width = 655;
},
{
layerId = m004;
shapes = (
{
closed = 1;
nodes = (
(302,0,ls),
(503,0,o),
(659,84,o),
(659,249,cs),
(659,413,o),
(525,483,o),
(288,477,c),
(288,437,l),
(408,430,o),
(459,365,o),
(459,261,cs),
(459,141,o),
(407,70,o),
(278,70,c),
(278,652,l),
(323,652,ls),
(483,652,o),
(540,597,o),
(580,457,c),
(602,464,l),
(549,722,l),
(20,722,l),
(20,698,l),
(36,698,ls),
(70,698,o),
(88,676,o),
(88,634,cs),
(88,84,ls),
(88,48,o),
(82,24,o),
(68,0,c)
);
}
);
userData = {
com.hugojourdan.ColorFlow = {
"0" = 0;
"1" = 0;
"10" = 0;
"11" = 0;
"2" = 0;
"3" = 0;
"4" = 0;
"5" = 0;
"6" = 0;
"7" = 0;
"8" = 0;
"9" = 0;
};
};
width = 689;
}
);
metricLeft = D;
metricRight = B;
unicode = 1041;
}
{
color = 5;
glyphname = "Ge-cy";
kernLeft = D;
kernRight = T;
layers = (
{
anchors = (
{
name = bottomright;
pos = (503,0);
},
{
name = top;
pos = (262,722);
}
);
layerId = "452AD06C-4D92-427C-8B35-838986F56274";
shapes = (
{
closed = 1;
nodes = (
(177,0,l),
(169,24,o),
(167,40,o),
(167,84,cs),
(167,698,l),
(192,698,ls),
(345,698,o),
(383,679,o),
(424,581,c),
(432,583,l),
(406,722,l),
(25,722,l),
(25,716,l),
(45,716,ls),
(81,716,o),
(97,697,o),
(97,652,cs),
(97,84,ls),
(97,40,o),
(95,24,o),
(87,0,c)
);
}
);
userData = {
com.hugojourdan.ColorFlow = {
"0" = 0;
"1" = 0;
"10" = 0;
"11" = 0;
"2" = 0;
"3" = 0;
"4" = 0;
"5" = 0;
"6" = 0;
"7" = 0;
"8" = 0;
"9" = 0;
};
};
width = 467;
},
{
anchors = (
{
name = bottomright;
pos = (497,0);
},
{
name = top;
pos = (259,722);
}
);
layerId = "D54810B1-F9A5-4F35-A1FF-AED0599B2373";
shapes = (
{
closed = 1;
nodes = (
(248,0,l),
(237,24,o),
(233,44,o),
(233,84,cs),
(233,680,l),
(254,680,ls),
(399,680,o),
(459,618,o),
(478,497,c),
(493,500,l),
(465,722,l),
(27,722,l),
(27,706,l),
(45,706,ls),
(80,706,o),
(97,686,o),
(97,642,cs),
(97,84,ls),
(97,44,o),
(93,24,o),
(82,0,c)
);
}
);
userData = {
com.hugojourdan.ColorFlow = {
"0" = 0;
"1" = 0;
"10" = 0;
"11" = 0;
"2" = 0;
"3" = 0;
"4" = 0;
"5" = 0;
"6" = 0;
"7" = 0;
"8" = 0;
"9" = 0;
};
};
width = 517;
},
{
anchors = (
{
name = bottomright;
pos = (580,0);
},
{
name = top;
pos = (300,722);
}
);
layerId = m004;
shapes = (
{
closed = 1;
nodes = (
(296,0,l),
(283,23,o),
(278,48,o),
(278,84,cs),
(278,652,l),
(327,652,ls),
(454,652,o),
(524,606,o),
(566,434,c),
(588,439,l),
(540,722,l),
(20,722,l),
(20,698,l),
(36,698,ls),
(70,698,o),
(88,676,o),
(88,634,cs),
(88,84,ls),
(88,48,o),
(82,24,o),
(68,0,c)
);
}
);
userData = {
com.hugojourdan.ColorFlow = {
"0" = 0;
"1" = 0;
"10" = 0;
"11" = 0;
"2" = 0;
"3" = 0;
"4" = 0;
"5" = 0;
"6" = 0;
"7" = 0;
"8" = 0;
"9" = 0;
};
};
width = 603;
}
);
metricLeft = D;
metricRight = F;
unicode = 1043;
}
{
color = 5;
glyphname = "Zhe-cy";
kernLeft = K;
kernRight = K;
layers = (
{
anchors = (
{
name = bottomright;
pos = (891,0);
},
{
name = top;
pos = (444,722);
}
);
layerId = "452AD06C-4D92-427C-8B35-838986F56274";
shapes = (
{
closed = 1;
nodes = (
(411,84,ls),
(411,40,o),
(409,24,o),
(401,0,c),
(491,0,l),
(483,24,o),
(481,40,o),
(481,84,cs),
(481,722,l),
(339,722,l),
(339,716,l),
(359,716,ls),
(395,716,o),
(411,697,o),
(411,652,cs)
);
},
{
closed = 1;
nodes = (
(650,392,o),
(701,345,o),
(720,220,cs),
(738,99,o),
(767,-55,o),
(959,-129,c),
(962,-123,l),
(796,-55,o),
(794,92,o),
(782,212,cs),
(766,367,o),
(722,440,o),
(557,428,c),
(693,639,ls),
(730,696,o),
(766,714,o),
(838,717,c),
(837,722,l),
(691,722,l),
(681,687,o),
(611,568,o),
(501,376,c)
);
},
{
closed = 1;
nodes = (
(285,568,o),
(210,687,o),
(197,722,c),
(51,722,l),
(50,717,l),
(122,714,o),
(160,697,o),
(198,640,cs),
(338,428,l),
(177,440,o),
(131,363,o),
(111,210,cs),
(96,92,o),
(100,-56,o),
(-70,-123,c),
(-67,-129,l),
(128,-55,o),
(147,99,o),
(171,220,cs),
(195,339,o),
(240,392,o),
(395,376,c)
);
}
);
userData = {
com.hugojourdan.ColorFlow = {
"0" = 0;
"1" = 0;
"10" = 0;
"11" = 0;
"2" = 0;
"3" = 0;
"4" = 0;
"5" = 0;
"6" = 0;
"7" = 0;
"8" = 0;
"9" = 0;
};
};
width = 892;
},
{
anchors = (
{
name = bottomright;
pos = (1042,0);
},
{
name = top;
pos = (541,722);
}
);
layerId = "D54810B1-F9A5-4F35-A1FF-AED0599B2373";
shapes = (
{
closed = 1;
nodes = (
(444,84,ls),
(444,44,o),
(440,24,o),
(429,0,c),
(600,0,l),
(589,24,o),
(585,44,o),
(585,84,cs),
(585,722,l),
(374,722,l),
(374,706,l),
(392,706,ls),
(427,706,o),
(444,686,o),
(444,642,cs)
);
},
{
closed = 1;
nodes = (
(730,368,o),
(763,276,o),
(811,127,cs),
(849,8,o),
(886,-95,o),
(1064,-140,c),
(1069,-125,l),
(933,-67,o),
(943,222,o),
(882,344,cs),
(849,409,o),
(794,450,o),
(694,450,c),
(797,626,ls),
(839,697,o),
(878,703,o),
(930,707,c),
(930,722,l),
(784,722,l),
(771,674,o),
(731,600,o),
(595,361,c)
);
},
{
closed = 1;
nodes = (
(298,600,o),
(258,674,o),
(245,722,c),
(99,722,l),
(99,707,l),
(151,703,o),
(190,697,o),
(232,626,cs),
(335,450,l),
(235,450,o),
(180,409,o),
(147,344,cs),
(86,222,o),
(96,-67,o),
(-40,-125,c),
(-35,-140,l),
(143,-95,o),
(180,8,o),
(218,127,cs),
(266,276,o),
(299,368,o),
(434,361,c)
);
}
);
userData = {
com.hugojourdan.ColorFlow = {
"0" = 0;
"1" = 0;
"10" = 0;
"11" = 0;
"2" = 0;
"3" = 0;
"4" = 0;
"5" = 0;
"6" = 0;
"7" = 0;
"8" = 0;
"9" = 0;
};
};
width = 1029;
},
{
anchors = (
{
name = bottomright;
pos = (1043,0);
},
{
name = top;
pos = (531,722);
}
);
guides = (
{
angle = 50.7546;
pos = (635,429);
}
);
layerId = m004;
shapes = (
{
closed = 1;
nodes = (
(435,84,ls),
(435,48,o),
(429,24,o),
(415,0,c),
(655,0,l),
(641,24,o),
(635,48,o),
(635,84,c),
(635,722,l),
(367,722,l),
(367,698,l),
(383,698,ls),
(417,698,o),
(435,676,o),
(435,634,cs)
);
},
{
closed = 1;
nodes = (
(772,345,o),
(795,280,o),
(831,138,cs),
(860,23,o),
(902,-86,o),
(1103,-119,c),
(1110,-100,l),
(1043,-61,o),
(1044,118,o),
(1004,253,cs),
(975,352,o),
(922,417,o),
(777,424,c),
(876,601,ls),
(925,688,o),
(962,698,o),
(1022,698,c),
(1022,722,l),
(840,722,l),
(823,655,o),
(782,579,o),
(645,337,c)
);
},
{
closed = 1;
nodes = (
(283,579,o),
(243,655,o),
(230,722,c),
(48,722,l),
(48,698,l),
(108,698,o),
(140,688,o),
(190,601,cs),
(293,424,l),
(148,417,o),
(95,352,o),
(66,253,cs),
(26,118,o),
(27,-61,o),
(-40,-100,c),
(-33,-119,l),
(168,-86,o),
(210,23,o),
(239,138,cs),
(275,280,o),
(298,345,o),
(425,337,c)
);
}
);
userData = {
com.hugojourdan.ColorFlow = {
"0" = 0;
"1" = 0;
"10" = 0;
"11" = 0;
"2" = 0;
"3" = 0;
"4" = 0;
"5" = 0;
"6" = 0;
"7" = 0;
"8" = 0;
"9" = 0;
};
};
width = 1070;
}
);
metricLeft = "=|";
metricRight = K;
unicode = 1046;
}
{
color = 5;
glyphname = "El-cy";
kernRight = I;
layers = (
{
layerId = "452AD06C-4D92-427C-8B35-838986F56274";
shapes = (
{
closed = 1;
nodes = (
(583,0,l),
(577,20,o),
(575,36,o),
(575,76,cs),
(575,612,ls),
(575,672,o),
(575,697,o),
(583,722,c),
(197,722,l),
(197,716,l),
(217,716,ls),
(252,716,o),
(267,703,o),
(266,663,cs),
(265,571,o),
(261,440,o),
(247,330,cs),
(234,225,o),
(207,60,o),
(84,60,cs),
(61,60,o),
(43,63,o),
(24,71,c),
(20,67,l),
(47,-13,l),
(219,-13,o),
(257,179,o),
(274,333,cs),
(288,453,o),
(294,588,o),
(295,698,c),
(505,698,l),
(505,84,ls),
(505,40,o),
(503,24,o),
(495,0,c)
);
}
);
userData = {
com.hugojourdan.ColorFlow = {
"0" = 0;
"1" = 0;
"10" = 0;
"11" = 0;
"2" = 0;
"3" = 0;
"4" = 0;
"5" = 0;
"6" = 0;
"7" = 0;
"8" = 0;
"9" = 0;
};
};
width = 633;
},
{
background = {
shapes = (
{
closed = 1;
nodes = (
(704,0,l),
(698,20,o),
(696,36,o),
(696,76,cs),
(696,612,ls),
(696,672,o),
(696,697,o),
(704,722,c),
(292,722,l),
(292,716,l),
(312,716,ls),
(347,716,o),
(365,703,o),
(365,662,cs),
(365,431,o),
(374,241,o),
(343,129,cs),
(321,47,o),
(283,16,o),
(238,16,cs),
(188,16,o),
(156,59,o),
(156,97,cs),
(156,132,o),
(180,154,o),
(204,154,cs),
(220,154,o),
(236,145,o),
(246,125,c),
(252,128,l),
(214,212,l),
(142,207,o),
(109,157,o),
(109,107,cs),
(109,50,o),
(157,-8,o),
(232,-8,cs),
(292,-8,o),
(338,23,o),
(367,126,cs),
(401,246,o),
(389,494,o),
(389,698,c),
(624,698,l),
(624,84,ls),
(624,40,o),
(622,24,o),
(614,0,c)
);
}
);
};
layerId = "D54810B1-F9A5-4F35-A1FF-AED0599B2373";
shapes = (
{
closed = 1;
nodes = (
(667,0,l),
(658,22,o),
(654,43,o),
(654,80,cs),
(654,584,ls),
(654,647,o),
(655,684,o),
(665,722,c),
(202,722,l),
(202,706,l),
(224,706,ls),
(259,706,o),
(277,689,o),
(277,644,cs),
(277,562,o),
(277,421,o),
(253,291,cs),
(230,171,o),
(187,70,o),
(103,70,cs),
(81,70,o),
(65,73,o),
(41,83,c),
(30,74,l),
(59,-23,l),
(246,-28,o),
(286,166,o),
(303,323,cs),
(316,437,o),
(320,575,o),
(321,680,c),
(518,680,l),
(518,84,ls),
(518,44,o),
(514,24,o),
(503,0,c)
);
}
);
userData = {
com.hugojourdan.ColorFlow = {
"0" = 0;
"1" = 0;
"10" = 0;
"11" = 0;
"2" = 0;
"3" = 0;
"4" = 0;
"5" = 0;
"6" = 0;
"7" = 0;
"8" = 0;
"9" = 0;
};
};
width = 717;
},
{
layerId = m004;
shapes = (
{
closed = 1;
nodes = (
(745,0,l),
(732,23,o),
(727,48,o),
(727,84,cs),
(727,590,ls),
(727,655,o),
(727,690,o),
(738,722,c),
(238,722,l),
(238,697,l),
(276,697,ls),
(305,697,o),
(317,682,o),
(317,641,cs),
(317,515,o),
(309,361,o),
(273,261,cs),
(246,189,o),
(202,134,o),
(123,134,cs),
(94,134,o),
(65,144,o),
(40,165,c),
(20,152,l),
(65,-6,l),
(238,-22,o),
(309,78,o),
(346,227,cs),
(376,348,o),
(385,512,o),
(387,652,c),
(537,652,l),
(537,84,ls),
(537,48,o),
(531,24,o),
(517,0,c)
);
}
);
userData = {
com.hugojourdan.ColorFlow = {
"0" = 0;
"1" = 0;
"10" = 0;
"11" = 0;
"2" = 0;
"3" = 0;
"4" = 0;
"5" = 0;
"6" = 0;
"7" = 0;
"8" = 0;
"9" = 0;
};
};
width = 785;
}
);
metricRight = I;
unicode = 1051;
}
{
color = 5;
glyphname = "Pe-cy";
kernLeft = D;
kernRight = I;
layers = (
{
anchors = (
{
name = bottomright;
pos = (658,0);
}
);
layerId = "452AD06C-4D92-427C-8B35-838986F56274";
shapes = (
{
closed = 1;
nodes = (
(92,84,ls),
(92,40,o),
(90,24,o),
(82,0,c),
(170,0,l),
(164,20,o),
(162,36,o),
(162,76,cs),
(162,698,l),
(512,698,l),
(512,84,ls),
(512,40,o),
(510,24,o),
(502,0,c),
(590,0,l),
(584,20,o),
(582,36,o),
(582,76,cs),
(582,608,ls),
(582,668,o),
(583,692,o),
(585,722,c),
(20,722,l),
(20,716,l),
(40,716,ls),
(76,716,o),
(92,697,o),
(92,652,cs)
);
}
);
userData = {
com.hugojourdan.ColorFlow = {
"0" = 0;
"1" = 0;
"10" = 0;
"11" = 0;
"2" = 0;
"3" = 0;
"4" = 0;
"5" = 0;
"6" = 0;
"7" = 0;
"8" = 0;
"9" = 0;
};
};
width = 640;
},
{
anchors = (
{
name = bottomright;
pos = (708,0);
}
);
layerId = "D54810B1-F9A5-4F35-A1FF-AED0599B2373";
shapes = (
{
closed = 1;
nodes = (
(90,84,ls),
(90,44,o),
(86,24,o),
(75,0,c),
(245,0,l),
(236,22,o),
(232,43,o),
(232,80,cs),
(232,680,l),
(502,680,l),
(502,84,ls),
(502,44,o),
(498,24,o),
(487,0,c),
(657,0,l),
(648,22,o),
(644,43,o),
(644,80,cs),
(644,602,ls),
(644,658,o),
(646,689,o),
(649,722,c),
(20,722,l),
(20,706,l),
(38,706,ls),
(73,706,o),
(90,686,o),
(90,642,cs)
);
}
);
userData = {
com.hugojourdan.ColorFlow = {
"0" = 0;
"1" = 0;
"10" = 0;
"11" = 0;
"2" = 0;
"3" = 0;
"4" = 0;
"5" = 0;
"6" = 0;
"7" = 0;
"8" = 0;
"9" = 0;
};
};
width = 707;
},
{
anchors = (
{
name = bottomright;
pos = (729,0);
}
);
layerId = m004;
shapes = (
{
closed = 1;
nodes = (
(88,84,ls),
(88,48,o),
(82,24,o),
(68,0,c),
(296,0,l),
(283,23,o),
(278,48,o),
(278,84,cs),
(278,652,l),
(488,652,l),
(488,84,ls),
(488,48,o),
(482,24,o),
(468,0,c),
(696,0,l),
(683,23,o),
(678,48,o),
(678,84,cs),
(678,596,ls),
(678,650,o),
(680,688,o),
(685,722,c),
(20,722,l),
(20,698,l),
(36,698,ls),
(70,698,o),
(88,676,o),
(88,634,cs)
);
}
);
userData = {
com.hugojourdan.ColorFlow = {
"0" = 0;
"1" = 0;
"10" = 0;
"11" = 0;
"2" = 0;
"3" = 0;
"4" = 0;
"5" = 0;
"6" = 0;
"7" = 0;
"8" = 0;
"9" = 0;
};
};
width = 736;
}
);
metricLeft = H;
metricRight = H;
unicode = 1055;
}
{
color = 5;
glyphname = "Che-cy";
kernRight = I;
layers = (
{
anchors = (
{
name = bottomright;
pos = (521,0);
},
{
name = top;
pos = (265,722);
}
);
layerId = "452AD06C-4D92-427C-8B35-838986F56274";
shapes = (
{
closed = 1;
nodes = (
(491,0,l),
(485,20,o),
(483,36,o),
(483,76,cs),
(483,722,l),
(341,722,l),
(341,716,l),
(361,716,ls),
(397,716,o),
(413,697,o),
(413,652,cs),
(413,84,ls),
(413,40,o),
(411,24,o),
(403,0,c)
);
},
{
closed = 1;
nodes = (
(227,779,l),
(83,658,o),
(20,521,o),
(20,411,cs),
(20,272,o),
(114,201,o),
(225,201,cs),
(304,201,o),
(391,237,o),
(461,308,c),
(455,329,l),
(407,274,o),
(338,244,o),
(273,244,cs),
(151,244,o),
(83,339,o),
(83,459,cs),
(83,559,o),
(130,678,o),
(231,774,c)
);
}
);
userData = {
com.hugojourdan.ColorFlow = {
"0" = 0;
"1" = 0;
"10" = 0;
"11" = 0;
"2" = 0;
"3" = 0;
"4" = 0;
"5" = 0;
"6" = 0;
"7" = 0;
"8" = 0;
"9" = 0;
};
};
width = 541;
},
{
anchors = (
{
name = bottomright;
pos = (606,0);
},
{
name = top;
pos = (332,722);
}
);
layerId = "D54810B1-F9A5-4F35-A1FF-AED0599B2373";
shapes = (
{
closed = 1;
nodes = (
(576,0,l),
(567,22,o),
(563,43,o),
(563,80,cs),
(563,722,l),
(357,722,l),
(357,706,l),
(375,706,ls),
(410,706,o),
(427,686,o),
(427,642,cs),
(427,84,ls),
(427,44,o),
(423,24,o),
(412,0,c)
);
},
{
closed = 1;
nodes = (
(255,756,l),
(103,669,o),
(20,519,o),
(20,397,cs),
(20,267,o),
(111,194,o),
(220,194,cs),
(290,194,o),
(368,224,o),
(431,287,c),
(431,351,l),
(389,304,o),
(338,278,o),
(292,278,cs),
(223,278,o),
(165,336,o),
(165,474,cs),
(165,577,o),
(203,693,o),
(264,747,c)
);
}
);
userData = {
com.hugojourdan.ColorFlow = {
"0" = 0;
"1" = 0;
"10" = 0;
"11" = 0;
"2" = 0;
"3" = 0;
"4" = 0;
"5" = 0;
"6" = 0;
"7" = 0;
"8" = 0;
"9" = 0;
};
};
width = 626;
},
{
anchors = (
{
name = bottomright;
pos = (688,0);
},
{
name = top;
pos = (354,722);
}
);
layerId = m004;
shapes = (
{
closed = 1;
nodes = (
(668,0,l),
(655,23,o),
(650,48,o),
(650,84,cs),
(650,722,l),
(392,722,l),
(392,698,l),
(408,698,ls),
(442,698,o),
(460,676,o),
(460,634,cs),
(460,84,ls),
(460,48,o),
(454,24,o),
(440,0,c)
);
},
{
closed = 1;
nodes = (
(274,782,l),
(106,693,o),
(30,550,o),
(30,425,cs),
(30,264,o),
(144,180,o),
(272,180,cs),
(338,180,o),
(409,203,o),
(468,250,c),
(467,323,l),
(431,299,o),
(396,288,o),
(365,288,cs),
(272,288,o),
(206,385,o),
(206,529,cs),
(206,620,o),
(234,715,o),
(284,772,c)
);
}
);
userData = {
com.hugojourdan.ColorFlow = {
"0" = 0;
"1" = 0;
"10" = 0;
"11" = 0;
"2" = 0;
"3" = 0;
"4" = 0;
"5" = 0;
"6" = 0;
"7" = 0;
"8" = 0;
"9" = 0;
};
};
width = 708;
}
);
metricRight = I;
unicode = 1063;
}
{
color = 5;
glyphname = "Ya-cy";
kernLeft = Ya;
kernRight = Ya;
layers = (
{
anchors = (
{
name = top;
pos = (166,722);
}
);
layerId = "452AD06C-4D92-427C-8B35-838986F56274";
shapes = (
{
closed = 1;
nodes = (
(417,710,o),
(384,714,o),
(352,714,cs),
(164,714,o),
(80,600,o),
(80,493,cs),
(80,398,o),
(150,308,o),
(283,315,c),
(190,273,o),
(143,213,o),
(113,147,cs),
(59,27,o),
(31,-116,o),
(-80,-167,c),
(-77,-174,l),
(105,-104,o),
(107,-27,o),
(176,121,cs),
(245,270,o),
(288,296,o),
(360,323,cs),
(389,334,o),
(418,345,o),
(446,361,c),
(446,84,ls),
(446,40,o),
(444,24,o),
(436,0,c),
(526,0,l),
(518,24,o),
(516,40,o),
(516,84,cs),
(516,652,ls),
(516,697,o),
(532,716,o),
(568,716,cs),
(588,716,l),
(588,722,l),
(446,722,l),
(446,704,l)
);
},
{
closed = 1;
nodes = (
(157,598,o),
(219,690,o),
(362,690,cs),
(389,690,o),
(418,687,o),
(446,680,c),
(446,387,l),
(400,357,o),
(353,342,o),
(311,342,cs),
(213,342,o),
(157,425,o),
(157,509,cs)
);
}
);
userData = {
com.hugojourdan.ColorFlow = {
"0" = 0;
"1" = 0;
"10" = 0;
"11" = 0;
"2" = 0;
"3" = 0;
"4" = 0;
"5" = 0;
"6" = 0;
"7" = 0;
"8" = 0;
"9" = 0;
};
};
width = 598;
},
{
anchors = (
{
name = top;
pos = (357,722);
}
);
layerId = "D54810B1-F9A5-4F35-A1FF-AED0599B2373";
shapes = (
{
closed = 1;
nodes = (
(436,714,o),
(392,723,o),
(348,723,cs),
(218,723,o),
(83,643,o),
(86,493,cs),
(88,409,o),
(137,327,o),
(233,313,c),
(198,284,o),
(169,256,o),
(148,218,cs),
(79,92,o),
(34,-96,o),
(-80,-133,c),
(-74,-146,l),
(115,-97,o),
(179,-31,o),
(254,115,cs),
(313,231,o),
(347,283,o),
(386,308,cs),
(411,324,o),
(438,329,o),
(474,333,c),
(474,84,ls),
(474,44,o),
(470,24,o),
(459,0,c),
(630,0,l),
(619,24,o),
(615,44,o),
(615,84,cs),
(615,642,ls),
(615,686,o),
(632,706,o),
(667,706,cs),
(685,706,l),
(685,722,l),
(474,722,l),
(474,695,l)
);
},
{
closed = 1;
nodes = (
(227,628,o),
(290,670,o),
(372,670,cs),
(406,670,o),
(441,664,o),
(474,651,c),
(474,416,l),
(435,389,o),
(397,377,o),
(363,377,cs),
(285,377,o),
(227,441,o),
(227,532,cs)
);
}
);
userData = {
com.hugojourdan.ColorFlow = {
"0" = 0;
"1" = 0;
"10" = 0;
"11" = 0;
"2" = 0;
"3" = 0;
"4" = 0;
"5" = 0;
"6" = 0;
"7" = 0;
"8" = 0;
"9" = 0;
};
};
width = 705;
},
{
anchors = (
{
name = top;
pos = (399,722);
}
);
layerId = m004;
shapes = (
{
closed = 1;
nodes = (
(465,716,o),
(417,726,o),
(367,726,cs),
(222,726,o),
(53,645,o),
(53,469,cs),
(53,383,o),
(105,294,o),
(204,280,c),
(171,253,o),
(144,218,o),
(123,172,cs),
(69,55,o),
(33,-104,o),
(-50,-128,c),
(-44,-146,l),
(146,-102,o),
(222,-54,o),
(299,93,cs),
(357,205,o),
(388,261,o),
(425,290,cs),
(447,306,o),
(470,313,o),
(502,317,c),
(502,84,ls),
(502,48,o),
(496,24,o),
(482,0,c),
(722,0,l),
(708,24,o),
(702,48,o),
(702,84,cs),
(702,634,ls),
(702,676,o),
(720,698,o),
(754,698,cs),
(770,698,l),
(770,722,l),
(502,722,l),
(502,697,l)
);
},
{
closed = 1;
nodes = (
(244,608,o),
(318,657,o),
(401,657,cs),
(437,657,o),
(473,648,o),
(502,628,c),
(502,421,l),
(460,383,o),
(419,366,o),
(375,366,cs),
(291,366,o),
(244,435,o),
(244,505,cs)
);
}
);
userData = {
com.hugojourdan.ColorFlow = {
"0" = 0;
"1" = 0;
"10" = 0;
"11" = 0;
"2" = 0;
"3" = 0;
"4" = 0;
"5" = 0;
"6" = 0;
"7" = 0;
"8" = 0;
"9" = 0;
};
};
width = 790;
}
);
unicode = 1071;
}
{
color = 5;
glyphname = "ka-cy";
kernLeft = i;
kernRight = x;
layers = (
{
anchors = (
{
name = bottomright;
pos = (473,0);
},
{
name = top;
pos = (247,500);
}
);
layerId = "452AD06C-4D92-427C-8B35-838986F56274";
shapes = (
{
closed = 1;
nodes = (
(166,0,l),
(158,25,o),
(156,45,o),
(156,95,cs),
(156,266,l),
(162,266,l),
(292,88,ls),
(333,31,o),
(340,21,o),
(340,0,c),
(473,0,l),
(473,7,l),
(433,11,o),
(411,30,o),
(352,112,cs),
(213,306,l),
(272,360,ls),
(344,426,o),
(417,487,o),
(459,493,c),
(459,500,l),
(331,500,l),
(323,458,o),
(293,426,o),
(214,351,cs),
(156,296,l),
(156,416,ls),
(156,460,o),
(158,476,o),
(164,500,c),
(10,500,l),
(10,493,l),
(33,493,ls),
(74,493,o),
(92,469,o),
(92,413,cs),
(92,105,ls),
(92,50,o),
(90,30,o),
(80,0,c)
);
}
);
userData = {
com.hugojourdan.ColorFlow = {
"0" = 0;
"1" = 0;
"10" = 0;
"11" = 0;
"2" = 0;
"3" = 0;
"4" = 0;
"5" = 0;
"6" = 0;
"7" = 0;
"8" = 0;
"9" = 0;
};
};
width = 493;
},
{
anchors = (
{
name = bottomright;
pos = (552,0);
},
{
name = top;
pos = (286,500);
}
);
layerId = "D54810B1-F9A5-4F35-A1FF-AED0599B2373";
shapes = (
{
closed = 1;
nodes = (
(227,0,l),
(217,24,o),
(213,48,o),
(213,89,cs),
(213,251,l),
(221,251,l),
(338,69,ls),
(362,31,o),
(368,19,o),
(368,0,c),
(552,0,l),
(552,16,l),
(514,20,o),
(499,39,o),
(455,108,cs),
(322,315,l),
(373,366,ls),
(445,438,o),
(498,478,o),
(531,484,c),
(531,500,l),
(389,500,l),
(384,462,o),
(363,428,o),
(299,366,cs),
(213,284,l),
(213,427,ls),
(213,462,o),
(216,479,o),
(223,500,c),
(10,500,l),
(10,482,l),
(29,482,ls),
(66,482,o),
(84,460,o),
(84,411,cs),
(84,94,ls),
(84,49,o),
(80,27,o),
(68,0,c)
);
}
);
userData = {
com.hugojourdan.ColorFlow = {
"0" = 0;
"1" = 0;
"10" = 0;
"11" = 0;
"2" = 0;
"3" = 0;
"4" = 0;
"5" = 0;
"6" = 0;
"7" = 0;
"8" = 0;
"9" = 0;
};
};
width = 572;
},
{
anchors = (
{
name = bottomright;
pos = (656,0);
},
{
name = top;
pos = (338,500);
}
);
layerId = m004;
shapes = (
{
closed = 1;
nodes = (
(290,0,l),
(277,23,o),
(272,48,o),
(272,84,cs),
(272,244,l),
(277,244,l),
(382,54,ls),
(394,32,o),
(398,17,o),
(397,0,c),
(637,0,l),
(637,21,l),
(601,27,o),
(587,42,o),
(550,110,cs),
(433,322,l),
(470,362,ls),
(542,439,o),
(567,470,o),
(593,476,c),
(593,500,l),
(440,500,l),
(436,466,o),
(426,446,o),
(374,394,cs),
(272,292,l),
(272,437,ls),
(272,464,o),
(276,482,o),
(284,500,c),
(20,500,l),
(20,476,l),
(36,476,ls),
(70,476,o),
(88,454,o),
(88,412,cs),
(88,84,ls),
(88,48,o),
(82,24,o),
(68,0,c)
);
}
);
userData = {
com.hugojourdan.ColorFlow = {
"0" = 0;
"1" = 0;
"10" = 0;
"11" = 0;
"2" = 0;
"3" = 0;
"4" = 0;
"5" = 0;
"6" = 0;
"7" = 0;
"8" = 0;
"9" = 0;
};
};
width = 657;
}
);
metricLeft = i;
unicode = 1082;
}
{
color = 5;
glyphname = "pe-cy";
kernLeft = i;
kernRight = i;
layers = (
{
anchors = (
{
name = bottomright;
pos = (497,0);
}
);
layerId = "452AD06C-4D92-427C-8B35-838986F56274";
shapes = (
{
closed = 1;
nodes = (
(166,0,l),
(158,25,o),
(156,45,o),
(156,95,cs),
(156,470,l),
(413,470,l),
(413,105,ls),
(413,50,o),
(411,30,o),
(401,0,c),
(487,0,l),
(479,25,o),
(477,45,o),
(477,95,cs),
(477,416,ls),
(477,460,o),
(479,476,o),
(485,500,c),
(10,500,l),
(10,493,l),
(33,493,ls),
(74,493,o),
(92,469,o),
(92,413,cs),
(92,105,ls),
(92,50,o),
(90,30,o),
(80,0,c)
);
}
);
userData = {
com.hugojourdan.ColorFlow = {
"0" = 0;
"1" = 0;
"10" = 0;
"11" = 0;
"2" = 0;
"3" = 0;
"4" = 0;
"5" = 0;
"6" = 0;
"7" = 0;
"8" = 0;
"9" = 0;
};
};
width = 537;
},
{
anchors = (
{
name = bottomright;
pos = (556,0);
}
);
layerId = "D54810B1-F9A5-4F35-A1FF-AED0599B2373";
shapes = (
{
closed = 1;
nodes = (
(227,0,l),
(217,24,o),
(213,48,o),
(213,89,cs),
(213,458,l),
(403,458,l),
(403,94,ls),
(403,49,o),
(399,27,o),
(387,0,c),
(546,0,l),
(536,24,o),
(532,48,o),
(532,89,cs),
(532,427,ls),
(532,462,o),
(535,479,o),
(542,500,c),
(10,500,l),
(10,482,l),
(29,482,ls),
(66,482,o),
(84,460,o),
(84,411,cs),
(84,94,ls),
(84,49,o),
(80,27,o),
(68,0,c)
);
}
);
userData = {
com.hugojourdan.ColorFlow = {
"0" = 0;
"1" = 0;
"10" = 0;
"11" = 0;
"2" = 0;
"3" = 0;
"4" = 0;
"5" = 0;
"6" = 0;
"7" = 0;
"8" = 0;
"9" = 0;
};
};
width = 586;
},
{
anchors = (
{
name = bottomright;
pos = (669,0);
}
);
layerId = m004;
shapes = (
{
closed = 1;
nodes = (
(290,0,l),
(277,23,o),
(272,48,o),
(272,84,cs),
(272,430,l),
(452,430,l),
(452,84,ls),
(452,48,o),
(446,24,o),
(432,0,c),
(654,0,l),
(641,23,o),
(636,48,o),
(636,84,cs),
(636,437,ls),
(636,464,o),
(640,482,o),
(648,500,c),
(20,500,l),
(20,476,l),
(36,476,ls),
(70,476,o),
(88,454,o),
(88,412,cs),
(88,84,ls),
(88,48,o),
(82,24,o),
(68,0,c)
);
}
);
userData = {
com.hugojourdan.ColorFlow = {
"0" = 0;
"1" = 0;
"10" = 0;
"11" = 0;
"2" = 0;
"3" = 0;
"4" = 0;
"5" = 0;
"6" = 0;
"7" = 0;
"8" = 0;
"9" = 0;
};
};
width = 694;
}
);
metricLeft = i;
metricRight = i;
unicode = 1087;
}
{
color = 5;
glyphname = "te-cy";
kernLeft = tcro;
kernRight = hor;
layers = (
{
anchors = (
{
name = bottomright;
pos = (424,0);
}
);
layerId = "452AD06C-4D92-427C-8B35-838986F56274";
shapes = (
{
closed = 1;
nodes = (
(265,0,l),
(257,25,o),
(255,45,o),
(255,95,cs),
(255,476,l),
(348,476,o),
(391,443,o),
(418,341,c),
(424,344,l),
(411,500,l),
(35,500,l),
(20,344,l),
(26,341,l),
(57,443,o),
(95,476,o),
(191,476,c),
(191,105,ls),
(191,50,o),
(189,30,o),
(179,0,c)
);
}
);
userData = {
com.hugojourdan.ColorFlow = {
"0" = 0;
"1" = 0;
"10" = 0;
"11" = 0;
"2" = 0;
"3" = 0;
"4" = 0;
"5" = 0;
"6" = 0;
"7" = 0;
"8" = 0;
"9" = 0;
};
};
width = 464;
},
{
anchors = (
{
name = bottomright;
pos = (563,0);
}
);
layerId = "D54810B1-F9A5-4F35-A1FF-AED0599B2373";
shapes = (
{
closed = 1;
nodes = (
(370,0,l),
(360,24,o),
(356,48,o),
(356,89,cs),
(356,458,l),
(471,458,o),
(521,420,o),
(548,292,c),
(563,295,l),
(541,500,l),
(42,500,l),
(20,295,l),
(35,292,l),
(62,420,o),
(112,458,o),
(227,458,c),
(227,94,ls),
(227,49,o),
(223,27,o),
(211,0,c)
);
}
);
userData = {
com.hugojourdan.ColorFlow = {
"0" = 0;
"1" = 0;
"10" = 0;
"11" = 0;
"2" = 0;
"3" = 0;
"4" = 0;
"5" = 0;
"6" = 0;
"7" = 0;
"8" = 0;
"9" = 0;
};
};
width = 583;
},
{
anchors = (
{
name = bottomright;
pos = (577,0);
}
);
layerId = m004;
shapes = (
{
closed = 1;
nodes = (
(409,0,l),
(396,23,o),
(391,48,o),
(391,84,cs),
(391,430,l),
(481,430,o),
(526,399,o),
(554,252,c),
(577,255,l),
(564,500,l),
(34,500,l),
(20,255,l),
(43,252,l),
(64,400,o),
(117,430,o),
(207,430,c),
(207,84,ls),
(207,48,o),
(201,24,o),
(187,0,c)
);
}
);
userData = {
com.hugojourdan.ColorFlow = {
"0" = 0;
"1" = 0;
"10" = 0;
"11" = 0;
"2" = 0;
"3" = 0;
"4" = 0;
"5" = 0;
"6" = 0;
"7" = 0;
"8" = 0;
"9" = 0;
};
};
width = 607;
}
);
unicode = 1090;
}
{
color = 5;
glyphname = "tse-cy";
kernLeft = i;
kernRight = tri;
layers = (
{
layerId = "452AD06C-4D92-427C-8B35-838986F56274";
shapes = (
{
closed = 1;
nodes = (
(462,0,ls),
(486,0,o),
(505,0,o),
(519,-3,cs),
(531,-6,o),
(537,-12,o),
(537,-28,cs),
(537,-45,o),
(532,-86,o),
(508,-148,c),
(514,-150,l),
(549,-81,o),
(581,-12,o),
(598,24,c),
(518,24,l),
(518,416,ls),
(518,460,o),
(520,476,o),
(526,500,c),
(372,500,l),
(372,493,l),
(395,493,ls),
(436,493,o),
(454,469,o),
(454,413,cs),
(454,24,l),
(156,24,l),
(156,416,ls),
(156,460,o),
(158,476,o),
(164,500,c),
(10,500,l),
(10,493,l),
(33,493,ls),
(74,493,o),
(92,469,o),
(92,413,cs),
(92,105,ls),
(92,50,o),
(90,30,o),
(80,0,c)
);
}
);
userData = {
com.hugojourdan.ColorFlow = {
"0" = 0;
"1" = 0;
"10" = 0;
"11" = 0;
"2" = 0;
"3" = 0;
"4" = 0;
"5" = 0;
"6" = 0;
"7" = 0;
"8" = 0;
"9" = 0;
};
};
width = 578;
},
{
layerId = "D54810B1-F9A5-4F35-A1FF-AED0599B2373";
shapes = (
{
closed = 1;
nodes = (
(520,0,ls),
(549,0,o),
(570,-1,o),
(583,-3,cs),
(593,-5,o),
(598,-10,o),
(598,-23,cs),
(598,-47,o),
(590,-85,o),
(565,-155,c),
(579,-161,l),
(625,-78,o),
(671,9,o),
(685,42,c),
(586,42,l),
(586,427,ls),
(586,462,o),
(589,479,o),
(596,500,c),
(383,500,l),
(383,482,l),
(402,482,ls),
(439,482,o),
(457,460,o),
(457,411,cs),
(457,42,l),
(213,42,l),
(213,427,ls),
(213,462,o),
(216,479,o),
(223,500,c),
(10,500,l),
(10,482,l),
(29,482,ls),
(66,482,o),
(84,460,o),
(84,411,cs),
(84,94,ls),
(84,49,o),
(80,27,o),
(68,0,c)
);
}
);
userData = {
com.hugojourdan.ColorFlow = {
"0" = 0;
"1" = 0;
"10" = 0;
"11" = 0;
"2" = 0;
"3" = 0;
"4" = 0;
"5" = 0;
"6" = 0;
"7" = 0;
"8" = 0;
"9" = 0;
};
};
width = 686;
},
{
layerId = m004;
shapes = (
{
closed = 1;
nodes = (
(510,0,ls),
(561,0,o),
(596,-1,o),
(613,-4,cs),
(628,-7,o),
(633,-10,o),
(633,-23,cs),
(633,-45,o),
(627,-96,o),
(590,-168,c),
(609,-180,l),
(687,-81,o),
(735,0,o),
(746,70,c),
(646,70,l),
(646,437,ls),
(646,464,o),
(650,482,o),
(658,500,c),
(394,500,l),
(394,476,l),
(410,476,ls),
(444,476,o),
(462,454,o),
(462,412,cs),
(462,70,l),
(272,70,l),
(272,437,ls),
(272,464,o),
(276,482,o),
(284,500,c),
(20,500,l),
(20,476,l),
(36,476,ls),
(70,476,o),
(88,454,o),
(88,412,cs),
(88,84,ls),
(88,48,o),
(82,24,o),
(68,0,c)
);
}
);
userData = {
com.hugojourdan.ColorFlow = {
"0" = 0;
"1" = 0;
"10" = 0;
"11" = 0;
"2" = 0;
"3" = 0;
"4" = 0;
"5" = 0;
"6" = 0;
"7" = 0;
"8" = 0;
"9" = 0;
};
};
width = 748;
}
);
metricLeft = i;
unicode = 1094;
}
{
color = 5;
glyphname = "sha-cy";
kernLeft = i;
kernRight = i;
layers = (
{
layerId = "452AD06C-4D92-427C-8B35-838986F56274";
shapes = (
{
closed = 1;
nodes = (
(714,0,l),
(706,25,o),
(704,45,o),
(704,95,cs),
(704,416,ls),
(704,460,o),
(706,476,o),
(712,500,c),
(558,500,l),
(558,493,l),
(581,493,ls),
(622,493,o),
(640,469,o),
(640,413,cs),
(640,30,l),
(430,30,l),
(430,416,ls),
(430,460,o),
(432,476,o),
(438,500,c),
(284,500,l),
(284,493,l),
(307,493,ls),
(348,493,o),
(366,469,o),
(366,413,cs),
(366,30,l),
(156,30,l),
(156,416,ls),
(156,460,o),
(158,476,o),
(164,500,c),
(10,500,l),
(10,493,l),
(33,493,ls),
(74,493,o),
(92,469,o),
(92,413,cs),
(92,105,ls),
(92,50,o),
(90,30,o),
(80,0,c)
);
}
);
userData = {
com.hugojourdan.ColorFlow = {
"0" = 0;
"1" = 0;
"10" = 0;
"11" = 0;
"2" = 0;
"3" = 0;
"4" = 0;
"5" = 0;
"6" = 0;
"7" = 0;
"8" = 0;
"9" = 0;
};
};
width = 764;
},
{
layerId = "D54810B1-F9A5-4F35-A1FF-AED0599B2373";
shapes = (
{
closed = 1;
nodes = (
(847,0,l),
(835,27,o),
(831,49,o),
(831,94,cs),
(831,427,ls),
(831,462,o),
(834,479,o),
(841,500,c),
(628,500,l),
(628,482,l),
(647,482,ls),
(684,482,o),
(702,460,o),
(702,411,cs),
(702,42,l),
(522,42,l),
(522,427,ls),
(522,462,o),
(525,479,o),
(532,500,c),
(319,500,l),
(319,482,l),
(338,482,ls),
(375,482,o),
(393,460,o),
(393,411,cs),
(393,42,l),
(213,42,l),
(213,427,ls),
(213,462,o),
(216,479,o),
(223,500,c),
(10,500,l),
(10,482,l),
(29,482,ls),
(66,482,o),
(84,460,o),
(84,411,cs),
(84,94,ls),
(84,49,o),
(80,27,o),
(68,0,c)
);
}
);
userData = {
com.hugojourdan.ColorFlow = {
"0" = 0;
"1" = 0;
"10" = 0;
"11" = 0;
"2" = 0;
"3" = 0;
"4" = 0;
"5" = 0;
"6" = 0;
"7" = 0;
"8" = 0;
"9" = 0;
};
};
width = 887;
},
{
layerId = m004;
shapes = (
{
closed = 1;
nodes = (
(1020,0,l),
(1006,24,o),
(1000,48,o),
(1000,84,cs),
(1000,437,ls),
(1000,464,o),
(1004,482,o),
(1012,500,c),
(748,500,l),
(748,476,l),
(764,476,ls),
(798,476,o),
(816,454,o),
(816,412,cs),
(816,70,l),
(636,70,l),
(636,437,ls),
(636,464,o),
(640,482,o),
(648,500,c),
(384,500,l),
(384,476,l),
(400,476,ls),
(434,476,o),
(452,454,o),
(452,412,cs),
(452,70,l),
(272,70,l),
(272,437,ls),
(272,464,o),
(276,482,o),
(284,500,c),
(20,500,l),
(20,476,l),
(36,476,ls),
(70,476,o),
(88,454,o),
(88,412,cs),
(88,84,ls),
(88,48,o),
(82,24,o),
(68,0,c)
);
}
);
userData = {
com.hugojourdan.ColorFlow = {
"0" = 0;
"1" = 0;
"10" = 0;
"11" = 0;
"2" = 0;
"3" = 0;
"4" = 0;
"5" = 0;
"6" = 0;
"7" = 0;
"8" = 0;
"9" = 0;
};
};
width = 1060;
}
);
metricLeft = i;
metricRight = i;
unicode = 1096;
}
{
color = 5;
glyphname = "softsign-cy";
kernLeft = i;
kernRight = b;
layers = (
{
layerId = "452AD06C-4D92-427C-8B35-838986F56274";
shapes = (
{
closed = 1;
nodes = (
(156,0,ls),
(329,2,o),
(466,32,o),
(466,166,cs),
(466,302,o),
(330,350,o),
(175,331,c),
(175,327,l),
(330,334,o),
(397,258,o),
(397,171,cs),
(397,47,o),
(297,25,o),
(156,24,c),
(156,416,ls),
(156,460,o),
(158,476,o),
(164,500,c),
(10,500,l),
(10,493,l),
(33,493,ls),
(74,493,o),
(92,469,o),
(92,413,cs),
(92,105,ls),
(92,50,o),
(90,30,o),
(80,0,c)
);
}
);
userData = {
com.hugojourdan.ColorFlow = {
"0" = 0;
"1" = 0;
"10" = 0;
"11" = 0;
"2" = 0;
"3" = 0;
"4" = 0;
"5" = 0;
"6" = 0;
"7" = 0;
"8" = 0;
"9" = 0;
};
};
width = 496;
},
{
layerId = "D54810B1-F9A5-4F35-A1FF-AED0599B2373";
shapes = (
{
closed = 1;
nodes = (
(213,0,ls),
(358,0,o),
(547,22,o),
(547,180,cs),
(547,294,o),
(448,352,o),
(221,346,c),
(221,321,l),
(374,321,o),
(415,247,o),
(415,180,cs),
(415,95,o),
(366,41,o),
(213,42,c),
(213,427,ls),
(213,462,o),
(216,479,o),
(223,500,c),
(10,500,l),
(10,482,l),
(29,482,ls),
(66,482,o),
(84,460,o),
(84,411,cs),
(84,94,ls),
(84,49,o),
(80,27,o),
(68,0,c)
);
}
);
userData = {
com.hugojourdan.ColorFlow = {
"0" = 0;
"1" = 0;
"10" = 0;
"11" = 0;
"2" = 0;
"3" = 0;
"4" = 0;
"5" = 0;
"6" = 0;
"7" = 0;
"8" = 0;
"9" = 0;
};
};
width = 577;
},
{
layerId = m004;
shapes = (
{
closed = 1;
nodes = (
(313,0,ls),
(401,0,o),
(592,28,o),
(592,179,cs),
(592,311,o),
(463,353,o),
(287,348,c),
(287,298,l),
(365,298,o),
(408,253,o),
(408,185,cs),
(408,107,o),
(360,68,o),
(272,70,c),
(272,437,ls),
(272,464,o),
(274,482,o),
(278,500,c),
(20,500,l),
(20,476,l),
(36,476,ls),
(70,476,o),
(88,464,o),
(88,418,cs),
(88,84,ls),
(88,48,o),
(83,24,o),
(72,0,c)
);
}
);
userData = {
com.hugojourdan.ColorFlow = {
"0" = 0;
"1" = 0;
"10" = 0;
"11" = 0;
"2" = 0;
"3" = 0;
"4" = 0;
"5" = 0;
"6" = 0;
"7" = 0;
"8" = 0;
"9" = 0;
};
};
width = 617;
}
);
metricLeft = i;
metricRight = o;
unicode = 1100;
}
{
color = 5;
glyphname = "ereversed-cy";
kernLeft = o;
kernRight = o;
layers = (
{
anchors = (
{
name = top;
pos = (264,500);
}
);
layerId = "452AD06C-4D92-427C-8B35-838986F56274";
shapes = (
{
closed = 1;
nodes = (
(413,-7,o),
(498,120,o),
(498,247,cs),
(498,376,o),
(411,505,o),
(223,505,cs),
(164,505,o),
(107,491,o),
(64,464,c),
(75,367,l),
(83,367,l),
(101,439,o),
(155,480,o),
(247,480,cs),
(374,480,o),
(433,382,o),
(433,279,cs),
(433,161,o),
(357,35,o),
(217,35,cs),
(146,35,o),
(75,72,o),
(37,145,c),
(30,141,l),
(79,40,o),
(169,-7,o),
(256,-7,cs)
);
},
{
closed = 1;
nodes = (
(252,294,ls),
(139,294,o),
(123,304,o),
(95,337,c),
(89,333,l),
(101,311,o),
(112,294,o),
(128,270,c),
(439,270,l),
(439,294,l)
);
}
);
userData = {
com.hugojourdan.ColorFlow = {
"0" = 0;
"1" = 0;
"10" = 0;
"11" = 0;
"2" = 0;
"3" = 0;
"4" = 0;
"5" = 0;
"6" = 0;
"7" = 0;
"8" = 0;
"9" = 0;
};
};
width = 528;
},
{
anchors = (
{
name = top;
pos = (264,500);
}
);
layerId = "D54810B1-F9A5-4F35-A1FF-AED0599B2373";
shapes = (
{
closed = 1;
nodes = (
(406,-10,o),
(512,98,o),
(512,243,cs),
(512,408,o),
(389,509,o),
(223,509,cs),
(163,509,o),
(104,495,o),
(57,470,c),
(99,341,l),
(113,344,l),
(109,400,o),
(142,462,o),
(230,462,cs),
(318,462,o),
(381,392,o),
(381,294,cs),
(381,168,o),
(297,81,o),
(189,81,cs),
(129,81,o),
(71,110,o),
(42,162,c),
(30,155,l),
(78,42,o),
(173,-10,o),
(266,-10,cs)
);
},
{
closed = 1;
nodes = (
(149,296,ls),
(92,296,o),
(80,304,o),
(59,332,c),
(46,326,l),
(56,305,o),
(68,282,o),
(83,254,c),
(401,254,l),
(401,296,l)
);
}
);
userData = {
com.hugojourdan.ColorFlow = {
"0" = 0;
"1" = 0;
"10" = 0;
"11" = 0;
"2" = 0;
"3" = 0;
"4" = 0;
"5" = 0;
"6" = 0;
"7" = 0;
"8" = 0;
"9" = 0;
};
};
width = 542;
},
{
anchors = (
{
name = top;
pos = (268,500);
}
);
layerId = m004;
shapes = (
{
closed = 1;
nodes = (
(398,-12,o),
(521,80,o),
(521,239,cs),
(521,435,o),
(369,513,o),
(221,513,cs),
(160,513,o),
(99,499,o),
(50,475,c),
(90,327,l),
(110,329,l),
(114,398,o),
(130,447,o),
(214,447,cs),
(270,447,o),
(335,400,o),
(335,307,cs),
(335,173,o),
(246,120,o),
(164,120,cs),
(113,120,o),
(66,141,o),
(44,176,c),
(28,168,l),
(74,44,o),
(174,-12,o),
(273,-12,cs)
);
},
{
closed = 1;
nodes = (
(143,296,ls),
(75,296,o),
(59,307,o),
(39,336,c),
(25,329,l),
(39,299,o),
(52,265,o),
(68,226,c),
(405,226,l),
(405,296,l)
);
}
);
userData = {
com.hugojourdan.ColorFlow = {
"0" = 0;
"1" = 0;
"10" = 0;
"11" = 0;
"2" = 0;
"3" = 0;
"4" = 0;
"5" = 0;
"6" = 0;
"7" = 0;
"8" = 0;
"9" = 0;
};
};
width = 546;
}
);
metricLeft = o;
metricRight = o;
unicode = 1101;
}
{
color = 5;
glyphname = "yu-cy";
kernLeft = i;
kernRight = o;
layers = (
{
anchors = (
{
name = top;
pos = (388,500);
}
);
layerId = "452AD06C-4D92-427C-8B35-838986F56274";
shapes = (
{
closed = 1;
nodes = (
(168,0,l),
(158,30,o),
(156,50,o),
(156,105,cs),
(156,245,l),
(283,245,l),
(283,269,l),
(156,269,l),
(156,416,ls),
(156,460,o),
(158,476,o),
(164,500,c),
(10,500,l),
(10,493,l),
(33,493,ls),
(74,493,o),
(92,469,o),
(92,413,cs),
(92,105,ls),
(92,50,o),
(90,30,o),
(80,0,c)
);
},
{
pos = (211,0);
ref = o;
}
);
userData = {
com.hugojourdan.ColorFlow = {
"0" = 0;
"1" = 0;
"10" = 0;
"11" = 0;
"2" = 0;
"3" = 0;
"4" = 0;
"5" = 0;
"6" = 0;
"7" = 0;
"8" = 0;
"9" = 0;
};
};
width = 775;
},
{
anchors = (
{
name = top;
pos = (426,500);
}
);
layerId = "D54810B1-F9A5-4F35-A1FF-AED0599B2373";
shapes = (
{
closed = 1;
nodes = (
(227,0,l),
(217,24,o),
(213,48,o),
(213,89,cs),
(213,224,l),
(301,224,l),
(301,266,l),
(213,266,l),
(213,427,ls),
(213,462,o),
(216,479,o),
(223,500,c),
(10,500,l),
(10,482,l),
(29,482,ls),
(66,482,o),
(84,460,o),
(84,411,cs),
(84,94,ls),
(84,49,o),
(80,27,o),
(68,0,c)
);
},
{
pos = (265,0);
ref = o;
}
);
userData = {
com.hugojourdan.ColorFlow = {
"0" = 0;
"1" = 0;
"10" = 0;
"11" = 0;
"2" = 0;
"3" = 0;
"4" = 0;
"5" = 0;
"6" = 0;
"7" = 0;
"8" = 0;
"9" = 0;
};
};
width = 851;
},
{
anchors = (
{
name = top;
pos = (457,500);
}
);
layerId = m004;
shapes = (
{
closed = 1;
nodes = (
(290,0,l),
(277,23,o),
(272,48,o),
(272,84,cs),
(272,202,l),
(355,202,l),
(355,272,l),
(272,272,l),
(272,437,ls),
(272,464,o),
(276,482,o),
(284,500,c),
(20,500,l),
(20,476,l),
(36,476,ls),
(70,476,o),
(88,454,o),
(88,412,cs),
(88,84,ls),
(88,48,o),
(82,24,o),
(68,0,c)
);
},
{
pos = (319,0);
ref = o;
}
);
userData = {
com.hugojourdan.ColorFlow = {
"0" = 0;
"1" = 0;
"10" = 0;
"11" = 0;
"2" = 0;
"3" = 0;
"4" = 0;
"5" = 0;
"6" = 0;
"7" = 0;
"8" = 0;
"9" = 0;
};
};
width = 913;
}
);
metricLeft = i;
metricRight = o;
unicode = 1102;
}
